<svg width="24" height="24" viewBox="0 0 24 24" fill="none" xmlns="http://www.w3.org/2000/svg">
<path d="M12 14.3C12.85 13.5167 13.5377 12.871 14.063 12.363C14.5883 11.855 14.9923 11.4173 15.275 11.05C15.5577 10.6827 15.7493 10.362 15.85 10.088C15.9507 9.814 16.0007 9.518 16 9.2C16 8.6 15.7833 8.08333 15.35 7.65C14.9167 7.21667 14.4 7 13.8 7C13.45 7 13.1123 7.071 12.787 7.213C12.4617 7.355 12.1993 7.55067 12 7.8C11.8 7.55 11.5417 7.35433 11.225 7.213C10.9083 7.07167 10.5667 7.00067 10.2 7C9.6 7 9.08333 7.21667 8.65 7.65C8.21667 8.08333 8 8.6 8 9.2C8 9.51667 8.04567 9.80833 8.137 10.075C8.22833 10.3417 8.416 10.6583 8.7 11.025C8.984 11.3917 9.384 11.8293 9.9 12.338C10.416 12.8467 11.116 13.5007 12 14.3ZM5 21V3H19V21L12 18L5 21Z" fill="#34568C"/>
</svg>
