<?xml version="1.0" encoding="UTF-8"?>
<!DOCTYPE svg PUBLIC "-//W3C//DTD SVG 1.1//EN" "http://www.w3.org/Graphics/SVG/1.1/DTD/svg11.dtd">
<!-- Creator: CorelDRAW -->
<svg xmlns="http://www.w3.org/2000/svg" xml:space="preserve" width="6.3734mm" height="6.3734mm" version="1.1" style="shape-rendering:geometricPrecision; text-rendering:geometricPrecision; image-rendering:optimizeQuality; fill-rule:evenodd; clip-rule:evenodd"
viewBox="0 0 637.34 637.34"
 xmlns:xlink="http://www.w3.org/1999/xlink"
 xmlns:xodm="http://www.corel.com/coreldraw/odm/2003">
 <defs>
  <style type="text/css">
   <![CDATA[
    .fil1 {fill:black;fill-rule:nonzero}
    .fil0 {fill:#FCFCFC;fill-rule:nonzero}
   ]]>
  </style>
 </defs>
 <g id="Слой_x0020_1">
  <metadata id="CorelCorpID_0Corel-Layer"/>
  <path class="fil0" d="M318.67 3.81c173.89,0 314.86,140.97 314.86,314.86 0,173.89 -140.97,314.86 -314.86,314.86 -173.89,0 -314.86,-140.97 -314.86,-314.86 0,-173.89 140.97,-314.86 314.86,-314.86zm70.23 176.5c-11.3,0.17 -22.89,2.18 -34.42,6.2l-4.93 1.83 -0.21 0.11c-12.07,6.14 -22.38,14.44 -30.93,24.83 -33.87,-38.8 -97.53,-45.35 -140.07,-7.01l-0.02 0 -0.13 0.13c-33.64,35.15 -33.32,91.42 -12.09,136.43l0.05 0.13c25.29,46.83 75.01,89.45 120.79,124.26l0.05 0.02c1.97,1.44 4.16,3.25 6.57,5.22 2.37,1.95 4.93,4.06 7.57,6.04 5.21,3.92 11.09,7.66 16.87,8.77l0.36 0.07 0.36 -0.02c1.94,-0.17 4.26,-1.03 6.67,-2.17 2.47,-1.18 5.3,-2.8 8.37,-4.73 6.15,-3.87 13.4,-9.1 20.85,-14.83 14.88,-11.44 30.76,-25.02 40.62,-34.19 21.38,-18.19 42.34,-39.08 59.92,-63.33l-0.03 -0.02c26.78,-35.99 39.63,-83.86 24.37,-131.03l-2.54 0.8 2.54 -0.82 -0.13 -0.29c-16.63,-35.94 -51.72,-57.01 -90.46,-56.4z"/>
  <path class="fil1" d="M318.67 0c87.99,0 167.66,35.67 225.33,93.34 57.67,57.67 93.34,137.34 93.34,225.33 0,87.99 -35.67,167.66 -93.34,225.33 -57.67,57.67 -137.34,93.34 -225.33,93.34 -87.99,0 -167.66,-35.67 -225.33,-93.34 -57.67,-57.67 -93.34,-137.34 -93.34,-225.33 0,-87.99 35.67,-167.66 93.34,-225.33 57.67,-57.67 137.34,-93.34 225.33,-93.34zm219.95 98.72c-56.28,-56.28 -134.05,-91.1 -219.95,-91.1 -85.9,0 -163.67,34.82 -219.95,91.1 -56.28,56.28 -91.1,134.05 -91.1,219.95 0,85.9 34.82,163.67 91.1,219.95 56.28,56.28 134.05,91.1 219.95,91.1 85.9,0 163.67,-34.82 219.95,-91.1 56.28,-56.28 91.1,-134.05 91.1,-219.95 0,-85.9 -34.82,-163.67 -91.1,-219.95zm-149.66 85.39c-5.5,0.08 -11.1,0.62 -16.69,1.63 -5.48,0.98 -11.02,2.44 -16.54,4.36l-4.65 1.72c-5.8,2.95 -11.18,6.43 -16.12,10.39 -4.96,3.99 -9.53,8.5 -13.62,13.48l-2.82 3.44 -3.91 -4.4c-16.2,-17.97 -39.21,-28.48 -63.22,-30.08 -24.02,-1.6 -49.08,5.72 -69.32,23.39l-1.31 1.15c-15.26,16.04 -23.22,36.73 -25.16,58.65 -2.14,24.42 3.11,50.41 13.94,73.37 12.46,23.07 30.97,45.12 51.98,65.68 21.05,20.6 44.63,39.75 67.24,56.96 4.47,3.11 10.34,8.17 14.65,11.61 2.5,1.87 5.15,3.72 7.77,5.15 2.46,1.35 4.97,2.42 7.39,2.9l2.09 -0.51 3.11 -1.29 3.7 -1.93 4.25 -2.57c2.82,-1.76 5.99,-3.91 9.37,-6.32l11.2 -8.31c7.05,-5.41 14.28,-11.27 20.92,-16.86 7.35,-6.19 14.2,-12.24 19.43,-17.1l0.13 -0.12c10.61,-9.03 21.13,-18.72 31.11,-29.12 9.09,-9.46 17.8,-19.56 25.84,-30.35l2.35 -3.24c13.65,-18.34 23.6,-39.85 27.85,-62.73 3.88,-20.86 3.03,-42.9 -4.01,-64.76 -7.93,-17.13 -20.23,-30.75 -35.12,-40.03 -15.17,-9.46 -33.06,-14.45 -51.83,-14.16zm-18.03 -5.85c6,-1.08 12.01,-1.66 17.91,-1.75 20.27,-0.32 39.59,5.09 55.97,15.3 15.32,9.56 28.11,23.35 36.7,40.6l0.43 -0.14 1.08 3.32 1.67 3.73 -0.47 0.15c6.46,21.97 7.07,44.03 3.18,64.95 -4.22,22.72 -13.77,44.13 -26.88,62.65l-2.29 3.23c-8.88,12.25 -18.64,23.68 -28.87,34.34 -10.22,10.65 -20.92,20.52 -31.66,29.65 -5.14,4.77 -12.01,10.83 -19.61,17.23 -6.82,5.74 -14.15,11.69 -21.16,17.08l-11.44 8.49c-3.33,2.38 -6.6,4.58 -9.7,6.53l-4.55 2.75 -4.23 2.22 -3.91 1.61c-1.42,0.48 -2.81,0.82 -4.07,0.92l-1.74 -0.11c-3.32,-0.63 -6.61,-2.01 -9.77,-3.74 -3.05,-1.67 -5.99,-3.7 -8.68,-5.73 -4.29,-3.43 -9.72,-8.1 -14.19,-11.3 -23.01,-17.49 -47.05,-36.98 -68.45,-57.93 -21.55,-21.1 -40.57,-43.78 -53.4,-67.55l-0.13 -0.31c-11.41,-24.16 -16.92,-51.53 -14.65,-77.27 2.12,-23.63 10.78,-46 27.43,-63.4l1.3 -1.32 0.3 -0.12c21.87,-19.1 48.92,-27.02 74.84,-25.29 24.98,1.67 49,12.3 66.43,30.51 3.68,-4.1 7.65,-7.87 11.88,-11.27 5.34,-4.28 11.17,-8.05 17.43,-11.23 1.64,-0.82 3.77,-1.46 5.53,-2.11 5.96,-2.08 11.89,-3.64 17.77,-4.69z"/>
 </g>
</svg>
