<?xml version="1.0" encoding="UTF-8"?>
<!DOCTYPE svg PUBLIC "-//W3C//DTD SVG 1.1//EN" "http://www.w3.org/Graphics/SVG/1.1/DTD/svg11.dtd">
<!-- Creator: CorelDRAW -->
<svg xmlns="http://www.w3.org/2000/svg" xml:space="preserve" width="6.4496mm" height="6.4496mm" version="1.1" style="shape-rendering:geometricPrecision; text-rendering:geometricPrecision; image-rendering:optimizeQuality; fill-rule:evenodd; clip-rule:evenodd"
viewBox="0 0 644.96 644.96"
 xmlns:xlink="http://www.w3.org/1999/xlink"
 xmlns:xodm="http://www.corel.com/coreldraw/odm/2003">
 <defs>
  <style type="text/css">
   <![CDATA[
    .fil1 {fill:black;fill-rule:nonzero}
    .fil0 {fill:#F2F2F2;fill-rule:nonzero}
   ]]>
  </style>
 </defs>
 <g id="Слой_x0020_1">
  <metadata id="CorelCorpID_0Corel-Layer"/>
  <path class="fil0" d="M322.48 7.62c173.89,0 314.86,140.97 314.86,314.86 0,173.89 -140.97,314.86 -314.86,314.86 -173.89,0 -314.86,-140.97 -314.86,-314.86 0,-173.89 140.97,-314.86 314.86,-314.86zm70.23 176.5c-11.3,0.17 -22.89,2.18 -34.42,6.2l-4.93 1.83 -0.21 0.11c-12.07,6.14 -22.38,14.44 -30.93,24.83 -33.87,-38.8 -97.53,-45.35 -140.07,-7.01l-0.02 0 -0.13 0.13c-33.64,35.15 -33.32,91.42 -12.09,136.43l0.05 0.13c25.29,46.83 75.01,89.45 120.79,124.26l0.05 0.02c1.97,1.44 4.16,3.25 6.57,5.22 2.37,1.95 4.93,4.06 7.57,6.04 5.21,3.92 11.09,7.66 16.87,8.77l0.36 0.07 0.36 -0.02c1.94,-0.17 4.26,-1.03 6.67,-2.17 2.47,-1.18 5.3,-2.8 8.37,-4.73 6.15,-3.87 13.4,-9.1 20.85,-14.83 14.88,-11.44 30.76,-25.02 40.62,-34.19 21.38,-18.19 42.34,-39.08 59.92,-63.33l-0.03 -0.02c26.78,-35.99 39.63,-83.86 24.37,-131.03l-2.54 0.8 2.54 -0.82 -0.13 -0.29c-16.63,-35.94 -51.72,-57.01 -90.46,-56.4z"/>
  <path class="fil1" d="M322.48 3.81c87.99,0 167.66,35.67 225.33,93.34 57.67,57.67 93.34,137.34 93.34,225.33 0,87.99 -35.67,167.66 -93.34,225.33 -57.67,57.67 -137.34,93.34 -225.33,93.34 -87.99,0 -167.66,-35.67 -225.33,-93.34 -57.67,-57.67 -93.34,-137.34 -93.34,-225.33 0,-87.99 35.67,-167.66 93.34,-225.33 57.67,-57.67 137.34,-93.34 225.33,-93.34zm219.95 98.72c-56.28,-56.28 -134.05,-91.1 -219.95,-91.1 -85.9,0 -163.67,34.82 -219.95,91.1 -56.28,56.28 -91.1,134.05 -91.1,219.95 0,85.9 34.82,163.67 91.1,219.95 56.28,56.28 134.05,91.1 219.95,91.1 85.9,0 163.67,-34.82 219.95,-91.1 56.28,-56.28 91.1,-134.05 91.1,-219.95 0,-85.9 -34.82,-163.67 -91.1,-219.95zm-149.66 85.39c-5.5,0.08 -11.1,0.62 -16.69,1.63 -5.48,0.98 -11.02,2.44 -16.54,4.36l-4.65 1.72c-5.8,2.95 -11.18,6.43 -16.12,10.39 -4.96,3.99 -9.53,8.5 -13.62,13.48l-2.82 3.44 -3.91 -4.4c-16.2,-17.97 -39.21,-28.48 -63.22,-30.08 -24.02,-1.6 -49.08,5.72 -69.32,23.39l-1.31 1.15c-15.26,16.04 -23.22,36.73 -25.16,58.65 -2.14,24.42 3.11,50.41 13.94,73.37 12.46,23.07 30.97,45.12 51.98,65.68 21.05,20.6 44.63,39.75 67.24,56.96 4.47,3.11 10.34,8.17 14.65,11.61 2.5,1.87 5.15,3.72 7.77,5.15 2.46,1.35 4.97,2.42 7.39,2.9l2.09 -0.51 3.11 -1.29 3.7 -1.93 4.25 -2.57c2.82,-1.76 5.99,-3.91 9.37,-6.32l11.2 -8.31c7.05,-5.41 14.28,-11.27 20.92,-16.86 7.35,-6.19 14.2,-12.24 19.43,-17.1l0.13 -0.12c10.61,-9.03 21.13,-18.72 31.11,-29.12 9.09,-9.46 17.8,-19.56 25.84,-30.35l2.35 -3.24c13.65,-18.34 23.6,-39.85 27.85,-62.73 3.88,-20.86 3.03,-42.9 -4.01,-64.76 -7.93,-17.13 -20.23,-30.75 -35.12,-40.03 -15.17,-9.46 -33.06,-14.45 -51.83,-14.16zm-18.03 -5.85c6,-1.08 12.01,-1.66 17.91,-1.75 20.27,-0.32 39.59,5.09 55.97,15.3 15.32,9.56 28.11,23.35 36.7,40.6l0.43 -0.14 1.08 3.32 1.67 3.73 -0.47 0.15c6.46,21.97 7.07,44.03 3.18,64.95 -4.22,22.72 -13.77,44.13 -26.88,62.65l-2.29 3.23c-8.88,12.25 -18.64,23.68 -28.87,34.34 -10.22,10.65 -20.92,20.52 -31.66,29.65 -5.14,4.77 -12.01,10.83 -19.61,17.23 -6.82,5.74 -14.15,11.69 -21.16,17.08l-11.44 8.49c-3.33,2.38 -6.6,4.58 -9.7,6.53l-4.55 2.75 -4.23 2.22 -3.91 1.61c-1.42,0.48 -2.81,0.82 -4.07,0.92l-1.74 -0.11c-3.32,-0.63 -6.61,-2.01 -9.77,-3.74 -3.05,-1.67 -5.99,-3.7 -8.68,-5.73 -4.29,-3.43 -9.72,-8.1 -14.19,-11.3 -23.01,-17.49 -47.05,-36.98 -68.45,-57.93 -21.55,-21.1 -40.57,-43.78 -53.4,-67.55l-0.13 -0.31c-11.41,-24.16 -16.92,-51.53 -14.65,-77.27 2.12,-23.63 10.78,-46 27.43,-63.4l1.3 -1.32 0.3 -0.12c21.87,-19.1 48.92,-27.02 74.84,-25.29 24.98,1.67 49,12.3 66.43,30.51 3.68,-4.1 7.65,-7.87 11.88,-11.27 5.34,-4.28 11.17,-8.05 17.43,-11.23 1.64,-0.82 3.77,-1.46 5.53,-2.11 5.96,-2.08 11.89,-3.64 17.77,-4.69z"/>
  <path class="fil1" d="M322.48 0c43.64,0 85.31,8.69 123.3,24.43 39.48,16.36 75.01,40.32 104.72,70.03 29.71,29.71 53.67,65.24 70.03,104.72 15.74,37.99 24.43,79.66 24.43,123.3 0,43.64 -8.69,85.31 -24.43,123.3 -16.36,39.48 -40.32,75.01 -70.03,104.72 -29.71,29.71 -65.24,53.67 -104.72,70.03 -37.99,15.74 -79.66,24.43 -123.3,24.43 -43.64,0 -85.31,-8.69 -123.3,-24.43 -39.48,-16.36 -75.01,-40.32 -104.72,-70.03 -29.71,-29.71 -53.67,-65.24 -70.03,-104.72 -15.74,-37.99 -24.43,-79.66 -24.43,-123.3 0,-43.64 8.69,-85.31 24.43,-123.3 16.36,-39.48 40.32,-75.01 70.03,-104.72 29.71,-29.71 65.24,-53.67 104.72,-70.03 37.99,-15.74 79.66,-24.43 123.3,-24.43zm120.42 31.45c-31.16,-12.9 -64.88,-20.95 -100.18,-23.19 72.19,4.58 137.79,33.5 188.65,78.63 -26.01,-23.09 -55.87,-41.94 -88.47,-55.44zm-100.21 -23.19l-3.95 -0.23 3.95 0.23zm-4.04 -0.23l-3.92 -0.18 3.92 0.18zm-4.03 -0.18l-3.94 -0.12 3.94 0.12zm-4.05 -0.13l-3.97 -0.07 3.97 0.07zm-4.04 -0.07l-4.05 -0.03c-42.67,0 -83.36,8.48 -120.42,23.83 -38.5,15.95 -73.18,39.35 -102.22,68.39l-2.61 2.65 2.61 -2.65c29,-29 63.7,-52.4 102.24,-68.36 37.11,-15.37 77.79,-23.86 120.4,-23.86l4.05 0.03zm218.59 92.19l-2.65 -2.61 2.65 2.61zm-2.7 -2.67l-2.65 -2.55 2.65 2.55zm-2.73 -2.63l-2.67 -2.51 2.67 2.51zm-2.75 -2.59l-2.71 -2.5 2.71 2.5zm-2.77 -2.55l-2.79 -2.5 2.79 2.5zm79.34 112.66c-15.95,-38.5 -39.35,-73.18 -68.39,-102.22 29,29 52.4,63.7 68.36,102.24 15.37,37.11 23.86,77.79 23.86,120.4 0,-42.67 -8.48,-83.36 -23.83,-120.42zm0 240.84c12.9,-31.16 20.95,-64.88 23.19,-100.18 -4.58,72.19 -33.5,137.79 -78.63,188.65 23.09,-26.01 41.94,-55.87 55.44,-88.47zm23.19 -100.21l0.23 -3.95 -0.23 3.95zm0.23 -4.04l0.18 -3.92 -0.18 3.92zm0.18 -4.03l0.12 -3.94 -0.12 3.94zm0.13 -4.05l0.07 -3.97 -0.07 3.97zm0.07 -4.04l0.03 -4.05 -0.03 4.05zm-92.19 218.59l2.61 -2.65 -2.61 2.65zm2.67 -2.7l2.55 -2.65 -2.55 2.65zm2.63 -2.73l2.51 -2.67 -2.51 2.67zm2.59 -2.75l2.5 -2.71 -2.5 2.71zm2.55 -2.77l2.5 -2.79 -2.5 2.79zm-112.66 79.34c38.5,-15.95 73.18,-39.35 102.22,-68.39 -29,29 -63.7,52.4 -102.24,68.36 -37.11,15.37 -77.79,23.86 -120.4,23.86 42.67,0 83.36,-8.48 120.42,-23.83zm-240.84 0c31.16,12.9 64.88,20.95 100.18,23.19 -72.19,-4.58 -137.79,-33.5 -188.65,-78.63 26.01,23.09 55.87,41.94 88.47,55.44zm100.21 23.19l3.95 0.23 -3.95 -0.23zm4.04 0.23l3.92 0.18 -3.92 -0.18zm4.03 0.18l3.94 0.12 -3.94 -0.12zm4.05 0.13l3.97 0.07 -3.97 -0.07zm4.04 0.07l4.05 0.03 -4.05 -0.03zm-218.59 -92.19l2.65 2.61 -2.65 -2.61zm2.7 2.67l2.65 2.55 -2.65 -2.55zm2.73 2.63l2.67 2.51 -2.67 -2.51zm2.75 2.59l2.71 2.5 -2.71 -2.5zm2.77 2.55l2.79 2.5 -2.79 -2.5zm-79.34 -112.66c15.95,38.5 39.35,73.18 68.39,102.22 -29,-29 -52.4,-63.7 -68.36,-102.24 -15.37,-37.11 -23.86,-77.79 -23.86,-120.4 0,42.67 8.48,83.36 23.83,120.42zm0 -240.84c-12.9,31.16 -20.95,64.88 -23.19,100.18 4.58,-72.19 33.5,-137.79 78.63,-188.65 -23.09,26.01 -41.94,55.87 -55.44,88.47zm-23.19 100.21l-0.23 3.95 0.23 -3.95zm-0.23 4.04l-0.18 3.92 0.18 -3.92zm-0.18 4.03l-0.12 3.94 0.12 -3.94zm-0.13 4.05l-0.07 3.97 0.07 -3.97zm-0.07 4.04l-0.03 4.05 0.03 -4.05zm89.52 -215.89l-2.55 2.65 2.55 -2.65zm-2.63 2.73l-2.51 2.67 2.51 -2.67zm-2.59 2.75l-2.5 2.71 2.5 -2.71zm-2.55 2.77l-2.5 2.79 2.5 -2.79zm450.34 -5.57c-55.58,-55.58 -132.41,-89.98 -217.26,-89.98 -41.64,0 -81.35,8.28 -117.52,23.26 -37.56,15.55 -71.42,38.4 -99.74,66.72 -55.58,55.58 -89.98,132.41 -89.98,217.26 0,41.64 8.28,81.35 23.26,117.52 15.55,37.56 38.4,71.42 66.72,99.74 55.58,55.58 132.41,89.98 217.26,89.98 41.64,0 81.35,-8.28 117.52,-23.26 37.56,-15.55 71.42,-38.4 99.74,-66.72 55.58,-55.58 89.98,-132.41 89.98,-217.26 0,-41.64 -8.28,-81.35 -23.26,-117.52 -15.55,-37.56 -38.4,-71.42 -66.72,-99.74zm-146.93 86.5c-2.66,0.03 -5.37,0.2 -8.02,0.45 -2.64,0.25 -5.35,0.64 -8.04,1.12 -2.65,0.48 -5.34,1.08 -7.96,1.77 -2.67,0.7 -5.34,1.52 -7.94,2.42l-4.41 1.63c-2.73,1.4 -5.36,2.91 -7.85,4.52 -2.58,1.66 -5.08,3.46 -7.44,5.35 -2.38,1.91 -4.69,3.97 -6.86,6.12 -2.19,2.16 -4.27,4.45 -6.21,6.81l-5.63 6.88 -6.87 -7.72c-7.66,-8.5 -16.94,-15.26 -27.11,-20.1 -10.44,-4.96 -21.87,-7.94 -33.52,-8.71 -11.87,-0.78 -24,0.68 -35.59,4.59 -10.98,3.7 -21.54,9.62 -30.98,17.86l-1.17 1.03c-7.02,7.41 -12.44,15.88 -16.35,25.01 -4.2,9.79 -6.71,20.38 -7.67,31.23 -1.01,11.73 -0.28,23.85 1.98,35.76 2.31,12.21 6.26,24.27 11.57,35.56 6.1,11.3 13.72,22.37 22.35,33.12 8.68,10.81 18.47,21.36 28.9,31.56 10.38,10.18 21.49,20.07 32.81,29.55 11.45,9.59 22.89,18.62 33.96,27.03 3.26,2.28 7.15,5.47 10.67,8.37l4.19 3.39 3.55 2.53 3.62 2.22 3.31 1.6 2.28 0.74 0.87 -0.21 2.81 -1.16 3.26 -1.71c4.67,-2.82 8.94,-5.65 13.42,-8.76l11.05 -8.2 10.2 -8.03 10.59 -8.71 10.23 -8.82 9.31 -8.4c5.29,-4.49 10.55,-9.16 15.66,-13.93 5.16,-4.81 10.25,-9.79 15.17,-14.92 4.52,-4.69 8.93,-9.54 13.16,-14.51 4.28,-5.02 8.43,-10.18 12.34,-15.44l2.35 -3.24c6.81,-9.15 12.67,-19.07 17.31,-29.52 4.47,-10.07 7.85,-20.71 9.88,-31.66 1.93,-10.37 2.65,-21.07 1.98,-31.88 -0.63,-10.21 -2.52,-20.56 -5.8,-30.83 -3.72,-8 -8.48,-15.23 -14.04,-21.55 -5.71,-6.53 -12.31,-12.12 -19.54,-16.62 -7.32,-4.56 -15.31,-8.06 -23.68,-10.34 -8.32,-2.27 -17.11,-3.38 -26.1,-3.25zm-8.74 -7.11c2.9,-0.28 5.82,-0.45 8.66,-0.49 9.66,-0.14 19.16,1.07 28.18,3.53 5.7,1.55 11.22,3.61 16.49,6.14 -5.27,-2.54 -10.78,-4.6 -16.46,-6.15 -9,-2.46 -18.51,-3.67 -28.23,-3.52 -2.86,0.04 -5.78,0.21 -8.64,0.49zm-7.71 1.03l7.71 -1.03 -7.71 1.03zm-22.81 6.43l4.35 -1.61 -4.35 1.61zm-9.06 5.16l1.07 -0.68 -1.07 0.68zm-8.1 5.83l2.2 -1.71 -2.2 1.71zm-14.17 14.03l2.24 -2.64 -2.24 2.51 -2.4 -2.51 2.4 2.64zm-30.49 -23c5.34,2.55 10.46,5.58 15.27,9.08 -4.81,-3.5 -9.93,-6.54 -15.27,-9.08zm15.35 9.15l0.26 0.19 -0.26 -0.19zm-51.63 -18.58l0.58 0.04 -0.58 -0.04zm0.79 0.06l0.37 0.02 -0.37 -0.02zm0.64 0.05l0.31 0.02 -0.31 -0.02zm0.62 0.05l0.26 0.02 -0.26 -0.02zm0.61 0.05l0.22 0.02 -0.22 -0.02zm0.6 0.06l0.19 0.02 -0.19 -0.02zm0.6 0.06l0.16 0.02 -0.16 -0.02zm0.6 0.07l0.13 0.01 -0.13 -0.01zm31.47 8.86l0.29 0.14 -0.29 -0.14zm-35.94 -9.26l-2.79 -0.15 2.79 0.15zm-38.5 4.99c10.6,-3.58 21.6,-5.27 32.47,-5.21 -10.9,-0.07 -21.89,1.63 -32.48,5.2 -7.98,2.69 -15.74,6.46 -23.08,11.35 7.34,-4.88 15.11,-8.65 23.09,-11.34zm-34.81 20.44l0.72 -0.63 -0.72 0.63zm-26.51 61.23c0.44,-4.93 1.17,-9.79 2.21,-14.57 -1.04,4.78 -1.78,9.65 -2.21,14.57zm2.21 -14.58l0.05 -0.22 -0.05 0.22zm35.34 124.44c-8.94,-11.12 -16.83,-22.62 -23.16,-34.34l0.05 0.11c6.28,11.62 14.09,23 22.94,34.02l2.63 3.23 -2.46 -3.02zm101.24 92.58l-3.39 -2.55 3.39 2.55zm-3.75 -2.81l-0.16 -0.11 0.16 0.11zm14.28 11.36c1.78,1.38 3.83,2.75 5.74,3.98l-5.74 -3.98zm8.25 5.46l0.53 0.28 -0.53 -0.28zm10.08 3.24l-0.33 0.08 2.7 -0.66 -2.37 0.58zm6.07 -2.13l-0.24 0.12 3.99 -2.07 -3.75 1.95zm12.69 -7.57l-0.28 0.2 0.47 -0.31 -0.19 0.11zm5.13 -3.56l11.26 -8.35 -11.26 8.35zm42.67 -34.24l-0.73 0.64 1.32 -1.16 -0.59 0.52zm25.13 -22.47l-8.94 8.12 8.93 -8.09c5.24,-4.9 10.44,-9.99 15.48,-15.25 -5.04,5.25 -10.23,10.35 -15.47,15.22zm28.93 -30.06l-0.45 0.51 0.45 -0.51zm12.7 -15.9l-5.86 7.62c2.82,-3.53 5.57,-7.14 8.23,-10.82l1.38 -1.94 -3.75 5.14zm8.84 -12.62l-0.09 0.14 0.09 -0.14zm-0.27 0.42l-0.12 0.18 0.12 -0.18zm-0.28 0.43l-0.14 0.22 0.14 -0.22zm-0.29 0.45l-0.15 0.23 0.15 -0.23zm-0.3 0.45l-0.16 0.24 0.16 -0.24zm-0.29 0.45l-0.17 0.25 0.17 -0.25zm-0.31 0.45l-0.17 0.25 0.17 -0.25zm-0.3 0.45l-0.17 0.25 0.17 -0.25zm-0.31 0.46l-0.16 0.23 0.16 -0.23zm-0.31 0.45l-0.14 0.21 0.14 -0.21zm-0.31 0.46l-0.12 0.17 0.12 -0.17zm25.01 -59.38c-1.07,5.75 -2.49,11.42 -4.24,16.99 1.75,-5.57 3.18,-11.24 4.24,-16.99zm-4.24 17.02l-0.07 0.21 0.07 -0.21zm6.34 -50.7c0.25,4.07 0.31,8.13 0.2,12.17 0.1,-3.47 0.07,-6.95 -0.1,-10.45 -0.18,-3.79 -0.53,-7.61 -1.05,-11.43 0.44,3.25 0.75,6.49 0.95,9.71zm0.2 12.28l-0.01 0.21 0.01 -0.21zm-6.43 -45.2l0.58 1.84 -0.64 -2.02 0.06 0.18zm5.16 22.39l0.03 0.17 -0.03 -0.17zm0.06 0.4l0.05 0.38 -0.05 -0.38zm-5.39 -23.22l0.07 0.17 -0.6 -1.31 0.53 1.14zm-15.33 -23.62l1.94 2.25 -2.88 -3.33c-4.29,-4.75 -9.04,-9.04 -14.16,-12.81 5.47,4.04 10.54,8.68 15.1,13.89zm-93.77 -38.57c3.07,-0.55 6.17,-0.98 9.26,-1.28 3.12,-0.31 6.23,-0.48 9.26,-0.53 10.41,-0.16 20.63,1.15 30.35,3.8 9.83,2.69 19.16,6.76 27.69,12.07 8,5 15.39,11.16 21.89,18.35 5.65,6.23 10.61,13.23 14.7,20.86l0.97 -0.31 2.22 6.8 3.29 7.37 -1.02 0.32c2.62,9.84 4.12,19.7 4.59,29.45 0.55,11.4 -0.28,22.7 -2.32,33.68 -2.12,11.46 -5.58,22.6 -10.11,33.17 -4.68,10.92 -10.57,21.33 -17.41,30.99l-2.29 3.24c-4.51,6.23 -9.24,12.24 -14.13,18.03 -4.84,5.73 -9.9,11.32 -15.1,16.74 -5.16,5.39 -10.46,10.59 -15.78,15.55 -5.36,5 -10.78,9.81 -16.15,14.37l-9.05 8.14 -10.59 9.09 -10.92 9.02 -10.36 8.17c-10.38,7.7 -24.64,19.25 -37.39,22.89 -2.29,0.38 -2.99,0.59 -5.25,0.25 -1.91,-0.35 -3.81,-0.95 -5.65,-1.66 -1.78,-0.7 -3.56,-1.54 -5.25,-2.48 -1.57,-0.83 -3.18,-1.85 -4.77,-2.9 -3.23,-2.31 -5.65,-4.16 -8.73,-6.67 -3.32,-2.71 -6.9,-5.66 -9.76,-7.7l-0.09 -0.08c-11.7,-8.88 -23.56,-18.21 -34.98,-27.77 -11.58,-9.68 -23.02,-19.87 -33.84,-30.47 -10.87,-10.64 -21.13,-21.71 -30.27,-33.1 -9.19,-11.46 -17.31,-23.28 -23.82,-35.36l-0.29 -0.63c-5.86,-12.46 -10.22,-25.79 -12.77,-39.27 -2.51,-13.28 -3.31,-26.77 -2.17,-39.81 1.14,-12.53 4.08,-24.78 8.99,-36.15 4.65,-10.77 11.12,-20.79 19.5,-29.55l1.9 -1.92 0.43 -0.18c10.9,-9.39 23.03,-16.15 35.64,-20.42 13.55,-4.57 27.68,-6.3 41.46,-5.38 13.05,0.86 25.89,4.12 37.72,9.56 10.4,4.77 20.04,11.25 28.37,19.28l3.21 -3.19c2.05,-1.94 4.19,-3.81 6.38,-5.57 2.79,-2.24 5.73,-4.35 8.74,-6.29 3.01,-1.94 6.15,-3.74 9.36,-5.37 1.53,-0.76 3,-1.27 4.4,-1.76l1.59 -0.55c3.09,-1.08 6.17,-2.03 9.17,-2.82 3,-0.78 6.08,-1.47 9.18,-2.02z"/>
 </g>
</svg>
