<?xml version="1.0" standalone="no"?>
<!DOCTYPE svg PUBLIC "-//W3C//DTD SVG 1.1//EN" "http://www.w3.org/Graphics/SVG/1.1/DTD/svg11.dtd" >
<svg xmlns="http://www.w3.org/2000/svg">
<metadata>Generated by IcoMoon</metadata>
<defs>
<font id="esl-connected" horiz-adv-x="1024">
<font-face units-per-em="1024" ascent="960" descent="-64" />
<missing-glyph horiz-adv-x="1024" />
<glyph unicode="&#x20;" horiz-adv-x="512" d="" />
<glyph unicode="&#xe900;" glyph-name="vacablury" horiz-adv-x="973" d="M102.409 499.204c0-28.27-22.935-51.204-51.204-51.204s-51.204 22.935-51.204 51.204v256.007c0 13.255 1.334 26.578 3.946 39.751 2.544 12.815 6.49 25.726 11.742 38.431 5.184 12.512 11.564 24.461 19.002 35.557 7.672 11.495 16.183 21.931 25.313 31.061l3.107 2.86c8.649 8.305 18.026 15.826 27.953 22.467 11.124 7.425 23.058 13.819 35.557 18.975 12.664 5.252 25.575 9.199 38.431 11.756 13.172 2.612 26.496 3.946 39.751 3.946s26.578-1.334 39.751-3.946c12.842-2.557 25.767-6.504 38.431-11.756 12.471-5.142 24.365-11.509 35.461-18.906l0.082 0.124c11.137-7.411 21.573-15.991 31.088-25.52 9.13-9.13 17.627-19.566 25.313-31.061 7.411-11.096 13.805-23.058 18.988-35.557 5.252-12.691 9.185-25.561 11.742-38.403 2.612-13.186 3.946-26.537 3.946-39.778v-256.007c0-28.27-22.935-51.204-51.204-51.204s-51.204 22.935-51.204 51.204v102.395h-204.789v-102.395zM102.409 755.211v-51.204h204.789v51.204c0 6.916-0.674 13.695-1.939 20.185-1.347 6.806-3.286 13.269-5.734 19.181-2.53 6.091-5.692 12.004-9.405 17.558-3.437 5.156-7.782 10.367-12.884 15.468-4.716 4.716-9.941 9.006-15.496 12.719l0.082 0.124c-5.637 3.754-11.536 6.944-17.627 9.446-5.94 2.447-12.389 4.4-19.222 5.747-6.476 1.279-13.255 1.939-20.157 1.939s-13.667-0.646-20.157-1.939c-6.806-1.347-13.282-3.3-19.222-5.747-6.105-2.516-12.017-5.692-17.558-9.391-4.716-3.162-9.212-6.737-13.365-10.67l-2.104-2.241c-5.115-5.115-9.446-10.312-12.884-15.468-3.726-5.555-6.902-11.481-9.419-17.558-2.447-5.926-4.386-12.389-5.734-19.222-1.292-6.49-1.939-13.255-1.939-20.157zM823.666 827.37c8.016 17.82 25.918 30.249 46.735 30.249 28.27 0 51.204-22.935 51.204-51.204v-307.211c0-28.27-22.935-51.204-51.204-51.204-20.817 0-38.719 12.43-46.735 30.249-9.144-5.555-18.741-10.422-28.682-14.547-24.777-10.257-51.314-15.702-78.181-15.702s-53.404 5.445-78.181 15.702c-24.901 10.312-47.643 25.313-66.631 44.302s-33.976 41.717-44.302 66.618c-10.244 24.777-15.688 51.355-15.688 78.181 0 26.84 5.445 53.404 15.688 78.181 9.707 23.443 23.718 45.030 41.401 63.496l2.887 3.135c18.988 18.988 41.731 33.976 66.631 44.302 24.777 10.257 51.314 15.702 78.181 15.702s53.404-5.445 78.181-15.702c9.941-4.125 19.538-8.979 28.682-14.547zM51.204 243.197c-28.27 0-51.204 22.935-51.204 51.204s22.935 51.204 51.204 51.204h614.395c28.27 0 51.204-22.935 51.204-51.204s-22.935-51.204-51.204-51.204h-614.395zM51.204 38.395c-28.27 0-51.204 22.935-51.204 51.204s22.935 51.204 51.204 51.204h307.197c28.27 0 51.204-22.935 51.204-51.204s-22.935-51.204-51.204-51.204h-307.197zM527.015 53.395c-19.978 19.978-19.978 52.414 0 72.393s52.414 19.978 72.393 0l66.191-66.205 219.804 219.804c19.978 19.978 52.414 19.978 72.393 0s19.978-52.414 0-72.393l-256.007-256.007c-19.978-19.978-52.414-19.978-72.393 0l-102.395 102.408zM614.409 652.789c0-13.874 2.667-27.252 7.672-39.379 4.964-11.976 12.512-23.251 22.288-33.027 9.762-9.762 21.065-17.325 33.041-22.288 12.127-5.019 25.52-7.686 39.379-7.686s27.238 2.667 39.379 7.686c11.976 4.964 23.251 12.512 33.027 22.288s17.325 21.065 22.288 33.027c5.019 12.127 7.686 25.52 7.686 39.379s-2.667 27.238-7.686 39.379c-4.964 11.99-12.526 23.278-22.288 33.041-9.776 9.776-21.065 17.325-33.027 22.288-12.127 5.019-25.52 7.686-39.379 7.686s-27.238-2.667-39.379-7.686c-11.99-4.964-23.278-12.526-33.041-22.288l-2.131-2.021c-8.676-9.199-15.482-19.758-20.157-31.033-5.005-12.114-7.672-25.506-7.672-39.379z" />
<glyph unicode="&#xe901;" glyph-name="burger" d="M170.667 704c0 11.316 4.495 22.168 12.497 30.17s18.854 12.497 30.17 12.497h597.333c11.315 0 22.17-4.495 30.17-12.497s12.497-18.854 12.497-30.17c0-11.316-4.497-22.168-12.497-30.17s-18.854-12.497-30.17-12.497h-597.333c-11.316 0-22.168 4.495-30.17 12.497s-12.497 18.854-12.497 30.17zM170.667 448c0 11.315 4.495 22.17 12.497 30.17s18.854 12.497 30.17 12.497h597.333c11.315 0 22.17-4.497 30.17-12.497s12.497-18.854 12.497-30.17c0-11.315-4.497-22.17-12.497-30.17s-18.854-12.497-30.17-12.497h-597.333c-11.316 0-22.168 4.497-30.17 12.497s-12.497 18.854-12.497 30.17zM213.333 234.667c-11.316 0-22.168-4.497-30.17-12.497s-12.497-18.854-12.497-30.17c0-11.315 4.495-22.17 12.497-30.17s18.854-12.497 30.17-12.497h597.333c11.315 0 22.17 4.497 30.17 12.497s12.497 18.854 12.497 30.17c0 11.315-4.497 22.17-12.497 30.17s-18.854 12.497-30.17 12.497h-597.333z" />
<glyph unicode="&#xe902;" glyph-name="close" d="M512 388.267l-209.065-209.067c-7.822-7.821-17.778-11.733-29.867-11.733s-22.045 3.913-29.867 11.733c-7.822 7.821-11.733 17.779-11.733 29.867s3.911 22.046 11.733 29.867l209.065 209.067-209.065 209.067c-7.822 7.823-11.733 17.778-11.733 29.867s3.911 22.045 11.733 29.867c7.822 7.823 17.778 11.733 29.867 11.733s22.045-3.911 29.867-11.733l209.065-209.067 209.067 209.067c7.825 7.823 17.779 11.733 29.867 11.733 12.092 0 22.046-3.911 29.867-11.733 7.825-7.822 11.733-17.777 11.733-29.867s-3.908-22.044-11.733-29.867l-209.067-209.067 209.067-209.067c7.825-7.821 11.733-17.779 11.733-29.867s-3.908-22.046-11.733-29.867c-7.821-7.821-17.775-11.733-29.867-11.733-12.087 0-22.042 3.913-29.867 11.733l-209.067 209.067z" />
<glyph unicode="&#xe903;" glyph-name="search" d="M407 310.188c-68.212 0-126.025 23.695-173.442 71.080-47.388 47.36-71.082 105.161-71.082 173.4 0 68.237 23.694 126.050 71.082 173.439s105.202 71.069 173.442 71.040c68.235-0.029 126.036-23.723 173.396-71.083s71.055-105.159 71.084-173.396c0-29.641-5.248-58.328-15.744-86.060s-24.294-51.456-41.388-71.168l252.116-252.032c3.983-3.983 6.115-8.891 6.4-14.72 0.256-5.775-1.876-10.939-6.4-15.488-4.549-4.549-9.585-6.828-15.104-6.828s-10.551 2.278-15.104 6.828l-252.072 252.076c-21.336-18.176-45.868-32.241-73.6-42.2-27.736-9.955-55.611-14.932-83.628-14.932zM406.956 352.812c56.605 0 104.404 19.482 143.404 58.452 38.967 38.971 58.452 86.769 58.452 143.404 0 56.632-19.471 104.418-58.412 143.359s-86.725 58.425-143.36 58.453c-56.632 0-104.433-19.485-143.402-58.453s-58.467-86.755-58.496-143.359c-0.028-56.605 19.456-104.393 58.454-143.36 38.997-38.971 86.784-58.456 143.36-58.456z" />
<glyph unicode="&#xe904;" glyph-name="timer" d="M383.999 896c0-16.974 6.743-33.253 18.745-45.255s28.283-18.745 45.256-18.745v-4.48c-99.743-14.383-191.724-61.974-261.080-135.084s-112.038-167.47-121.148-267.83c-9.11-100.361 15.884-200.862 70.942-285.269 55.058-84.403 136.966-147.776 232.489-179.883s199.078-31.070 293.939 2.94c94.861 34.014 175.484 99.017 228.843 184.503 53.359 85.491 76.335 186.47 65.22 286.63-11.119 100.16-55.68 193.645-126.485 265.353l51.2 51.2c4.715 4.394 8.499 9.693 11.123 15.581 2.62 5.888 4.032 12.244 4.147 18.689 0.111 6.445-1.075 12.847-3.486 18.824-2.415 5.977-6.007 11.406-10.569 15.964-4.557 4.558-9.984 8.151-15.962 10.565s-12.378 3.6-18.825 3.486c-6.447-0.114-12.8-1.524-18.688-4.148s-11.187-6.406-15.582-11.122l-58.112-58.112c-54.383 35.33-115.785 58.433-179.968 67.712v4.48c16.973 0 33.25 6.743 45.252 18.745s18.748 28.281 18.748 45.255c0 16.974-6.746 33.253-18.748 45.255s-28.279 18.745-45.252 18.745h-128c-16.973 0-33.253-6.743-45.256-18.745s-18.745-28.281-18.745-45.255zM864 384c0-93.355-37.086-182.891-103.1-248.9-66.014-66.014-155.546-103.1-248.9-103.1-93.357 0-182.889 37.086-248.902 103.1-66.013 66.010-103.098 155.546-103.098 248.9s37.086 182.889 103.098 248.902c66.013 66.013 155.546 103.098 248.902 103.098s182.886-37.085 248.9-103.098 103.1-155.547 103.1-248.902zM560 592c0 12.73-5.056 24.94-14.059 33.941s-21.21 14.059-33.941 14.059c-12.732 0-24.939-5.057-33.941-14.059s-14.059-21.211-14.059-33.941v-227.84l158.336-158.336c4.395-4.715 9.694-8.499 15.582-11.123s12.241-4.032 18.688-4.147c6.447-0.115 12.847 1.071 18.825 3.486s11.405 6.007 15.962 10.564c4.561 4.561 8.154 9.988 10.569 15.966 2.411 5.978 3.597 12.378 3.486 18.825-0.115 6.443-1.527 12.8-4.147 18.688-2.624 5.888-6.409 11.187-11.123 15.582l-130.176 130.24v188.096z" />
<glyph unicode="&#xe905;" glyph-name="mini-logo" horiz-adv-x="761" d="M354.063-56.598l-53.166 0.322-36.766 10.328-37.253 10.815-77.988 35.793-19.679 12.148-59.28 44.541-30.936 39.318-24.822 49.604-14.172 53.449 0.324 110.544 16.197 72.521 24.295 68.634 42.517 83.819 48.591 71.55 44.784 54.137 26.442 30.288 0.324 84.103 11.622 48.59 24.295 46.404 53.571 54.219 45.756 22.878 41.585 12.593h40.25l20.651-8.098 55.11-54.786 12.148-24.295v-36.443l-12.148-41.221-29.964-59.321-86.046-142.776-40.492-70.578c9.016-13.713 19.328-28.209 30.937-43.488l17.371-22.878 75.437-77.988h10.002l7.734 28.344 11.257 49.32 8.908 80.012-5.466 69.606 8.382 5.142 33.811-27.697 11.621-35.471 15.468-73.128 7.735-109.613-1.62-64.787 84.75-42.557 67.378-21.136 9.678-8.099 24.295-12.148 3.199-10.609-48.59 3.846-61.224 20.652c-53.045 25.996-81.389 39.953-85.034 41.869l-4.819-28.993-21.865-91.552-26.725-63.816-31.259-52.639-37.091-44.542-38.994-28.668-51.021-18.061zM23.202 250.537l7.734 4.495 5.143 64.463 11.297 59.321-2.915 2.875-16.197-70.902-5.062-60.252zM87.342 207.817l5.79 78.313 19.355 85.438 23.527 68.634 29.639 63.816-3.563 3.523-46.080-94.266-22.231-68.836-12.148-58.349v-64.787l5.709-13.485zM117.954 173.683l5.304 102.648 15.467 79.608c8.369 24.052 16.467 48.212 24.296 72.481l33.851 72.522 45.431 76.692v5.183h-6.721l-42.557-65.436-45.108-88.637-23.527-68.634-16.197-79.931 4.049-87.665 5.71-18.829zM146.298 241.993l7.086 15.144 11.621 65.112 13.201 41.909 12.148 41.221 24.498 57.053 45.108 87.341-7.126 7.248-2.592-2.915-27.048-46.080-23.202-46.405-27.738-70.253-21.258-85.034-4.697-64.342zM206.267 396.188l9.030 30.976 53.166 103.416v4.049l-14.172-18.059-29.033-57.701-25.428-60.738v-2.268l6.438 0.325zM210.762 215.39l8.098 11.621v20.934l22.231 105.28 31.259 90.54 15.468 30.329c-1.292 1.050-2.472 2.23-3.523 3.523l-30.288-63.816-20.652-57.053-18.018-75.073-4.576-66.285zM237.851 775.842l4.495 4.859-4.049 9.961-0.446-14.82zM241.9 790.985l23.648 49.32 35.148 44.784 41.22 29.64h-8.098l-29.317-19.963-21.582-20.246-30.085-44.217-10.973-30.613 0.040-8.706zM278.019 87.799l37.699 23.85 50.493 50.25 38.063 57.378 23.527 41.909 26.401 61.224 5.142 19.315-47.983 37.415-93.74 90.864-2.875-3.24-15.143-30.612-30.937-91.189-15.832-72.359-4.049-87.666 7.734-53.166 6.155-21.906 6.762-21.907 8.584-0.162zM257.489 794.549l7.735 20.934h5.79l8.706 19.032 9.677 12.552 38.023 38.994 26.644 20.934-34.175-17.371-42.759-42.557-20.246-42.841 0.607-9.677zM284.255 769.727l121.477 110.868 8.098 15.144c-1.050 1.292-2.23 2.472-3.523 3.523l-42.881-15.792-39.641-29.964-25.794-32.394-17.411-34.256-5.183-17.087 4.859-0.041zM283.607 638.573l10.933 11.257 40.492 50.291 97.181 115.038 26.118 40.492 4.495 22.554c-9.678-14.375-19.234-28.911-28.669-43.489l-19.031-28.709-131.519-157.15v-10.285zM296.159 609.54l4.536 0.648c49.076 65.301 98.166 130.506 147.27 195.618l22.23 39.318v13.888l-33.851-54.502-62.844-82.442-54.138-68.311-28.021-39.318 4.819-4.9zM436.019 849.659l19.679 31.26-5.466 4.819c-3.063-7.58-6.51-15-10.326-22.23l-6.762-13.849h2.875zM466.956 192.836l13.888 22.878 23.527 62.196 5.142 32.879-6.115-5.466c-24.484-72.616-36.726-109.572-36.726-110.867h0.284v-1.62zM469.547 159.673l8.706 5.142 25.146 54.462 10.002 34.823c6.64 23.405 9.961 36.51 9.961 39.318h-0.649v4.049h-7.41v-10.973l-33.487-97.626-12.269-29.195zM481.493 792.605v7.41h-7.411v-7.41h7.411zM484.368 280.177l4.049 4.049 8.098 29.964-6.439-7.086-2.591-13.525-3.118-13.403zM508.217 350.755v11.621l-7.41-4.738v-7.086l7.41 0.203zM508.865 363.996l4.049 9.637-4.049 9.354v-18.991zM510.808 337.231l9.030 8.098 7.411 45.109v13.848l-6.439-3.847-4.535-36.726-5.467-26.482zM512.752 390.72l3.847 9.354-3.847 9.677v-19.032zM531.743 341.078l4.049 9.354-3.563 13.565-0.487-22.918zM542.392 246.649l4.819 4.536-3.846 10.001-0.972-14.537z" />
<glyph unicode="&#xe906;" d="M512 953.877c279.383 0 505.877-226.494 505.877-505.877s-226.494-505.877-505.877-505.877c-279.383 0-505.877 226.494-505.877 505.877s226.494 505.877 505.877 505.877zM624.841 670.291c-18.156-0.277-36.782-3.499-55.301-9.963l-7.915-2.944-0.341-0.171c-19.394-9.857-35.95-23.191-49.689-39.897-54.426 62.341-156.706 72.859-225.043 11.265h-0.043l-0.213-0.213c-54.042-56.474-53.53-146.892-19.415-219.197l0.085-0.213c40.643-75.249 120.522-143.713 194.064-199.654l0.085-0.043c3.158-2.304 6.678-5.227 10.561-8.385 3.798-3.136 7.915-6.529 12.161-9.707 8.363-6.294 17.815-12.31 27.096-14.081l0.576-0.107 0.576 0.043c3.115 0.277 6.849 1.664 10.71 3.478 3.968 1.899 8.513 4.502 13.441 7.595 9.878 6.209 21.527 14.615 33.496 23.831 23.917 18.391 49.412 40.195 65.264 54.938 34.35 29.229 68.038 62.789 96.264 101.747l-0.043 0.043c43.033 57.818 63.664 134.731 39.15 210.535l-4.075-1.28 4.075 1.323-0.213 0.469c-26.712 57.754-83.1 91.592-145.335 90.61z" />
<glyph unicode="&#xe907;" d="M512 960c141.366 0 269.377-57.306 362.036-149.964s149.964-220.669 149.964-362.036c0-141.366-57.306-269.377-149.964-362.036s-220.669-149.964-362.036-149.964c-141.366 0-269.377 57.306-362.036 149.964s-149.964 220.669-149.964 362.036c0 141.366 57.306 269.377 149.964 362.036s220.669 149.964 362.036 149.964zM865.395 801.395c-90.418 90.418-215.378 146.359-353.395 146.359s-262.977-55.941-353.395-146.359c-90.418-90.418-146.359-215.378-146.359-353.395s55.941-262.977 146.359-353.395c90.418-90.418 215.378-146.359 353.395-146.359s262.977 55.941 353.395 146.359c90.418 90.418 146.359 215.378 146.359 353.395s-55.941 262.977-146.359 353.395zM624.948 664.21c-8.833-0.128-17.836-1.003-26.818-2.624-8.811-1.579-17.708-3.926-26.584-6.998l-7.467-2.774c-9.323-4.736-17.964-10.326-25.901-16.684-7.979-6.401-15.319-13.654-21.89-21.655l-4.523-5.526-6.273 7.062c-26.029 28.866-63.003 45.764-101.576 48.324-38.595 2.56-78.855-9.195-111.369-37.571l-2.112-1.856c-24.514-25.773-37.315-59.013-40.43-94.237-3.435-39.235 4.992-80.988 22.402-117.876 20.012-37.059 49.753-72.497 83.506-105.523 33.816-33.091 71.707-63.856 108.041-91.506 7.19-4.992 16.62-13.121 23.533-18.647 4.011-3.008 8.278-5.974 12.481-8.278 3.947-2.176 7.979-3.883 11.884-4.651l3.35 0.811 4.992 2.070 5.952 3.094 6.827 4.139c4.523 2.838 9.622 6.273 15.063 10.156l17.985 13.356c11.329 8.683 22.935 18.114 33.603 27.096 11.82 9.942 22.807 19.671 31.213 27.48l0.213 0.192c17.047 14.508 33.944 30.083 49.988 46.788 14.615 15.191 28.589 31.427 41.518 48.772l3.776 5.206c21.932 29.464 37.912 64.027 44.74 100.787 6.23 33.517 4.864 68.934-6.443 104.051-12.737 27.522-32.493 49.412-56.431 64.325-24.365 15.191-53.124 23.213-83.271 22.743zM595.975 673.619c9.643 1.728 19.287 2.667 28.781 2.816 32.557 0.512 63.6-8.171 89.927-24.578 24.621-15.361 45.166-37.507 58.97-65.221l0.683 0.235 1.728-5.334 2.688-5.995-0.747-0.235c10.369-35.288 11.35-70.747 5.099-104.35-6.785-36.504-22.125-70.897-43.182-100.659l-3.67-5.184c-14.273-19.692-29.954-38.041-46.383-55.173-16.428-17.111-33.603-32.963-50.863-47.641-8.257-7.659-19.287-17.409-31.512-27.693-10.966-9.217-22.743-18.775-34.008-27.437l-18.391-13.633c-5.355-3.819-10.604-7.361-15.575-10.497l-7.318-4.416-6.806-3.563-6.273-2.582c-2.283-0.768-4.523-1.323-6.55-1.472l-2.795 0.171c-5.334 1.003-10.625 3.222-15.703 6.017-4.907 2.688-9.622 5.952-13.953 9.217-6.891 5.504-15.617 13.014-22.807 18.156-36.974 28.098-75.59 59.418-109.982 93.085-34.627 33.901-65.179 70.342-85.788 108.532l-0.213 0.491c-18.327 38.809-27.181 82.802-23.533 124.149 3.414 37.976 17.324 73.905 44.078 101.854l2.091 2.112 0.491 0.192c35.139 30.68 78.599 43.417 120.245 40.643 40.131-2.688 78.727-19.756 106.74-49.028 5.91 6.593 12.289 12.652 19.095 18.114 8.577 6.87 17.943 12.929 28.013 18.050 2.646 1.323 6.059 2.347 8.875 3.392 9.579 3.35 19.095 5.846 28.546 7.531z" />
<glyph unicode="&#xe908;" glyph-name="shopping-go" horiz-adv-x="1072" d="M433.843 95.51c44.044 0 79.754-35.695 79.754-79.725 0-44.044-35.724-79.768-79.754-79.768-44.044 0.014-79.739 35.739-79.739 79.768 0.014 44.030 35.71 79.725 79.739 79.725zM867.671 95.51c44.044 0 79.768-35.695 79.768-79.725 0-44.044-35.739-79.768-79.768-79.768-44.044 0.014-79.725 35.739-79.725 79.768s35.71 79.725 79.725 79.725zM17.059 889.851c-17.594 11.72-22.34 35.507-10.62 53.102s35.507 22.34 53.102 10.62l229.683-153.112c9.376-6.251 15.106-15.931 16.64-26.261l120.166-528.76h451.394l37.533 127.589h-366.257c-21.139 0-38.285 17.146-38.285 38.285s17.146 38.285 38.285 38.285h388.771l45.042 153.112h-433.814c-21.139 0-38.285 17.146-38.285 38.285s17.146 38.285 38.285 38.285h484.875c3.559-0.101 7.177-0.593 10.765-1.649 20.228-5.932 31.803-27.173 25.871-47.401l-126.808-431.122c-3.704-17.262-19.056-30.226-37.432-30.226h-510.384c-17.479 0.101-33.265 12.154-37.244 29.908l-124.174 546.326-217.109 144.735z" />
<glyph unicode="&#xe909;" glyph-name="lock" d="M795.998 469.312v156.032c0 156.608-127.36 284-283.998 284-156.64 0-284-127.36-284-284v-156.032h-66.656v-482.658h701.312v482.658h-66.658zM340 625.344c0 94.848 77.12 172 172 172 94.878 0 171.998-77.12 171.998-172v-156.032h-343.998v156.032zM584.704 97.408h-145.442l39.104 117.342c-12.685 6.234-23.377 15.889-30.869 27.878-7.492 11.985-11.486 25.826-11.529 39.962 0 20.16 8.009 39.488 22.259 53.743 14.255 14.251 33.583 22.259 53.739 22.259 20.16 0 39.488-8.009 53.743-22.259 14.251-14.255 22.259-33.583 22.259-53.743 0-29.824-17.344-55.36-42.368-67.84l39.104-117.342z" />
<glyph unicode="&#xe90a;" glyph-name="activities" d="M752 448c31.517 0 62.726-6.208 91.843-18.269 29.12-12.061 55.578-29.741 77.862-52.026s39.965-48.742 52.026-77.862c12.061-29.117 18.269-60.326 18.269-91.843s-6.208-62.726-18.269-91.843c-12.061-29.12-29.741-55.578-52.026-77.862s-48.742-39.965-77.862-52.026c-29.117-12.061-60.326-18.269-91.843-18.269-63.651 0-124.698 25.286-169.706 70.294s-70.294 106.054-70.294 169.706c0 63.651 25.286 124.698 70.294 169.706s106.054 70.294 169.706 70.294zM760 384c-6.365 0-12.47-2.528-16.97-7.030-4.502-4.499-7.030-10.605-7.030-16.97v-120h-120c-6.365 0-12.47-2.528-16.97-7.030-4.502-4.499-7.030-10.605-7.030-16.97s2.528-12.47 7.030-16.97c4.499-4.502 10.605-7.030 16.97-7.030h120v-120c0-6.365 2.528-12.47 7.030-16.97 4.499-4.502 10.605-7.030 16.97-7.030s12.47 2.528 16.97 7.030c4.502 4.499 7.030 10.605 7.030 16.97v120h120c6.365 0 12.47 2.528 16.97 7.030 4.502 4.499 7.030 10.605 7.030 16.97s-2.528 12.47-7.030 16.97c-4.499 4.502-10.605 7.030-16.97 7.030h-120v120c0 6.365-2.528 12.47-7.030 16.97-4.499 4.502-10.605 7.030-16.97 7.030zM816 640c38.192 0 74.819-15.171 101.824-42.176s42.176-63.632 42.176-101.824v-88.864c-18.848 19.69-40.397 36.605-64 50.24v38.624c0 21.216-8.429 41.565-23.43 56.57-15.005 15.002-35.354 23.43-56.57 23.43h-608c-21.217 0-41.566-8.429-56.569-23.43-15.003-15.005-23.431-35.354-23.431-56.57v-320c0-21.216 8.428-41.565 23.431-56.57 15.003-15.002 35.351-23.43 56.569-23.43h278.592c9.699-22.864 22.317-44.374 37.536-64h-316.128c-38.191 0-74.818 15.171-101.823 42.176s-42.177 63.632-42.177 101.824v320c0 38.192 15.172 74.819 42.177 101.824s63.632 42.176 101.823 42.176h608zM416 320c8.486 0 16.627-3.373 22.627-9.373s9.373-14.141 9.373-22.627c0-8.486-3.373-16.627-9.373-22.627s-14.141-9.373-22.627-9.373h-192c-8.487 0-16.626 3.373-22.628 9.373s-9.372 14.141-9.372 22.627c0 8.486 3.372 16.627 9.372 22.627s14.14 9.373 22.628 9.373h192zM512 480c8.486 0 16.627-3.373 22.627-9.373s9.373-14.141 9.373-22.627c0-8.486-3.373-16.627-9.373-22.627s-14.141-9.373-22.627-9.373h-288c-8.487 0-16.626 3.373-22.628 9.373s-9.372 14.141-9.372 22.627c0 8.486 3.372 16.627 9.372 22.627s14.14 9.373 22.628 9.373h288zM880 864c21.216 0 41.565-8.428 56.57-23.431 15.002-15.003 23.43-35.351 23.43-56.569s-8.429-41.566-23.43-56.569c-15.005-15.003-35.354-23.431-56.57-23.431h-736c-21.217 0-41.566 8.428-56.569 23.431s-23.431 35.351-23.431 56.569c0 21.217 8.428 41.566 23.431 56.569s35.351 23.431 56.569 23.431h736z" />
<glyph unicode="&#xe90b;" glyph-name="unlock" d="M795.998 469.312v156.032c0 156.608-127.36 284-283.998 284-156.64 0-284-127.36-284-284v-12h112v12c0 94.848 77.12 172 172 172 94.878 0 171.998-77.12 171.998-172v-156.032h-522.654v-482.658h701.312v482.658h-66.658zM584.704 97.408h-145.442l39.104 117.342c-12.685 6.234-23.377 15.889-30.869 27.878-7.492 11.985-11.486 25.826-11.529 39.962 0 20.16 8.009 39.488 22.259 53.743 14.255 14.251 33.583 22.259 53.739 22.259 20.16 0 39.488-8.009 53.743-22.259 14.251-14.255 22.259-33.583 22.259-53.743 0-29.824-17.344-55.36-42.368-67.84l39.104-117.342z" />
<glyph unicode="&#xe90c;" glyph-name="arrow-down" horiz-adv-x="256" d="M2.858 107.908c-4.889 6.704-3.371 16.113 3.371 21.002 6.704 4.889 16.113 3.371 21.002-3.371l93.232-128.199v947.584c0 8.297 6.741 15.076 15.076 15.076 8.297 0 15.076-6.741 15.076-15.076v-942.287l77.712 122.124c4.445 7.001 13.705 9.038 20.706 4.593s9.038-13.705 4.593-20.706l-104.641-164.462c-2.482-4.852-7.556-8.186-13.409-8.186-5.297 0-9.927 2.741-12.631 6.853l-120.013 165.018z" />
<glyph unicode="&#xe90d;" glyph-name="arrow-right" horiz-adv-x="4097" d="M3409.543-52.491c-26.839-19.527-64.467-13.464-83.995 13.375s-13.464 64.467 13.375 83.995l512.974 373.072h-3791.621c-33.17 0-60.276 27.107-60.276 60.276s27.107 60.276 60.276 60.276h3770.31l-488.542 310.834c-27.909 17.744-36.112 54.926-18.368 82.836s54.926 36.112 82.836 18.368l657.78-418.547c19.617-9.987 33.081-30.406 33.081-53.767 0-21.4-11.146-40.125-28.087-50.825l-659.653-479.804z" />
<glyph unicode="&#xe90e;" glyph-name="add" d="M810.667 832h-597.333c-22.632 0-44.337-8.99-60.34-24.994s-24.994-37.708-24.994-60.34v-597.333c0-22.63 8.99-44.335 24.994-60.339s37.708-24.994 60.34-24.994h597.333c46.933 0 85.333 38.4 85.333 85.333v597.333c0 46.933-38.4 85.333-85.333 85.333zM682.667 405.333h-128v-128c0-23.467-19.2-42.667-42.667-42.667s-42.667 19.2-42.667 42.667v128h-128c-23.467 0-42.667 19.2-42.667 42.667s19.2 42.667 42.667 42.667h128v128c0 23.467 19.2 42.667 42.667 42.667s42.667-19.2 42.667-42.667v-128h128c23.467 0 42.667-19.2 42.667-42.667s-19.2-42.667-42.667-42.667z" />
<glyph unicode="&#xe90f;" glyph-name="bookmark-heart" d="M512 349.866c36.266 33.424 65.606 60.973 88.019 82.646 22.416 21.674 39.651 40.349 51.712 56.022 12.061 15.67 20.24 29.354 24.534 41.043 4.294 11.693 6.429 24.32 6.4 37.888 0 25.6-9.245 47.645-27.734 66.134s-40.531 27.733-66.131 27.733c-14.934 0-29.341-3.029-43.222-9.088s-25.075-14.409-33.578-25.045c-8.534 10.666-19.558 19.015-33.069 25.045s-28.090 9.060-43.731 9.088c-25.6 0-47.645-9.244-66.134-27.733s-27.734-40.534-27.734-66.134c0-13.51 1.949-25.955 5.846-37.331 3.898-11.379 11.904-24.89 24.022-40.534 12.115-15.645 29.184-34.317 51.2-56.022 22.016-21.702 51.882-49.606 89.6-83.712zM213.332 64v768h597.333v-768l-298.666 128-298.668-128z" />
<glyph unicode="&#xe910;" glyph-name="folder" d="M102.4 678.398c0 33.948 13.486 66.505 37.491 90.51s56.562 37.49 90.509 37.49h127.078c23.757 0 46.592-9.421 63.386-26.266l65.536-65.536-105.472-105.47c-2.384-2.394-5.216-4.288-8.336-5.581s-6.464-1.952-9.84-1.946h-260.352v76.798zM102.4 550.4v-332.8c0-33.949 13.486-66.506 37.491-90.512 24.004-24.003 56.562-37.488 90.509-37.488h337.152c3.379 9.523 8.602 18.227 15.206 25.6-12.595 14.080-19.558 32.307-19.558 51.2 0 19.661 7.373 37.632 19.558 51.2-9.885 11.050-16.358 24.723-18.64 39.373-2.285 14.65-0.278 29.645 5.776 43.178 6.051 13.536 15.891 25.027 28.333 33.091 12.438 8.064 26.947 12.355 41.773 12.358h281.6v230.4c0 33.946-13.485 66.503-37.491 90.508-24.003 24.004-56.56 37.49-90.509 37.49h-245.402l-131.072-131.070c-7.136-7.149-15.613-12.816-24.944-16.682-9.328-3.866-19.331-5.853-29.43-5.846h-260.352zM640 294.4c-6.79 0-13.299-2.698-18.102-7.501-4.8-4.8-7.498-11.312-7.498-18.099 0-6.79 2.698-13.302 7.498-18.102 4.803-4.803 11.312-7.498 18.102-7.498h307.2c6.79 0 13.302 2.694 18.102 7.498 4.8 4.8 7.498 11.312 7.498 18.102 0 6.787-2.698 13.299-7.498 18.099-4.8 4.803-11.312 7.501-18.102 7.501h-307.2zM640 192c-6.79 0-13.299-2.698-18.102-7.501-4.8-4.8-7.498-11.312-7.498-18.099 0-6.79 2.698-13.302 7.498-18.102 4.803-4.803 11.312-7.498 18.102-7.498h307.2c6.79 0 13.302 2.694 18.102 7.498 4.8 4.8 7.498 11.312 7.498 18.102 0 6.787-2.698 13.299-7.498 18.099-4.8 4.803-11.312 7.501-18.102 7.501h-307.2zM614.4 64c0 6.787 2.698 13.299 7.498 18.099 4.803 4.803 11.312 7.501 18.102 7.501h307.2c6.79 0 13.302-2.698 18.102-7.501 4.8-4.8 7.498-11.312 7.498-18.099 0-6.79-2.698-13.302-7.498-18.102-4.8-4.803-11.312-7.498-18.102-7.498h-307.2c-6.79 0-13.299 2.694-18.102 7.498-4.8 4.8-7.498 11.312-7.498 18.102z" />
<glyph unicode="&#xe911;" glyph-name="todo-list" d="M379.734 573.866l-157.868-155.734-89.6 87.469-46.933-46.934 136.533-136.534 204.799 204.8-46.931 46.934zM379.734 851.199l-157.868-155.733-89.6 87.467-46.933-46.933 136.533-136.534 204.799 204.8-46.931 46.933zM379.734 296.531l-157.868-155.731-89.6 87.466-46.933-46.934 136.533-136.531 204.799 204.8-46.931 46.931zM512 490.666h426.666v-85.331h-426.666v85.331zM512 768h426.666v-85.333h-426.666v85.333zM512 213.334h426.666v-85.334h-426.666v85.334z" />
<glyph unicode="&#xe912;" glyph-name="youtube" d="M406.272 296.403v287.702l276.65-144.342-276.65-143.36zM1013.76 633.984c0 0-10.026 70.569-40.704 101.631-38.954 40.789-82.602 40.96-102.614 43.349-143.274 10.368-358.227 10.368-358.227 10.368h-0.429c0 0-214.954 0-358.228-10.368-20.053-2.347-63.659-2.56-102.656-43.349-30.677-31.061-40.661-101.631-40.661-101.631s-10.24-82.902-10.24-165.718v-77.738c0-82.861 10.24-165.718 10.24-165.718s9.984-70.528 40.661-101.632c38.997-40.79 90.155-39.51 112.939-43.776 81.92-7.85 348.16-10.282 348.16-10.282s215.168 0.298 358.442 10.666c20.054 2.39 63.661 2.602 102.614 43.392 30.72 31.104 40.704 101.632 40.704 101.632s10.24 82.858 10.24 165.76v77.654c0 82.858-10.24 165.76-10.24 165.76z" />
<glyph unicode="&#xe913;" glyph-name="pdf" d="M32.513-29.867c-55.040 56.747 4.523 134.827 165.973 217.6l101.547 52.053 39.595 89.173c21.76 49.067 54.187 129.28 72.107 178.347l32.639 88.748-22.484 65.707c-27.648 80.64-37.504 202.24-19.968 246.187 23.765 59.307 101.546 52.907 132.266-10.325 24.064-49.493 21.589-139.093-6.912-252.587l-23.381-92.587 20.608-36.097c11.349-19.84 44.373-66.987 73.387-104.533l54.613-70.4 68.267 9.173c216.32 29.099 290.56-20.395 290.56-91.307 0-89.6-169.813-96.853-312.32 6.4-32.085 23.253-54.187 46.507-54.187 46.507s-89.173-18.773-133.547-31.019c-45.227-12.629-68.267-20.523-134.399-43.52 0 0-23.339-34.987-38.528-60.587-56.747-94.72-122.453-172.8-169.813-201.387-52.907-31.957-108.373-34.133-136.107-5.333l0.085-0.213zM118.7 1.963c30.933 19.712 93.44 96 136.96 166.827l17.536 28.672-79.787-41.429c-123.307-64-179.627-124.16-150.613-160.853 16.469-20.48 36.181-18.773 75.947 6.528l-0.043 0.256zM920.832 234.069c30.251 21.845 25.856 65.707-8.32 83.627-26.624 13.824-48.213 16.64-117.333 15.616-42.496-2.987-110.933-11.819-122.453-14.507 0 0 37.504-26.752 54.187-36.608 22.187-13.056 75.947-37.333 115.2-49.92 38.827-12.245 61.44-10.965 78.080 1.579l0.64 0.213zM598.699 372.309c-18.304 19.84-49.493 61.44-69.12 92.16-25.813 34.901-38.741 59.733-38.741 59.733s-18.859-62.72-34.347-100.267l-48.212-123.307-13.995-27.947c0 0 74.239 25.173 112.212 35.371 40.107 10.795 121.6 27.307 121.6 27.307l-29.269 36.992-0.128-0.043zM495.019 803.244c4.651 40.405 6.656 80.64-5.931 101.12-34.901 39.381-77.226 6.528-69.972-87.040 2.389-31.488 9.983-85.333 20.138-118.613l18.432-60.16 12.971 45.227c7.125 25.003 18.091 78.507 24.32 119.467h0.043z" />
<glyph unicode="&#xe914;" glyph-name="level" d="M512 832c-84.384-0.001-166.877-25.025-237.039-71.908-70.164-46.883-124.85-113.519-157.143-191.481s-40.742-163.75-24.28-246.515c16.463-82.765 57.098-158.787 116.767-218.458l30.165-30.166 103.296 103.296-60.331 60.33-41.088-41.043c-37.517 48.349-61.347 105.894-68.992 166.611h82.645v85.334h-82.645c7.645 60.717 31.475 118.266 68.992 166.614l47.488-47.446 60.331 60.33-47.445 47.489c48.348 37.518 105.893 61.347 166.613 68.992v-61.312h85.334v61.312c60.717-7.645 118.262-31.474 166.611-68.992l-47.443-47.489 60.33-60.33 47.488 47.446c37.517-48.349 61.347-105.898 68.992-166.614h-82.646v-85.334h82.646c-7.651-60.736-31.494-118.298-69.034-166.656l-41.046 41.088-60.33-60.33 103.296-103.296 30.163 30.166c59.648 59.677 100.266 135.699 116.717 218.458s7.997 168.534-24.291 246.49c-32.291 77.953-86.966 144.584-157.117 191.47s-152.627 71.923-237.005 71.944zM650.246 367.472c9.789-1.226 19.84 1.408 27.997 7.334 8.154 5.926 13.76 14.672 15.606 24.352s-0.211 19.52-5.731 27.402c-5.52 7.882-14.064 13.174-23.786 14.739l-157.853 22.573c-4.925 0.79-10.003 0.602-14.938-0.56s-9.629-3.267-13.808-6.202c-4.179-2.931-7.76-6.63-10.534-10.877-2.771-4.246-4.682-8.96-5.616-13.862-0.938-4.902-0.88-9.898 0.17-14.691 1.046-4.794 3.066-9.293 5.933-13.232s6.528-7.242 10.771-9.715c4.243-2.474 8.979-4.067 13.936-4.688l157.853-22.573z" />
<glyph unicode="&#xe915;" glyph-name="key" d="M1002.675 959.999h-128c-2.801 0.034-5.576-0.518-8.146-1.62s-4.884-2.73-6.789-4.78l-406.613-406.614c-68.232 31.216-145.263 37.462-217.632 17.647s-135.475-64.43-178.288-126.048c-42.814-61.619-62.613-136.325-55.937-211.062s39.401-144.748 92.457-197.806c53.057-53.053 123.070-85.78 197.806-92.457s149.44 13.123 211.060 55.936c61.617 42.819 106.233 105.923 126.047 178.289 19.814 72.371 13.573 149.402-17.644 217.636l98.985 98.558 82.345-27.734c7.188-2.592 14.94-3.207 22.446-1.781s14.49 4.841 20.224 9.888c5.519 4.705 9.743 10.74 12.283 17.533s3.302 14.122 2.222 21.293l-17.065 103.254 30.72 31.146 62.29-28.586c7.25-3.22 15.258-4.355 23.117-3.277s15.263 4.324 21.376 9.377c6.118 5.052 10.701 11.709 13.245 19.224 2.54 7.515 2.939 15.589 1.142 23.316l-21.76 77.226 55.040 55.466c2.278 2.093 4.045 4.683 5.151 7.57 1.111 2.887 1.541 5.991 1.249 9.070v128c0 5.658-2.248 11.084-6.246 15.085s-9.426 6.248-15.084 6.248zM298.674 170.665c0-12.657-3.753-25.032-10.786-35.558-7.032-10.522-17.028-18.724-28.722-23.567-11.695-4.849-24.563-6.113-36.978-3.645-12.414 2.473-23.818 8.566-32.769 17.516s-15.046 20.357-17.515 32.768c-2.47 12.416-1.202 25.288 3.642 36.982s13.047 21.688 23.571 28.718c10.525 7.035 22.899 10.788 35.557 10.788 16.974 0 33.252-6.743 45.255-18.744s18.745-28.283 18.745-45.256z" />
<glyph unicode="&#xe916;" glyph-name="delete" d="M810.667 874.667c33.946 0 66.505-13.486 90.509-37.49s37.491-56.562 37.491-90.51v-597.333c0-33.946-13.487-66.505-37.491-90.509s-56.563-37.491-90.509-37.491h-597.333c-33.948 0-66.505 13.487-90.51 37.491s-37.49 56.563-37.49 90.509v597.333c0 33.948 13.486 66.505 37.49 90.51s56.562 37.49 90.51 37.49h597.333zM640 490.667h-256l-4.992-0.299c-10.799-1.284-20.7-6.643-27.68-14.985-6.98-8.337-10.512-19.029-9.874-29.884s5.396-21.060 13.303-28.527c7.908-7.462 18.368-11.627 29.242-11.639h256l4.992 0.299c10.799 1.284 20.698 6.643 27.678 14.985 6.98 8.337 10.513 19.029 9.877 29.884-0.64 10.854-5.397 21.060-13.303 28.527-7.91 7.462-18.368 11.627-29.244 11.639z" />
<glyph unicode="&#xe917;" glyph-name="person" d="M512 864c-229.38 0-416-186.62-416-416s186.62-416 416-416c229.379 0 416 186.621 416 416s-186.621 416-416 416zM411.559 630.36c25.341 26.86 61 41.64 100.441 41.64s74.779-14.88 100.219-41.88c25.781-27.36 38.321-64.121 35.362-103.641-5.922-78.479-66.72-142.479-135.581-142.479s-129.778 64-135.581 142.5c-2.939 39.84 9.581 76.721 35.14 103.86zM512 96c-46.991-0.031-93.508 9.376-136.796 27.658-43.288 18.285-82.463 45.076-115.204 78.783 18.751 26.74 42.643 49.476 70.28 66.877 50.979 32.683 115.501 50.681 181.72 50.681s130.741-17.999 181.661-50.681c27.658-17.394 51.572-40.131 70.339-66.877-32.737-33.713-71.912-60.505-115.2-78.79s-89.808-27.686-136.8-27.651z" />
<glyph unicode="&#xe918;" glyph-name="see-all" d="M128 166.4v563.2c0 27.158 10.789 53.204 29.992 72.408s45.25 29.992 72.408 29.992h563.2c27.157 0 53.205-10.789 72.41-29.992 19.2-19.204 29.99-45.25 29.99-72.408v-563.2c0-27.157-10.79-53.205-29.99-72.41-19.204-19.2-45.252-29.99-72.41-29.99h-563.2c-13.447 0-26.763 2.65-39.187 7.795s-23.712 12.689-33.221 22.195c-19.203 19.204-29.992 45.252-29.992 72.41zM417.835 307.499c-7.772-8.047-12.073-18.825-11.975-30.012s4.584-21.888 12.495-29.798c7.911-7.91 18.612-12.399 29.799-12.497s21.965 4.203 30.012 11.977l170.667 170.667c8 8 12.493 18.85 12.493 30.165s-4.493 22.165-12.493 30.165l-170.667 170.667c-8.047 7.772-18.825 12.073-30.012 11.975s-21.888-4.584-29.799-12.495c-7.911-7.911-12.398-18.612-12.495-29.799s4.203-21.965 11.975-30.012l140.501-140.501-140.501-140.501z" />
<glyph unicode="&#xe919;" glyph-name="edit" horiz-adv-x="1035" d="M582.308 833.359l179.101-179.101 35.163 35.163c6.041 6.041 11.366 12.523 15.828 19.17 4.59 6.867 8.502 14.175 11.66 21.795 3.122 7.547 5.545 15.552 7.179 23.779 1.597 8.153 2.424 16.452 2.424 24.788s-0.826 16.636-2.424 24.678l-0.165 0.918c-1.616 7.932-3.985 15.663-7.014 22.952-3.103 7.528-7.088 14.873-11.752 21.906l-0.514 0.808c-4.333 6.372-9.456 12.523-15.204 18.27-5.986 5.986-12.413 11.311-19.060 15.754-7.051 4.646-14.414 8.63-21.924 11.733-7.547 3.122-15.552 5.545-23.779 7.179-8.153 1.597-16.452 2.424-24.788 2.424s-16.636-0.826-24.678-2.424l-0.918-0.165c-7.932-1.616-15.663-3.985-22.952-7.014-7.602-3.14-14.965-7.088-21.814-11.678-6.812-4.572-13.22-9.86-19.151-15.81l-35.163-35.163zM722.959 615.827l-179.101 179.101-489.489-489.452v-179.119h179.119l489.452 489.489zM815.833 20.335c-8.502 1.744-16.819 4.297-24.807 7.62l-1.432 0.643c-15.883 6.812-30.425 16.544-42.673 28.791l-5.692 6.059-49.54-28.571c-12.945-7.437-29.526-2.956-36.962 9.989s-2.956 29.526 9.989 36.962l49.448 28.516c-4.664 13.826-7.088 28.424-7.088 43.187s2.424 29.324 7.088 43.187l-49.448 28.516c-12.945 7.437-17.425 24.017-9.989 36.962s24.017 17.425 36.962 9.989l49.54-28.571 5.692 6.059c12.615 12.615 27.671 22.585 44.123 29.397 7.969 3.379 16.287 5.912 24.788 7.675v57.16c0 15.002 12.192 27.194 27.194 27.194s27.194-12.192 27.194-27.194v-57.16c8.502-1.744 16.838-4.297 24.825-7.62 16.452-6.849 31.49-16.819 44.105-29.434l5.711-6.078 49.522 28.589c12.945 7.437 29.526 2.956 36.962-9.989s2.956-29.526-9.989-36.962l-49.43-28.534c4.646-13.826 7.069-28.406 7.069-43.169 0-14.745-2.424-29.324-7.069-43.15l49.503-28.553c12.945-7.437 17.425-24.017 9.989-36.962s-24.017-17.425-36.962-9.989l-49.577 28.589-5.711-6.078c-12.247-12.247-26.79-21.997-42.673-28.791l-1.432-0.643c-7.987-3.323-16.324-5.876-24.825-7.62v-57.142c0-15.002-12.192-27.194-27.194-27.194s-27.194 12.192-27.194 27.194v57.142zM811.83 78.12c9.677-4.021 20.327-6.17 31.197-6.17 10.889 0 21.52 2.13 31.215 6.17l1.194 0.459c9.236 3.985 17.848 9.824 25.284 17.26 7.73 7.73 13.735 16.728 17.719 26.368 4.021 9.805 6.17 20.437 6.17 31.325s-2.13 21.52-6.17 31.215l-0.459 1.194c-3.985 9.236-9.842 17.866-17.26 25.284-7.73 7.73-16.728 13.735-26.368 17.719-9.805 4.021-20.437 6.17-31.325 6.17-10.87 0-21.52-2.13-31.197-6.17-9.75-3.985-18.747-9.989-26.478-17.719-7.437-7.437-13.276-16.048-17.26-25.284l-0.459-1.194c-4.021-9.695-6.17-20.327-6.17-31.215s2.13-21.52 6.17-31.215c3.985-9.75 9.989-18.747 17.719-26.478 7.418-7.418 16.048-13.276 25.284-17.26l1.194-0.459zM244.763 71.95h-217.551c-15.002 0-27.194 12.192-27.194 27.194v217.551c0.018 6.941 2.681 13.918 7.969 19.225l571.070 571.052c8.281 8.281 17.536 15.865 27.524 22.53 9.768 6.5 20.308 12.119 31.288 16.673 10.687 4.444 21.74 7.859 32.849 10.117l1.028 0.22c11.586 2.314 23.466 3.489 35.291 3.489s23.705-1.175 35.291-3.489c11.458-2.277 22.86-5.784 33.878-10.338 11.127-4.609 21.612-10.209 31.288-16.654 10.099-6.776 19.317-14.322 27.543-22.548 7.914-7.914 15.204-16.764 21.704-26.331l0.845-1.212c6.427-9.677 12.045-20.161 16.654-31.288 4.444-10.687 7.859-21.74 10.117-32.849l0.22-1.028c2.314-11.586 3.489-23.466 3.489-35.291s-1.175-23.705-3.489-35.291c-2.277-11.458-5.784-22.86-10.338-33.878-4.535-10.999-10.191-21.538-16.746-31.362-6.684-9.97-14.212-19.206-22.438-27.433l-570.611-570.629c-4.958-5.178-11.917-8.41-19.647-8.41z" />
<glyph unicode="&#xe91a;" glyph-name="view" d="M886.187 448c0-15.317-8.277-25.344-24.832-45.483-60.587-73.557-194.219-210.517-349.355-210.517s-288.769 136.96-349.356 210.517c-16.555 20.139-24.832 30.165-24.832 45.483s8.277 25.344 24.832 45.483c60.587 73.557 194.219 210.517 349.356 210.517s288.768-136.96 349.355-210.517c16.555-20.139 24.832-30.165 24.832-45.483zM512 320c33.946 0 66.505 13.487 90.509 37.491s37.491 56.563 37.491 90.509c0 33.946-13.487 66.505-37.491 90.51s-56.563 37.49-90.509 37.49c-33.95 0-66.505-13.486-90.511-37.49s-37.49-56.564-37.49-90.51 13.486-66.505 37.49-90.509c24.006-24.004 56.561-37.491 90.511-37.491z" />
<glyph unicode="&#xe91b;" glyph-name="order" horiz-adv-x="731" d="M178.911 813.691h-105.747v-804.527h585.090v804.527h-105.747l-14.817-47.418c-4.865-15.628-19.295-25.653-34.85-25.653l-274.263-0.074c-17.268 0-31.754 11.979-35.587 28.086l-14.080 45.059zM36.582 886.855h119.458l-8.035 25.709c-5.989 19.24 4.755 39.715 23.995 45.704 3.612 1.124 7.261 1.659 10.855 1.659l365.709 0.074c20.198 0 36.582-16.384 36.582-36.582 0-4.699-0.885-9.196-2.506-13.306l-7.261-23.258h119.458c20.198 0 36.582-16.384 36.582-36.582v-877.691c0-20.198-16.384-36.582-36.582-36.582h-658.254c-20.198 0-36.582 16.384-36.582 36.582v877.691c0 20.198 16.384 36.582 36.582 36.582zM208.711 437.293l120.435-120.435 230.125 230.144 51.712-51.712-255.982-256c-14.264-14.264-37.448-14.264-51.712 0l-146.291 146.291 51.712 51.712zM498.897 886.836h-266.376l22.871-73.127h220.634l22.871 73.127z" />
<glyph unicode="&#xe91c;" glyph-name="profile" d="M805.717 342.656c5.457 9.404 14.293 16.367 24.713 19.473 10.415 3.11 21.628 2.121 31.343-2.756 9.711-4.881 17.199-13.282 20.928-23.497 3.729-10.21 3.418-21.457-0.866-31.45l-2.219-4.437-14.293-24.747c8.529-10.001 15.462-21.252 20.565-33.365l2.816-7.211h28.629c10.876-0.013 21.333-4.177 29.244-11.639 7.906-7.467 12.663-17.673 13.303-28.527 0.636-10.854-2.897-21.547-9.877-29.884-6.98-8.341-16.879-13.7-27.678-14.985l-4.992-0.299h-28.629c-4.177-11.836-10.069-22.989-17.493-33.109l-5.888-7.424 14.293-24.789c5.487-9.429 7.151-20.599 4.655-31.219-2.492-10.62-8.96-19.878-18.074-25.877-9.109-5.999-20.173-8.277-30.916-6.37-10.739 1.903-20.343 7.851-26.833 16.619l-2.731 4.181-14.293 24.747c-12.501-2.304-25.173-2.688-37.547-1.28l-9.259 1.365-14.336-24.832c-5.457-9.404-14.293-16.367-24.713-19.473-10.415-3.11-21.628-2.121-31.343 2.756-9.711 4.881-17.199 13.282-20.928 23.497-3.729 10.21-3.418 21.457 0.866 31.45l2.219 4.437 14.293 24.789c-8.521 9.975-15.454 21.197-20.565 33.28l-2.816 7.253h-28.629c-10.876 0.013-21.333 4.177-29.244 11.639-7.906 7.467-12.663 17.673-13.303 28.527-0.636 10.854 2.897 21.547 9.877 29.884 6.98 8.341 16.879 13.7 27.678 14.985l4.992 0.299h28.672c4.177 11.836 10.069 22.989 17.493 33.109l5.845 7.424-14.293 24.789c-5.487 9.429-7.151 20.599-4.655 31.219 2.492 10.62 8.96 19.878 18.074 25.877 9.109 5.999 20.173 8.277 30.916 6.37 10.739-1.903 20.343-7.851 26.833-16.619l2.731-4.181 14.293-24.747c12.501 2.304 25.173 2.688 37.547 1.28l9.259-1.323 14.336 24.789zM469.333 405.333c19.085 0 37.803-0.994 56.149-2.987 11.255-1.195 21.572-6.81 28.685-15.612s10.441-20.066 9.246-31.322c-1.195-11.255-6.81-21.572-15.612-28.685s-20.066-10.441-31.322-9.246c-15.39 1.677-31.104 2.517-47.147 2.517-86.315 0-163.968-25.173-219.136-58.837-27.605-16.811-48.427-35.072-61.867-52.139-13.824-17.493-17.664-30.72-17.664-38.357 0-5.205 1.579-10.709 10.88-18.176 10.624-8.533 29.099-17.365 57.344-24.832 56.235-14.933 137.045-20.992 230.443-20.992l28.075 0.213c11.315 0.154 22.229-4.194 30.34-12.087 8.107-7.898 12.749-18.688 12.902-30.003s-4.194-22.229-12.087-30.34c-7.898-8.107-18.688-12.749-30.003-12.902l-29.227-0.213c-95.104 0-184.96 5.973-252.288 23.808-33.493 8.875-65.024 21.589-88.917 40.789-25.301 20.309-42.795 48.683-42.795 84.736 0 33.579 15.275 64.981 36.011 91.264 21.077 26.667 50.219 51.2 84.395 72.107 68.395 41.643 161.408 71.296 263.595 71.296zM768 234.667c-11.315 0-22.17-4.497-30.17-12.497s-12.497-18.854-12.497-30.17c0-11.315 4.497-22.17 12.497-30.17s18.854-12.497 30.17-12.497c11.315 0 22.17 4.497 30.17 12.497s12.497 18.854 12.497 30.17c0 11.315-4.497 22.17-12.497 30.17s-18.854 12.497-30.17 12.497zM469.333 874.667c56.58 0 110.844-22.476 150.848-62.484 40.009-40.008 62.485-94.27 62.485-150.849s-22.477-110.842-62.485-150.848c-40.004-40.009-94.268-62.485-150.848-62.485s-110.842 22.477-150.849 62.485c-40.008 40.006-62.484 94.269-62.484 150.848s22.476 110.842 62.484 150.849c40.008 40.008 94.27 62.484 150.849 62.484zM469.333 789.333c-16.811 0-33.455-3.311-48.983-9.743-15.53-6.433-29.64-15.861-41.526-27.747s-21.314-25.996-27.747-41.526c-6.432-15.53-9.743-32.174-9.743-48.983s3.311-33.454 9.743-48.983c6.433-15.53 15.861-29.64 27.747-41.526s25.996-21.314 41.526-27.747c15.529-6.432 32.173-9.743 48.983-9.743 33.946 0 66.505 13.486 90.509 37.49s37.491 56.562 37.491 90.51c0 33.948-13.487 66.505-37.491 90.51s-56.563 37.49-90.509 37.49z" />
<glyph unicode="&#xe91d;" glyph-name="home" horiz-adv-x="1012" d="M910.685 87.787v340.651c0 10.823-1.013 21.11-2.964 30.633-1.989 9.771-5.125 19.619-9.236 29.275-4.13 9.408-9.178 18.471-15.030 26.885l-1.893 2.926c-5.239 7.151-11.301 14.016-18.070 20.422l-322.62 306.443c-4.666 4.436-10.192 7.955-16.139 10.326l-1.511 0.631c-5.258 1.855-11.091 2.83-17.267 2.83-6.769 0-13.137-1.186-18.777-3.404-5.928-2.428-11.454-5.947-16.12-10.383l-322.677-306.443c-7.649-7.247-14.399-15.087-20.097-23.252-5.717-8.509-10.765-17.573-14.819-27.019l-0.956-2.084c-3.671-8.968-6.501-18.089-8.356-27.153-1.95-9.523-2.964-19.81-2.964-30.633v-340.651c0-6.846 1.3-13.423 3.748-19.332l0.727-1.874c2.448-5.335 5.928-10.326 10.249-14.666 4.8-4.78 10.383-8.528 16.349-10.976 6.1-2.448 12.678-3.748 19.523-3.748h708.302c6.846 0 13.423 1.3 19.332 3.748l1.874 0.727c5.335 2.448 10.326 5.928 14.666 10.249 4.78 4.8 8.528 10.383 10.976 16.349 2.448 6.1 3.748 12.678 3.748 19.523zM1011.877 428.439v-340.651c0-19.944-4.035-39.677-11.664-58.072-7.63-18.242-18.72-34.954-32.794-49.047l-0.21-0.21c-13.328-13.309-28.988-23.94-46.102-31.455l-2.945-1.339c-18.395-7.63-38.128-11.664-58.072-11.664h-708.302c-19.944 0-39.677 4.035-58.072 11.664-18.242 7.63-34.954 18.72-49.047 32.794l-0.21 0.21c-13.309 13.328-23.94 28.988-31.455 46.102l-1.339 2.945c-7.63 18.395-11.664 38.128-11.664 58.072v340.651c0 16.578 1.797 33.616 5.335 50.787 3.289 15.947 8.031 31.455 14.112 46.14l1.128 2.868c6.75 15.718 15.106 30.748 24.82 44.706h0.21c9.848 14.131 20.996 27.172 33.214 38.759l322.677 306.443c14.073 13.385 30.499 23.845 48.148 30.901 18.146 7.171 37.23 10.957 56.313 10.957 18.108 0 36.197-3.404 53.33-9.867l3.002-1.090c17.649-7.056 34.075-17.515 48.148-30.901l322.62-306.443c11.129-10.555 21.378-22.334 30.556-35.031l2.868-3.729c9.714-13.959 18.070-28.988 24.82-44.706 6.635-15.68 11.76-32.086 15.24-49.009 3.537-17.171 5.335-34.209 5.335-50.787zM303.555 290.151c0 19.963 4.035 39.696 11.664 58.091l1.339 2.945c7.61 17.324 18.261 33.099 31.455 46.293 13.959 13.959 30.767 25.068 49.257 32.717 18.376 7.706 38.109 11.741 58.072 11.741h101.192c19.963 0 39.696-4.035 58.091-11.664l2.926-1.319c17.343-7.61 33.099-18.261 46.313-31.474 13.959-13.959 25.068-30.786 32.717-49.257 7.706-18.376 11.741-38.109 11.741-58.072v-303.555c0-27.937-22.659-50.596-50.596-50.596h-303.575c-27.937 0-50.596 22.659-50.596 50.596v303.555zM408.495 309.502c-2.448-5.909-3.748-12.486-3.748-19.351v-252.96h202.383v252.96c0 6.865-1.3 13.442-3.748 19.351-2.371 5.947-6.138 11.492-11.071 16.425-4.474 4.474-9.427 7.974-14.609 10.364l-1.817 0.707c-5.909 2.448-12.506 3.748-19.351 3.748h-101.192c-6.846 0-13.442-1.3-19.351-3.748-5.947-2.371-11.492-6.138-16.425-11.071-4.474-4.474-7.974-9.427-10.364-14.609l-0.707-1.817z" />
</font>
</defs>
</svg>
