<svg width="250" height="120" viewBox="0 0 250 120" fill="none" xmlns="http://www.w3.org/2000/svg">
<path d="M29.8543 84.3015L25.3714 84.2747L22.2712 83.4184L19.1301 82.5219L12.5542 79.5536L10.8949 78.5462L5.89643 74.8526L3.28793 71.5922L1.19499 67.4788L0 63.0465L0.0273134 53.8796L1.39302 47.8658L3.44157 42.1743L7.02655 35.2236L11.1237 29.2903L14.8998 24.8009L17.1293 22.2892L17.1567 15.315L18.1365 11.2856L20.1851 7.43758L24.7022 2.94145L28.5603 1.04428L32.0667 0H35.4605L37.2018 0.671565L41.8486 5.2147L42.8729 7.22939V10.2514L41.8486 13.6697L39.322 18.5889L32.0667 30.4286L28.6525 36.2813C29.4127 37.4185 30.2822 38.6206 31.261 39.8876L32.7257 41.7848L39.0864 48.2519H39.9298L40.5819 45.9015L41.5311 41.8116L42.2822 35.1766L41.8213 29.4045L42.528 28.978L45.3789 31.2748L46.3588 34.2162L47.6631 40.2805L48.3152 49.3701L48.1786 54.7426L55.3247 58.2717L61.006 60.0245L61.822 60.696L63.8706 61.7034L64.1403 62.5831L60.0432 62.2641L54.8808 60.5516C50.4081 58.3959 48.0181 57.2386 47.7109 57.0796L47.3046 59.4838L45.4609 67.0759L43.2075 72.3678L40.5716 76.733L37.4442 80.4266L34.1563 82.8039L29.8543 84.3015ZM1.95637 58.8324L2.60849 58.4597L3.04211 53.1141L3.99468 48.1948L3.74886 47.9564L2.38315 53.836L1.95637 58.8324ZM7.36456 62.3749L7.8528 55.8809L9.48481 48.7959L11.4685 43.1044L13.9677 37.8125L13.6673 37.5203L9.78185 45.3373L7.90743 51.0456L6.88315 55.8843V61.2568L7.36456 62.3749ZM9.94574 65.2056L10.393 56.6935L11.6973 50.092C12.4029 48.0975 13.0857 46.094 13.7458 44.0815L16.6001 38.0676L20.4309 31.7079V31.2781H19.8642L16.2758 36.7044L12.4723 44.0546L10.4886 49.7462L9.1229 56.3745L9.46433 63.6442L9.94574 65.2056ZM12.3357 59.5409L12.9332 58.2851L13.9131 52.8857L15.0262 49.4104L16.0504 45.9921L18.1161 41.2609L21.9195 34.0181L21.3186 33.4171L21.1001 33.6588L18.8194 37.48L16.863 41.3281L14.5243 47.1539L12.7318 54.2053L12.3357 59.5409ZM17.3922 46.7543L18.1536 44.1856L22.6365 35.6097V35.2739L21.4415 36.7715L18.9935 41.5564L16.8494 46.5932V46.7812L17.3922 46.7543ZM17.7712 61.747L18.4541 60.7833V59.0473L20.3285 50.317L22.9643 42.8089L24.2686 40.2939C24.1596 40.2068 24.0601 40.1089 23.9715 40.0018L21.4177 45.2937L19.6764 50.0249L18.157 56.2503L17.7712 61.747ZM20.0554 15.2714L20.4343 14.8684L20.0929 14.0424L20.0554 15.2714ZM20.3968 14.0156L22.3907 9.92573L25.3543 6.21197L28.83 3.75405H28.1472L25.6752 5.40945L23.8554 7.08837L21.3186 10.7551L20.3934 13.2936L20.3968 14.0156ZM23.4423 72.3275L26.621 70.3498L30.8786 66.1827L34.088 61.4247L36.0717 57.9493L38.2977 52.8723L38.7314 51.2706L34.6855 48.168L26.7815 40.633L26.539 40.9017L25.2621 43.4402L22.6536 51.002L21.3186 57.0024L20.9772 64.2721L21.6293 68.6809L22.1483 70.4975L22.7185 72.3141L23.4423 72.3275ZM21.7113 13.7201L22.3634 11.9841H22.8516L23.5857 10.4059L24.4017 9.36497L27.6077 6.13139L29.8543 4.39539L26.9727 5.8359L23.3672 9.36497L21.6601 12.9175L21.7113 13.7201ZM23.9681 15.7784L34.2109 6.58469L34.8937 5.32887C34.8052 5.22174 34.7056 5.12385 34.5967 5.03674L30.981 6.34629L27.6384 8.83108L25.4635 11.5173L23.9954 14.3581L23.5584 15.7751L23.9681 15.7784ZM23.9135 26.6544L24.8353 25.7209L28.2496 21.5505L36.4438 12.0109L38.646 8.65311L39.025 6.7828C38.209 7.97483 37.4032 9.18029 36.6077 10.3891L35.003 12.7698L23.9135 25.8015V26.6544ZM24.9719 29.062L25.3543 29.0082C29.4924 23.5932 33.6316 18.186 37.772 12.7866L39.6464 9.52615V8.37441L36.7921 12.894L31.4931 19.7306L26.9283 25.3952L24.5656 28.6557L24.9719 29.062ZM36.7647 9.15007L38.4241 6.55783L37.9632 6.15825C37.7049 6.78684 37.4143 7.40211 37.0925 8.00169L36.5223 9.15007H36.7647ZM39.3732 63.6173L40.5443 61.7202L42.528 56.5625L42.9616 53.836L42.4461 54.2893C40.3816 60.311 39.3493 63.3756 39.3493 63.483H39.3732V63.6173ZM39.5918 66.3674L40.3258 65.9409L42.4461 61.4247L43.2894 58.5369C43.8493 56.5961 44.1293 55.5093 44.1293 55.2765H44.0747V54.9407H43.4499V55.8507L40.6263 63.9464L39.5918 66.3674ZM40.599 13.8812V13.2668H39.9742V13.8812H40.599ZM40.8414 56.3745L41.1828 56.0387L41.8656 53.5539L41.3228 54.1415L41.1043 55.2631L40.8414 56.3745ZM42.8524 50.5218V49.5581L42.2276 49.951V50.5386L42.8524 50.5218ZM42.907 49.4238L43.2484 48.6246L42.907 47.849V49.4238ZM43.0709 51.6433L43.8323 50.9718L44.4571 47.2311V46.0828L43.9142 46.4018L43.5318 49.4473L43.0709 51.6433ZM43.2348 47.2076L43.5591 46.432L43.2348 45.6295V47.2076ZM44.8361 51.3243L45.1775 50.5487L44.877 49.4238L44.8361 51.3243ZM45.734 59.1548L46.1403 58.7787L45.8159 57.9493L45.734 59.1548Z" fill="#231F20"/>
<path d="M83.6019 49.199C82.15 49.199 80.7967 48.966 79.542 48.4999C78.3053 48.016 77.2298 47.3349 76.3157 46.4566C75.4016 45.5783 74.6846 44.5477 74.1648 43.3647C73.6629 42.1817 73.412 40.8822 73.412 39.4662C73.412 38.0501 73.6629 36.7506 74.1648 35.5676C74.6846 34.3846 75.4016 33.354 76.3157 32.4757C77.2477 31.5974 78.3322 30.9253 79.5689 30.4593C80.8057 29.9753 82.159 29.7333 83.6287 29.7333C85.2598 29.7333 86.7296 30.0201 88.0381 30.5937C89.3645 31.1493 90.4758 31.9738 91.372 33.0672L88.5758 35.6483C87.9306 34.9134 87.2136 34.3667 86.4249 34.0082C85.6363 33.6318 84.7759 33.4436 83.8438 33.4436C82.9656 33.4436 82.159 33.587 81.4241 33.8738C80.6892 34.1606 80.0529 34.5728 79.5151 35.1106C78.9774 35.6483 78.5562 36.2846 78.2515 37.0195C77.9647 37.7544 77.8213 38.5699 77.8213 39.4662C77.8213 40.3624 77.9647 41.1779 78.2515 41.9128C78.5562 42.6477 78.9774 43.284 79.5151 43.8217C80.0529 44.3595 80.6892 44.7717 81.4241 45.0585C82.159 45.3453 82.9656 45.4887 83.8438 45.4887C84.7759 45.4887 85.6363 45.3094 86.4249 44.9509C87.2136 44.5745 87.9306 44.0099 88.5758 43.2571L91.372 45.8382C90.4758 46.9316 89.3645 47.765 88.0381 48.3386C86.7296 48.9122 85.2509 49.199 83.6019 49.199ZM102.523 49.199C101.035 49.199 99.6552 48.957 98.3826 48.473C97.1279 47.9891 96.0345 47.308 95.1025 46.4297C94.1883 45.5514 93.4714 44.5208 92.9516 43.3378C92.4497 42.1548 92.1987 40.8642 92.1987 39.4662C92.1987 38.0681 92.4497 36.7775 92.9516 35.5945C93.4714 34.4115 94.1973 33.3809 95.1293 32.5026C96.0614 31.6243 97.1548 30.9432 98.4095 30.4593C99.6642 29.9753 101.026 29.7333 102.496 29.7333C103.984 29.7333 105.346 29.9753 106.583 30.4593C107.838 30.9432 108.922 31.6243 109.836 32.5026C110.768 33.3809 111.494 34.4115 112.014 35.5945C112.534 36.7596 112.794 38.0501 112.794 39.4662C112.794 40.8642 112.534 42.1637 112.014 43.3647C111.494 44.5477 110.768 45.5783 109.836 46.4566C108.922 47.3169 107.838 47.9891 106.583 48.473C105.346 48.957 103.993 49.199 102.523 49.199ZM102.496 45.4887C103.339 45.4887 104.109 45.3453 104.808 45.0585C105.525 44.7717 106.153 44.3595 106.69 43.8217C107.228 43.284 107.64 42.6477 107.927 41.9128C108.232 41.1779 108.384 40.3624 108.384 39.4662C108.384 38.5699 108.232 37.7544 107.927 37.0195C107.64 36.2846 107.228 35.6483 106.69 35.1106C106.171 34.5728 105.552 34.1606 104.835 33.8738C104.118 33.587 103.339 33.4436 102.496 33.4436C101.654 33.4436 100.874 33.587 100.157 33.8738C99.458 34.1606 98.8397 34.5728 98.3019 35.1106C97.7642 35.6483 97.343 36.2846 97.0383 37.0195C96.7515 37.7544 96.6081 38.5699 96.6081 39.4662C96.6081 40.3444 96.7515 41.16 97.0383 41.9128C97.343 42.6477 97.7552 43.284 98.275 43.8217C98.8128 44.3595 99.4401 44.7717 100.157 45.0585C100.874 45.3453 101.654 45.4887 102.496 45.4887ZM115.529 48.8763V30.056H119.132L130.236 43.6066H128.488V30.056H132.79V48.8763H129.214L118.083 35.3257H119.831V48.8763H115.529ZM136.705 48.8763V30.056H140.308L151.412 43.6066H149.665V30.056H153.966V48.8763H150.39L139.26 35.3257H141.007V48.8763H136.705ZM161.888 37.6379H170.948V41.0256H161.888V37.6379ZM162.21 45.3811H172.454V48.8763H157.881V30.056H172.104V33.5512H162.21V45.3811ZM184.389 49.199C182.937 49.199 181.583 48.966 180.329 48.4999C179.092 48.016 178.017 47.3349 177.102 46.4566C176.188 45.5783 175.471 44.5477 174.952 43.3647C174.45 42.1817 174.199 40.8822 174.199 39.4662C174.199 38.0501 174.45 36.7506 174.952 35.5676C175.471 34.3846 176.188 33.354 177.102 32.4757C178.034 31.5974 179.119 30.9253 180.356 30.4593C181.592 29.9753 182.946 29.7333 184.415 29.7333C186.047 29.7333 187.516 30.0201 188.825 30.5937C190.151 31.1493 191.263 31.9738 192.159 33.0672L189.363 35.6483C188.717 34.9134 188 34.3667 187.212 34.0082C186.423 33.6318 185.563 33.4436 184.631 33.4436C183.752 33.4436 182.946 33.587 182.211 33.8738C181.476 34.1606 180.84 34.5728 180.302 35.1106C179.764 35.6483 179.343 36.2846 179.038 37.0195C178.751 37.7544 178.608 38.5699 178.608 39.4662C178.608 40.3624 178.751 41.1779 179.038 41.9128C179.343 42.6477 179.764 43.284 180.302 43.8217C180.84 44.3595 181.476 44.7717 182.211 45.0585C182.946 45.3453 183.752 45.4887 184.631 45.4887C185.563 45.4887 186.423 45.3094 187.212 44.9509C188 44.5745 188.717 44.0099 189.363 43.2571L192.159 45.8382C191.263 46.9316 190.151 47.765 188.825 48.3386C187.516 48.9122 186.038 49.199 184.389 49.199ZM198.277 48.8763V33.6049H192.255V30.056H208.655V33.6049H202.633V48.8763H198.277ZM213.069 38.4714H223.017V40.1652H213.069V38.4714ZM213.284 47.1556H224.603V48.8763H211.294V30.056H224.2V31.7767H213.284V47.1556ZM228.742 48.8763V30.056H236.405C238.412 30.056 240.169 30.4593 241.674 31.2658C243.198 32.0545 244.381 33.1568 245.223 34.5729C246.066 35.9889 246.487 37.62 246.487 39.4662C246.487 41.3123 246.066 42.9434 245.223 44.3595C244.381 45.7755 243.198 46.8868 241.674 47.6933C240.169 48.482 238.412 48.8763 236.405 48.8763H228.742ZM230.732 47.1556H236.297C237.964 47.1556 239.407 46.833 240.626 46.1877C241.863 45.5245 242.822 44.6194 243.503 43.4722C244.184 42.3071 244.524 40.9718 244.524 39.4662C244.524 37.9426 244.184 36.6072 243.503 35.4601C242.822 34.3129 241.863 33.4167 240.626 32.7715C239.407 32.1083 237.964 31.7767 236.297 31.7767H230.732V47.1556Z" fill="#231F20"/>
<path d="M82.4638 96.3931C81.6056 96.3931 80.8126 96.2519 80.0848 95.9695C79.357 95.6762 78.7269 95.2688 78.1946 94.7474C77.6623 94.226 77.2441 93.6122 76.9399 92.9061C76.6466 92.2 76.5 91.4287 76.5 90.5922C76.5 89.7558 76.6466 88.9845 76.9399 88.2784C77.2441 87.5723 77.6623 86.9585 78.1946 86.4371C78.7378 85.9157 79.3733 85.5137 80.1011 85.2313C80.8289 84.938 81.6219 84.7913 82.4801 84.7913C83.3057 84.7913 84.0824 84.9325 84.8103 85.215C85.5381 85.4866 86.1519 85.8994 86.6516 86.4534L85.8857 87.2192C85.4186 86.7413 84.9026 86.3991 84.3377 86.1927C83.7728 85.9754 83.1645 85.8668 82.5127 85.8668C81.8283 85.8668 81.1928 85.9863 80.6062 86.2253C80.0196 86.4534 79.5091 86.7847 79.0745 87.2192C78.64 87.6429 78.2978 88.1426 78.048 88.7183C77.809 89.2832 77.6895 89.9079 77.6895 90.5922C77.6895 91.2766 77.809 91.9067 78.048 92.4824C78.2978 93.0473 78.64 93.547 79.0745 93.9815C79.5091 94.4052 80.0196 94.7365 80.6062 94.9755C81.1928 95.2036 81.8283 95.3177 82.5127 95.3177C83.1645 95.3177 83.7728 95.2091 84.3377 94.9918C84.9026 94.7745 85.4186 94.4269 85.8857 93.9489L86.6516 94.7148C86.1519 95.2688 85.5381 95.687 84.8103 95.9695C84.0824 96.2519 83.3003 96.3931 82.4638 96.3931ZM92.7346 96.3769C91.909 96.3769 91.1649 96.1922 90.5022 95.8228C89.8504 95.4426 89.3344 94.9266 88.9542 94.2748C88.574 93.6122 88.3839 92.8572 88.3839 92.0099C88.3839 91.1517 88.574 90.3967 88.9542 89.7449C89.3344 89.0931 89.8504 88.5826 90.5022 88.2132C91.154 87.8439 91.8981 87.6592 92.7346 87.6592C93.5819 87.6592 94.3315 87.8439 94.9833 88.2132C95.6459 88.5826 96.1619 89.0931 96.5313 89.7449C96.9115 90.3967 97.1016 91.1517 97.1016 92.0099C97.1016 92.8572 96.9115 93.6122 96.5313 94.2748C96.1619 94.9266 95.6459 95.4426 94.9833 95.8228C94.3206 96.1922 93.5711 96.3769 92.7346 96.3769ZM92.7346 95.3503C93.3538 95.3503 93.9024 95.2145 94.3804 94.9429C94.8583 94.6605 95.2331 94.2694 95.5047 93.7697C95.7871 93.2591 95.9284 92.6725 95.9284 92.0099C95.9284 91.3364 95.7871 90.7497 95.5047 90.25C95.2331 89.7503 94.8583 89.3647 94.3804 89.0931C93.9024 88.8107 93.3592 88.6695 92.7509 88.6695C92.1425 88.6695 91.5994 88.8107 91.1214 89.0931C90.6434 89.3647 90.2632 89.7503 89.9808 90.25C89.6983 90.7497 89.5571 91.3364 89.5571 92.0099C89.5571 92.6725 89.6983 93.2591 89.9808 93.7697C90.2632 94.2694 90.6434 94.6605 91.1214 94.9429C91.5994 95.2145 92.1371 95.3503 92.7346 95.3503ZM104.482 87.6592C105.178 87.6592 105.786 87.795 106.307 88.0666C106.84 88.3273 107.252 88.7292 107.546 89.2724C107.85 89.8155 108.002 90.4999 108.002 91.3255V96.2954H106.845V91.4396C106.845 90.5379 106.617 89.859 106.161 89.4027C105.715 88.9356 105.085 88.702 104.27 88.702C103.662 88.702 103.13 88.827 102.674 89.0768C102.228 89.3158 101.881 89.6689 101.631 90.136C101.392 90.5922 101.272 91.1463 101.272 91.798V96.2954H100.115V87.7407H101.223V90.0871L101.044 89.6471C101.316 89.0279 101.75 88.5445 102.348 88.1969C102.945 87.8384 103.657 87.6592 104.482 87.6592ZM116.146 87.6592C116.841 87.6592 117.449 87.795 117.971 88.0666C118.503 88.3273 118.916 88.7292 119.209 89.2724C119.513 89.8155 119.665 90.4999 119.665 91.3255V96.2954H118.508V91.4396C118.508 90.5379 118.28 89.859 117.824 89.4027C117.379 88.9356 116.749 88.702 115.934 88.702C115.326 88.702 114.793 88.827 114.337 89.0768C113.892 89.3158 113.544 89.6689 113.294 90.136C113.055 90.5922 112.936 91.1463 112.936 91.798V96.2954H111.779V87.7407H112.887V90.0871L112.708 89.6471C112.979 89.0279 113.414 88.5445 114.011 88.1969C114.609 87.8384 115.32 87.6592 116.146 87.6592ZM127.076 96.3769C126.185 96.3769 125.403 96.1922 124.729 95.8228C124.056 95.4426 123.529 94.9266 123.149 94.2748C122.769 93.6122 122.579 92.8572 122.579 92.0099C122.579 91.1625 122.758 90.413 123.116 89.7612C123.486 89.1094 123.985 88.5988 124.615 88.2295C125.256 87.8493 125.973 87.6592 126.766 87.6592C127.57 87.6592 128.282 87.8439 128.901 88.2132C129.531 88.5717 130.025 89.0823 130.384 89.7449C130.742 90.3967 130.921 91.1517 130.921 92.0099C130.921 92.0642 130.916 92.1239 130.905 92.1891C130.905 92.2434 130.905 92.3032 130.905 92.3684H123.459V91.5047H130.286L129.83 91.8469C129.83 91.2277 129.694 90.6791 129.422 90.2012C129.162 89.7123 128.803 89.3321 128.347 89.0605C127.891 88.789 127.364 88.6532 126.766 88.6532C126.18 88.6532 125.653 88.789 125.186 89.0605C124.719 89.3321 124.355 89.7123 124.094 90.2012C123.833 90.69 123.703 91.2495 123.703 91.8795V92.0588C123.703 92.7105 123.844 93.2863 124.127 93.786C124.42 94.2748 124.822 94.6605 125.332 94.9429C125.854 95.2145 126.446 95.3503 127.109 95.3503C127.63 95.3503 128.113 95.258 128.559 95.0733C129.015 94.8886 129.406 94.6062 129.732 94.226L130.384 94.9755C130.004 95.4318 129.526 95.7794 128.95 96.0184C128.385 96.2574 127.76 96.3769 127.076 96.3769ZM137.48 96.3769C136.633 96.3769 135.873 96.1922 135.199 95.8228C134.536 95.4426 134.015 94.9266 133.635 94.2748C133.255 93.6122 133.064 92.8572 133.064 92.0099C133.064 91.1517 133.255 90.3967 133.635 89.7449C134.015 89.0931 134.536 88.5826 135.199 88.2132C135.873 87.8439 136.633 87.6592 137.48 87.6592C138.208 87.6592 138.865 87.8004 139.452 88.0828C140.039 88.3653 140.5 88.789 140.837 89.3538L139.973 89.9404C139.68 89.5059 139.316 89.1855 138.882 88.9791C138.447 88.7727 137.975 88.6695 137.464 88.6695C136.856 88.6695 136.307 88.8107 135.818 89.0931C135.329 89.3647 134.944 89.7503 134.661 90.25C134.379 90.7497 134.238 91.3364 134.238 92.0099C134.238 92.6834 134.379 93.27 134.661 93.7697C134.944 94.2694 135.329 94.6605 135.818 94.9429C136.307 95.2145 136.856 95.3503 137.464 95.3503C137.975 95.3503 138.447 95.2471 138.882 95.0407C139.316 94.8343 139.68 94.5193 139.973 94.0956L140.837 94.6822C140.5 95.2362 140.039 95.6599 139.452 95.9532C138.865 96.2356 138.208 96.3769 137.48 96.3769ZM146.562 96.3769C145.758 96.3769 145.139 96.1596 144.704 95.7251C144.27 95.2905 144.053 94.6768 144.053 93.8838V85.8505H145.21V93.8186C145.21 94.3183 145.334 94.7039 145.584 94.9755C145.845 95.2471 146.214 95.3829 146.692 95.3829C147.203 95.3829 147.627 95.2362 147.963 94.9429L148.371 95.7739C148.143 95.9803 147.866 96.1324 147.54 96.2302C147.225 96.328 146.899 96.3769 146.562 96.3769ZM142.521 88.702V87.7407H147.817V88.702H142.521ZM151.129 96.2954V87.7407H152.285V96.2954H151.129ZM151.715 85.8505C151.476 85.8505 151.275 85.769 151.112 85.6061C150.949 85.4431 150.868 85.2476 150.868 85.0194C150.868 84.7913 150.949 84.6012 151.112 84.4491C151.275 84.2862 151.476 84.2047 151.715 84.2047C151.954 84.2047 152.155 84.2808 152.318 84.4328C152.481 84.5849 152.563 84.775 152.563 85.0031C152.563 85.2421 152.481 85.4431 152.318 85.6061C152.166 85.769 151.965 85.8505 151.715 85.8505ZM160.523 87.6592C161.219 87.6592 161.827 87.795 162.348 88.0666C162.881 88.3273 163.293 88.7292 163.587 89.2724C163.891 89.8155 164.043 90.4999 164.043 91.3255V96.2954H162.886V91.4396C162.886 90.5379 162.658 89.859 162.202 89.4027C161.756 88.9356 161.126 88.702 160.312 88.702C159.703 88.702 159.171 88.827 158.715 89.0768C158.269 89.3158 157.922 89.6689 157.672 90.136C157.433 90.5922 157.313 91.1463 157.313 91.798V96.2954H156.156V87.7407H157.264V90.0871L157.085 89.6471C157.357 89.0279 157.791 88.5445 158.389 88.1969C158.986 87.8384 159.698 87.6592 160.523 87.6592ZM171.47 99.538C170.688 99.538 169.938 99.424 169.221 99.1958C168.504 98.9677 167.923 98.6418 167.478 98.2182L168.064 97.3382C168.466 97.6967 168.96 97.9792 169.547 98.1856C170.145 98.4028 170.775 98.5115 171.437 98.5115C172.524 98.5115 173.322 98.2562 173.833 97.7456C174.343 97.2459 174.598 96.4638 174.598 95.3992V93.2646L174.761 91.798L174.647 90.3315V87.7407H175.755V95.2525C175.755 96.7299 175.391 97.8108 174.664 98.4952C173.947 99.1904 172.882 99.538 171.47 99.538ZM171.258 95.9695C170.443 95.9695 169.71 95.7957 169.058 95.4481C168.406 95.0896 167.89 94.5953 167.51 93.9652C167.141 93.3352 166.956 92.6128 166.956 91.798C166.956 90.9833 167.141 90.2663 167.51 89.6471C167.89 89.0171 168.406 88.5282 169.058 88.1806C169.71 87.833 170.443 87.6592 171.258 87.6592C172.018 87.6592 172.703 87.8167 173.311 88.1317C173.919 88.4468 174.403 88.9139 174.761 89.5331C175.12 90.1523 175.299 90.9073 175.299 91.798C175.299 92.6888 175.12 93.4438 174.761 94.063C174.403 94.6822 173.919 95.1548 173.311 95.4806C172.703 95.8065 172.018 95.9695 171.258 95.9695ZM171.372 94.9429C172.002 94.9429 172.562 94.8126 173.05 94.5518C173.539 94.2803 173.925 93.9109 174.207 93.4438C174.49 92.9658 174.631 92.4172 174.631 91.798C174.631 91.1788 174.49 90.6357 174.207 90.1686C173.925 89.7015 173.539 89.3375 173.05 89.0768C172.562 88.8052 172.002 88.6695 171.372 88.6695C170.753 88.6695 170.193 88.8052 169.694 89.0768C169.205 89.3375 168.819 89.7015 168.537 90.1686C168.265 90.6357 168.129 91.1788 168.129 91.798C168.129 92.4172 168.265 92.9658 168.537 93.4438C168.819 93.9109 169.205 94.2803 169.694 94.5518C170.193 94.8126 170.753 94.9429 171.372 94.9429ZM79.9707 116.377C79.1669 116.377 78.5477 116.16 78.1131 115.725C77.6786 115.291 77.4614 114.677 77.4614 113.884V105.85H78.6183V113.819C78.6183 114.318 78.7432 114.704 78.9931 114.976C79.2538 115.247 79.6231 115.383 80.1011 115.383C80.6117 115.383 81.0353 115.236 81.3721 114.943L81.7795 115.774C81.5513 115.98 81.2743 116.132 80.9484 116.23C80.6334 116.328 80.3075 116.377 79.9707 116.377ZM75.9297 108.702V107.741H81.2254V108.702H75.9297ZM88.9043 107.659C89.5996 107.659 90.2079 107.795 90.7293 108.067C91.2616 108.327 91.6744 108.729 91.9677 109.272C92.2719 109.816 92.424 110.5 92.424 111.325V116.295H91.2671V111.44C91.2671 110.538 91.0389 109.859 90.5827 109.403C90.1373 108.936 89.5072 108.702 88.6925 108.702C88.0842 108.702 87.5519 108.827 87.0956 109.077C86.6502 109.316 86.3026 109.669 86.0527 110.136C85.8138 110.592 85.6943 111.146 85.6943 111.798V116.295H84.5373V104.205H85.6943V110.087L85.4661 109.647C85.7377 109.028 86.1722 108.545 86.7697 108.197C87.3672 107.838 88.0787 107.659 88.9043 107.659ZM96.2008 116.295V107.741H97.3088V110.071L97.1948 109.663C97.4337 109.012 97.8357 108.517 98.4006 108.181C98.9654 107.833 99.6661 107.659 100.503 107.659V108.784C100.459 108.784 100.416 108.784 100.372 108.784C100.329 108.773 100.285 108.767 100.242 108.767C99.3402 108.767 98.6341 109.044 98.1236 109.598C97.613 110.141 97.3577 110.918 97.3577 111.928V116.295H96.2008ZM106.673 116.377C105.847 116.377 105.103 116.192 104.441 115.823C103.789 115.443 103.273 114.927 102.893 114.275C102.512 113.612 102.322 112.857 102.322 112.01C102.322 111.152 102.512 110.397 102.893 109.745C103.273 109.093 103.789 108.583 104.441 108.213C105.092 107.844 105.836 107.659 106.673 107.659C107.52 107.659 108.27 107.844 108.922 108.213C109.584 108.583 110.1 109.093 110.47 109.745C110.85 110.397 111.04 111.152 111.04 112.01C111.04 112.857 110.85 113.612 110.47 114.275C110.1 114.927 109.584 115.443 108.922 115.823C108.259 116.192 107.509 116.377 106.673 116.377ZM106.673 115.35C107.292 115.35 107.841 115.214 108.319 114.943C108.797 114.66 109.171 114.269 109.443 113.77C109.725 113.259 109.867 112.673 109.867 112.01C109.867 111.336 109.725 110.75 109.443 110.25C109.171 109.75 108.797 109.365 108.319 109.093C107.841 108.811 107.298 108.669 106.689 108.669C106.081 108.669 105.538 108.811 105.06 109.093C104.582 109.365 104.202 109.75 103.919 110.25C103.637 110.75 103.495 111.336 103.495 112.01C103.495 112.673 103.637 113.259 103.919 113.77C104.202 114.269 104.582 114.66 105.06 114.943C105.538 115.214 106.075 115.35 106.673 115.35ZM117.59 116.377C116.862 116.377 116.226 116.241 115.683 115.969C115.14 115.698 114.716 115.291 114.412 114.747C114.119 114.204 113.972 113.525 113.972 112.711V107.741H115.129V112.58C115.129 113.493 115.352 114.182 115.797 114.65C116.253 115.106 116.889 115.334 117.704 115.334C118.301 115.334 118.817 115.214 119.252 114.976C119.697 114.726 120.034 114.367 120.262 113.9C120.501 113.433 120.62 112.873 120.62 112.222V107.741H121.777V116.295H120.669V113.949L120.849 114.373C120.577 115.003 120.153 115.497 119.578 115.855C119.013 116.203 118.35 116.377 117.59 116.377ZM129.303 119.538C128.521 119.538 127.772 119.424 127.055 119.196C126.338 118.968 125.757 118.642 125.311 118.218L125.898 117.338C126.3 117.697 126.794 117.979 127.381 118.186C127.978 118.403 128.608 118.511 129.271 118.511C130.357 118.511 131.156 118.256 131.666 117.746C132.177 117.246 132.432 116.464 132.432 115.399V113.265L132.595 111.798L132.481 110.332V107.741H133.589V115.253C133.589 116.73 133.225 117.811 132.497 118.495C131.78 119.19 130.716 119.538 129.303 119.538ZM129.092 115.969C128.277 115.969 127.544 115.796 126.892 115.448C126.24 115.09 125.724 114.595 125.344 113.965C124.975 113.335 124.79 112.613 124.79 111.798C124.79 110.983 124.975 110.266 125.344 109.647C125.724 109.017 126.24 108.528 126.892 108.181C127.544 107.833 128.277 107.659 129.092 107.659C129.852 107.659 130.536 107.817 131.145 108.132C131.753 108.447 132.237 108.914 132.595 109.533C132.953 110.152 133.133 110.907 133.133 111.798C133.133 112.689 132.953 113.444 132.595 114.063C132.237 114.682 131.753 115.155 131.145 115.481C130.536 115.807 129.852 115.969 129.092 115.969ZM129.206 114.943C129.836 114.943 130.395 114.813 130.884 114.552C131.373 114.28 131.759 113.911 132.041 113.444C132.323 112.966 132.465 112.417 132.465 111.798C132.465 111.179 132.323 110.636 132.041 110.169C131.759 109.701 131.373 109.338 130.884 109.077C130.395 108.805 129.836 108.669 129.206 108.669C128.587 108.669 128.027 108.805 127.527 109.077C127.039 109.338 126.653 109.701 126.37 110.169C126.099 110.636 125.963 111.179 125.963 111.798C125.963 112.417 126.099 112.966 126.37 113.444C126.653 113.911 127.039 114.28 127.527 114.552C128.027 114.813 128.587 114.943 129.206 114.943ZM141.827 107.659C142.522 107.659 143.131 107.795 143.652 108.067C144.184 108.327 144.597 108.729 144.891 109.272C145.195 109.816 145.347 110.5 145.347 111.325V116.295H144.19V111.44C144.19 110.538 143.962 109.859 143.505 109.403C143.06 108.936 142.43 108.702 141.615 108.702C141.007 108.702 140.475 108.827 140.018 109.077C139.573 109.316 139.225 109.669 138.976 110.136C138.737 110.592 138.617 111.146 138.617 111.798V116.295H137.46V104.205H138.617V110.087L138.389 109.647C138.66 109.028 139.095 108.545 139.692 108.197C140.29 107.838 141.002 107.659 141.827 107.659ZM157.674 116.377C156.783 116.377 156.001 116.192 155.327 115.823C154.654 115.443 154.127 114.927 153.747 114.275C153.366 113.612 153.176 112.857 153.176 112.01C153.176 111.163 153.356 110.413 153.714 109.761C154.083 109.109 154.583 108.599 155.213 108.23C155.854 107.849 156.571 107.659 157.364 107.659C158.168 107.659 158.88 107.844 159.499 108.213C160.129 108.572 160.623 109.082 160.982 109.745C161.34 110.397 161.519 111.152 161.519 112.01C161.519 112.064 161.514 112.124 161.503 112.189C161.503 112.243 161.503 112.303 161.503 112.368H154.056V111.505H160.884L160.428 111.847C160.428 111.228 160.292 110.679 160.02 110.201C159.759 109.712 159.401 109.332 158.945 109.061C158.488 108.789 157.962 108.653 157.364 108.653C156.777 108.653 156.251 108.789 155.784 109.061C155.316 109.332 154.952 109.712 154.692 110.201C154.431 110.69 154.301 111.249 154.301 111.88V112.059C154.301 112.711 154.442 113.286 154.724 113.786C155.018 114.275 155.42 114.66 155.93 114.943C156.452 115.214 157.044 115.35 157.706 115.35C158.228 115.35 158.711 115.258 159.157 115.073C159.613 114.889 160.004 114.606 160.33 114.226L160.982 114.976C160.601 115.432 160.123 115.779 159.548 116.018C158.983 116.257 158.358 116.377 157.674 116.377ZM167.931 116.377C167.117 116.377 166.383 116.192 165.732 115.823C165.091 115.453 164.586 114.943 164.216 114.291C163.847 113.628 163.662 112.868 163.662 112.01C163.662 111.141 163.847 110.38 164.216 109.729C164.586 109.077 165.091 108.572 165.732 108.213C166.383 107.844 167.117 107.659 167.931 107.659C168.681 107.659 169.349 107.828 169.936 108.164C170.533 108.501 171.006 108.995 171.353 109.647C171.712 110.288 171.891 111.076 171.891 112.01C171.891 112.933 171.717 113.721 171.37 114.373C171.022 115.024 170.549 115.524 169.952 115.872C169.365 116.208 168.692 116.377 167.931 116.377ZM168.013 115.35C168.621 115.35 169.164 115.214 169.642 114.943C170.131 114.66 170.511 114.269 170.783 113.77C171.065 113.259 171.207 112.673 171.207 112.01C171.207 111.336 171.065 110.75 170.783 110.25C170.511 109.75 170.131 109.365 169.642 109.093C169.164 108.811 168.621 108.669 168.013 108.669C167.415 108.669 166.878 108.811 166.4 109.093C165.922 109.365 165.542 109.75 165.259 110.25C164.977 110.75 164.835 111.336 164.835 112.01C164.835 112.673 164.977 113.259 165.259 113.77C165.542 114.269 165.922 114.66 166.4 114.943C166.878 115.214 167.415 115.35 168.013 115.35ZM171.239 116.295V113.721L171.353 111.994L171.19 110.266V104.205H172.347V116.295H171.239ZM179.757 116.377C179.029 116.377 178.394 116.241 177.851 115.969C177.307 115.698 176.884 115.291 176.58 114.747C176.286 114.204 176.14 113.525 176.14 112.711V107.741H177.297V112.58C177.297 113.493 177.519 114.182 177.965 114.65C178.421 115.106 179.056 115.334 179.871 115.334C180.469 115.334 180.985 115.214 181.419 114.976C181.865 114.726 182.201 114.367 182.429 113.9C182.668 113.433 182.788 112.873 182.788 112.222V107.741H183.945V116.295H182.837V113.949L183.016 114.373C182.744 115.003 182.321 115.497 181.745 115.855C181.18 116.203 180.518 116.377 179.757 116.377ZM191.373 116.377C190.526 116.377 189.765 116.192 189.092 115.823C188.429 115.443 187.908 114.927 187.528 114.275C187.147 113.612 186.957 112.857 186.957 112.01C186.957 111.152 187.147 110.397 187.528 109.745C187.908 109.093 188.429 108.583 189.092 108.213C189.765 107.844 190.526 107.659 191.373 107.659C192.101 107.659 192.758 107.8 193.345 108.083C193.931 108.365 194.393 108.789 194.73 109.354L193.866 109.94C193.573 109.506 193.209 109.185 192.775 108.979C192.34 108.773 191.867 108.669 191.357 108.669C190.749 108.669 190.2 108.811 189.711 109.093C189.222 109.365 188.837 109.75 188.554 110.25C188.272 110.75 188.131 111.336 188.131 112.01C188.131 112.683 188.272 113.27 188.554 113.77C188.837 114.269 189.222 114.66 189.711 114.943C190.2 115.214 190.749 115.35 191.357 115.35C191.867 115.35 192.34 115.247 192.775 115.041C193.209 114.834 193.573 114.519 193.866 114.096L194.73 114.682C194.393 115.236 193.931 115.66 193.345 115.953C192.758 116.236 192.101 116.377 191.373 116.377ZM203.015 116.295V114.405L202.966 114.096V110.934C202.966 110.207 202.76 109.647 202.347 109.256C201.945 108.865 201.342 108.669 200.539 108.669C199.985 108.669 199.458 108.762 198.958 108.946C198.458 109.131 198.035 109.376 197.687 109.68L197.166 108.816C197.6 108.447 198.122 108.164 198.73 107.969C199.338 107.762 199.979 107.659 200.653 107.659C201.761 107.659 202.613 107.936 203.211 108.49C203.819 109.033 204.123 109.864 204.123 110.983V116.295H203.015ZM200.066 116.377C199.425 116.377 198.866 116.274 198.388 116.067C197.921 115.85 197.562 115.557 197.312 115.187C197.062 114.807 196.937 114.373 196.937 113.884C196.937 113.438 197.041 113.036 197.247 112.678C197.464 112.309 197.812 112.015 198.29 111.798C198.779 111.57 199.431 111.456 200.245 111.456H203.195V112.319H200.278C199.452 112.319 198.877 112.466 198.551 112.759C198.236 113.053 198.078 113.417 198.078 113.851C198.078 114.34 198.268 114.731 198.648 115.024C199.029 115.318 199.561 115.464 200.245 115.464C200.897 115.464 201.457 115.318 201.924 115.024C202.402 114.72 202.749 114.286 202.966 113.721L203.227 114.519C203.01 115.084 202.63 115.535 202.087 115.872C201.554 116.208 200.881 116.377 200.066 116.377ZM210.622 116.377C209.819 116.377 209.199 116.16 208.765 115.725C208.33 115.291 208.113 114.677 208.113 113.884V105.85H209.27V113.819C209.27 114.318 209.395 114.704 209.645 114.976C209.905 115.247 210.275 115.383 210.753 115.383C211.263 115.383 211.687 115.236 212.024 114.943L212.431 115.774C212.203 115.98 211.926 116.132 211.6 116.23C211.285 116.328 210.959 116.377 210.622 116.377ZM206.581 108.702V107.741H211.877V108.702H206.581ZM215.189 116.295V107.741H216.346V116.295H215.189ZM215.776 105.85C215.537 105.85 215.336 105.769 215.173 105.606C215.01 105.443 214.928 105.248 214.928 105.019C214.928 104.791 215.01 104.601 215.173 104.449C215.336 104.286 215.537 104.205 215.776 104.205C216.015 104.205 216.216 104.281 216.379 104.433C216.542 104.585 216.623 104.775 216.623 105.003C216.623 105.242 216.542 105.443 216.379 105.606C216.226 105.769 216.026 105.85 215.776 105.85ZM224.584 107.659C225.279 107.659 225.887 107.795 226.409 108.067C226.941 108.327 227.354 108.729 227.647 109.272C227.951 109.816 228.103 110.5 228.103 111.325V116.295H226.947V111.44C226.947 110.538 226.718 109.859 226.262 109.403C225.817 108.936 225.187 108.702 224.372 108.702C223.764 108.702 223.231 108.827 222.775 109.077C222.33 109.316 221.982 109.669 221.732 110.136C221.493 110.592 221.374 111.146 221.374 111.798V116.295H220.217V107.741H221.325V110.087L221.146 109.647C221.417 109.028 221.852 108.545 222.449 108.197C223.047 107.838 223.758 107.659 224.584 107.659ZM235.53 119.538C234.748 119.538 233.999 119.424 233.282 119.196C232.565 118.968 231.983 118.642 231.538 118.218L232.125 117.338C232.527 117.697 233.021 117.979 233.608 118.186C234.205 118.403 234.835 118.511 235.498 118.511C236.584 118.511 237.382 118.256 237.893 117.746C238.404 117.246 238.659 116.464 238.659 115.399V113.265L238.822 111.798L238.708 110.332V107.741H239.816V115.253C239.816 116.73 239.452 117.811 238.724 118.495C238.007 119.19 236.943 119.538 235.53 119.538ZM235.318 115.969C234.504 115.969 233.77 115.796 233.119 115.448C232.467 115.09 231.951 114.595 231.571 113.965C231.201 113.335 231.017 112.613 231.017 111.798C231.017 110.983 231.201 110.266 231.571 109.647C231.951 109.017 232.467 108.528 233.119 108.181C233.77 107.833 234.504 107.659 235.318 107.659C236.079 107.659 236.763 107.817 237.372 108.132C237.98 108.447 238.463 108.914 238.822 109.533C239.18 110.152 239.36 110.907 239.36 111.798C239.36 112.689 239.18 113.444 238.822 114.063C238.463 114.682 237.98 115.155 237.372 115.481C236.763 115.807 236.079 115.969 235.318 115.969ZM235.433 114.943C236.063 114.943 236.622 114.813 237.111 114.552C237.6 114.28 237.985 113.911 238.268 113.444C238.55 112.966 238.691 112.417 238.691 111.798C238.691 111.179 238.55 110.636 238.268 110.169C237.985 109.701 237.6 109.338 237.111 109.077C236.622 108.805 236.063 108.669 235.433 108.669C234.813 108.669 234.254 108.805 233.754 109.077C233.265 109.338 232.88 109.701 232.597 110.169C232.326 110.636 232.19 111.179 232.19 111.798C232.19 112.417 232.326 112.966 232.597 113.444C232.88 113.911 233.265 114.28 233.754 114.552C234.254 114.813 234.813 114.943 235.433 114.943Z" fill="#231F20"/>
<line x1="75.6526" y1="64.5163" x2="247.516" y2="64.5163" stroke="#231F20" stroke-width="2.44421"/>
</svg>
