<svg width="250" height="121" viewBox="0 0 250 121" fill="none" xmlns="http://www.w3.org/2000/svg">
<path d="M29.796 84.9377L25.3219 84.9109L22.2278 84.0555L19.0928 83.1597L12.5297 80.1941L10.8736 79.1877L5.88492 75.4974L3.28152 72.2399L1.19266 68.1304L0 63.7021L0.0272601 54.5435L1.3903 48.5351L3.43486 42.8488L7.01284 35.9044L11.102 29.9766L14.8708 25.4912L17.0959 22.9819L17.1232 16.014L18.1012 11.9883L20.1457 8.14371L24.654 3.65167L28.5046 1.75622L32.0042 0.712891H35.3913L37.1292 1.38384L41.7669 5.92285L42.7892 7.93571V10.955L41.7669 14.3702L39.2453 19.2849L32.0042 31.1138L28.5966 36.9612C29.3553 38.0973 30.2231 39.2983 31.2 40.5642L32.6618 42.4596L39.0102 48.9209H39.8519L40.5027 46.5726L41.45 42.4865L42.1997 35.8575L41.7397 30.0906L42.445 29.6646L45.2904 31.9592L46.2684 34.898L47.5701 40.9567L48.2209 50.0381L48.0846 55.4057L55.2167 58.9316L60.887 60.6828L61.7014 61.3537L63.746 62.3601L64.0152 63.2391L59.926 62.9204L54.7737 61.2095C50.3098 59.0557 47.9245 57.8994 47.6178 57.7406L47.2123 60.1426L45.3722 67.7278L43.1232 73.0149L40.4925 77.3761L37.3711 81.0663L34.0896 83.4415L29.796 84.9377ZM1.95255 59.4918L2.60341 59.1194L3.03617 53.7786L3.98689 48.8639L3.74154 48.6257L2.3785 54.4999L1.95255 59.4918ZM7.35019 63.0311L7.83748 56.543L9.46631 49.4644L11.4461 43.7781L13.9405 38.491L13.6406 38.1991L9.76277 46.009L7.892 51.7121L6.86972 56.5463V61.914L7.35019 63.0311ZM9.92633 65.8592L10.3727 57.3548L11.6744 50.7594C12.3787 48.7666 13.0602 46.7649 13.719 44.7543L16.5677 38.7459L20.3911 32.392V31.9626H19.8254L16.244 37.3839L12.448 44.7275L10.4681 50.4138L9.1051 57.0361L9.44586 64.2992L9.92633 65.8592ZM12.3117 60.1997L12.908 58.945L13.886 53.5505L14.9968 50.0783L16.0191 46.6632L18.0807 41.9363L21.8768 34.7001L21.277 34.0996L21.059 34.3411L18.7827 38.1588L16.8301 42.0034L14.4959 47.8239L12.7069 54.8689L12.3117 60.1997ZM17.3583 47.4247L18.1182 44.8583L22.5924 36.2902V35.9548L21.3997 37.451L18.9565 42.2315L16.8165 47.2637V47.4515L17.3583 47.4247ZM17.7366 62.4038L18.4181 61.4409V59.7065L20.2888 50.9841L22.9195 43.4829L24.2212 40.9701C24.1125 40.8831 24.0131 40.7853 23.9247 40.6783L21.3759 45.9654L19.638 50.6923L18.1216 56.912L17.7366 62.4038ZM20.0162 15.9704L20.3945 15.5678L20.0537 14.7425L20.0162 15.9704ZM20.357 14.7157L22.347 10.6296L25.3048 6.91922L28.7738 4.46352H28.0922L25.6251 6.11743L23.8089 7.79481L21.277 11.4582L20.3536 13.9944L20.357 14.7157ZM23.3966 72.9746L26.569 70.9987L30.8183 66.8354L34.0215 62.0817L36.0013 58.6095L38.223 53.5371L38.6558 51.9369L34.6178 48.8371L26.7292 41.309L26.4873 41.5773L25.2128 44.1136L22.6094 51.6685L21.277 57.6635L20.9363 64.9265L21.5871 69.3314L22.1051 71.1463L22.6742 72.9612L23.3966 72.9746ZM21.6689 14.4205L22.3198 12.6861H22.8071L23.5397 11.1093L24.3541 10.0693L27.5538 6.8387L29.796 5.10429L26.92 6.54348L23.3216 10.0693L21.6178 13.6187L21.6689 14.4205ZM23.9213 16.477L34.1441 7.29159L34.8257 6.03691C34.7373 5.92988 34.6379 5.83208 34.5292 5.74505L30.9206 7.05341L27.5845 9.53594L25.4139 12.2198L23.9486 15.0579L23.5124 16.4736L23.9213 16.477ZM23.8668 27.3431L24.7869 26.4104L28.1945 22.2438L36.3727 12.7129L38.5706 9.35813L38.9489 7.48953C38.1344 8.68047 37.3302 9.88483 36.5363 11.0925L34.9347 13.4711L23.8668 26.4909V27.3431ZM24.9232 29.7484L25.3048 29.6948C29.4348 24.2846 33.566 18.8823 37.6983 13.4879L39.569 10.2304V9.07969L36.7203 13.5952L31.4317 20.4255L26.8757 26.085L24.5177 29.3425L24.9232 29.7484ZM36.693 9.85464L38.3491 7.26476L37.8891 6.86554C37.6313 7.49355 37.3413 8.10827 37.0202 8.70731L36.4511 9.85464H36.693ZM39.2964 64.2724L40.4652 62.3769L42.445 57.224L42.8778 54.4999L42.3633 54.9528C40.3028 60.969 39.2726 64.0308 39.2726 64.1382H39.2964V64.2724ZM39.5145 67.0199L40.2471 66.5939L42.3633 62.0817L43.2049 59.1966C43.7638 57.2575 44.0432 56.1717 44.0432 55.9391H43.9887V55.6036H43.3651V56.5128L40.547 64.6011L39.5145 67.0199ZM40.5198 14.5815V13.9676H39.8962V14.5815H40.5198ZM40.7617 57.0361L41.1025 56.7007L41.784 54.2181L41.2422 54.8052L41.0241 55.9257L40.7617 57.0361ZM42.7688 51.1888V50.2259L42.1452 50.6185V51.2055L42.7688 51.1888ZM42.8233 50.0917L43.1641 49.2933L42.8233 48.5184V50.0917ZM42.9869 52.3093L43.7468 51.6383L44.3703 47.9011V46.7538L43.8285 47.0725L43.4469 50.1152L42.9869 52.3093ZM43.1504 47.8776L43.4741 47.1027L43.1504 46.3009V47.8776ZM44.7486 51.9906L45.0893 51.2156L44.7895 50.0917L44.7486 51.9906ZM45.6448 59.8139L46.0503 59.4381L45.7266 58.6095L45.6448 59.8139Z" fill="#231F20"/>
<path d="M83.4298 49.8902C81.9819 49.8902 80.6324 49.6578 79.3811 49.193C78.1477 48.7104 77.0752 48.0312 76.1636 47.1553C75.252 46.2794 74.537 45.2516 74.0186 44.0719C73.5181 42.8921 73.2679 41.5962 73.2679 40.184C73.2679 38.7719 73.5181 37.476 74.0186 36.2962C74.537 35.1165 75.252 34.0887 76.1636 33.2128C77.0931 32.3369 78.1745 31.6666 79.4079 31.2019C80.6413 30.7192 81.9909 30.4779 83.4566 30.4779C85.0832 30.4779 86.549 30.7639 87.8539 31.3359C89.1766 31.89 90.2849 32.7123 91.1786 33.8027L88.3901 36.3767C87.7466 35.6438 87.0316 35.0986 86.2451 34.7411C85.4586 34.3657 84.6006 34.178 83.6711 34.178C82.7952 34.178 81.9909 34.321 81.258 34.607C80.5251 34.893 79.8905 35.3042 79.3543 35.8404C78.818 36.3767 78.398 37.0112 78.0941 37.7441C77.8081 38.477 77.6651 39.2903 77.6651 40.184C77.6651 41.0778 77.8081 41.8911 78.0941 42.624C78.398 43.3569 78.818 43.9914 79.3543 44.5277C79.8905 45.0639 80.5251 45.475 81.258 45.761C81.9909 46.047 82.7952 46.19 83.6711 46.19C84.6006 46.19 85.4586 46.0113 86.2451 45.6538C87.0316 45.2784 87.7466 44.7154 88.3901 43.9646L91.1786 46.5386C90.2849 47.629 89.1766 48.4602 87.8539 49.0322C86.549 49.6042 85.0743 49.8902 83.4298 49.8902ZM102.299 49.8902C100.815 49.8902 99.4391 49.6489 98.17 49.1662C96.9187 48.6836 95.8283 48.0044 94.8988 47.1285C93.9872 46.2526 93.2722 45.2248 92.7538 44.045C92.2533 42.8653 92.0031 41.5783 92.0031 40.184C92.0031 38.7898 92.2533 37.5028 92.7538 36.323C93.2722 35.1433 93.9962 34.1155 94.9257 33.2396C95.8552 32.3637 96.9455 31.6845 98.1968 31.2019C99.448 30.7192 100.807 30.4779 102.272 30.4779C103.756 30.4779 105.114 30.7192 106.348 31.2019C107.599 31.6845 108.68 32.3637 109.592 33.2396C110.522 34.1155 111.246 35.1433 111.764 36.323C112.282 37.4849 112.541 38.7719 112.541 40.184C112.541 41.5783 112.282 42.8742 111.764 44.0719C111.246 45.2516 110.522 46.2794 109.592 47.1553C108.68 48.0133 107.599 48.6836 106.348 49.1662C105.114 49.6489 103.765 49.8902 102.299 49.8902ZM102.272 46.19C103.112 46.19 103.881 46.047 104.578 45.761C105.293 45.475 105.919 45.0639 106.455 44.5277C106.991 43.9914 107.402 43.3569 107.688 42.624C107.992 41.8911 108.144 41.0778 108.144 40.184C108.144 39.2903 107.992 38.477 107.688 37.7441C107.402 37.0112 106.991 36.3767 106.455 35.8404C105.937 35.3042 105.32 34.893 104.605 34.607C103.89 34.321 103.112 34.178 102.272 34.178C101.432 34.178 100.655 34.321 99.9396 34.607C99.2425 34.893 98.6258 35.3042 98.0895 35.8404C97.5533 36.3767 97.1332 37.0112 96.8293 37.7441C96.5433 38.477 96.4003 39.2903 96.4003 40.184C96.4003 41.0599 96.5433 41.8732 96.8293 42.624C97.1332 43.3569 97.5443 43.9914 98.0627 44.5277C98.599 45.0639 99.2246 45.475 99.9396 45.761C100.655 46.047 101.432 46.19 102.272 46.19ZM115.27 49.5684V30.7997H118.863L129.936 44.3132H128.193V30.7997H132.483V49.5684H128.917L117.817 36.0549H119.56V49.5684H115.27ZM136.388 49.5684V30.7997H139.98L151.054 44.3132H149.311V30.7997H153.601V49.5684H150.035L138.935 36.0549H140.678V49.5684H136.388ZM161.501 38.3608H170.536V41.7392H161.501V38.3608ZM161.822 46.0828H172.038V49.5684H157.506V30.7997H171.689V34.2853H161.822V46.0828ZM183.94 49.8902C182.492 49.8902 181.143 49.6578 179.891 49.193C178.658 48.7104 177.585 48.0312 176.674 47.1553C175.762 46.2794 175.047 45.2516 174.529 44.0719C174.028 42.8921 173.778 41.5962 173.778 40.184C173.778 38.7719 174.028 37.476 174.529 36.2962C175.047 35.1165 175.762 34.0887 176.674 33.2128C177.603 32.3369 178.685 31.6666 179.918 31.2019C181.152 30.7192 182.501 30.4779 183.967 30.4779C185.593 30.4779 187.059 30.7639 188.364 31.3359C189.687 31.89 190.795 32.7123 191.689 33.8027L188.9 36.3767C188.257 35.6438 187.542 35.0986 186.755 34.7411C185.969 34.3657 185.111 34.178 184.181 34.178C183.305 34.178 182.501 34.321 181.768 34.607C181.035 34.893 180.401 35.3042 179.865 35.8404C179.328 36.3767 178.908 37.0112 178.604 37.7441C178.318 38.477 178.175 39.2903 178.175 40.184C178.175 41.0778 178.318 41.8911 178.604 42.624C178.908 43.3569 179.328 43.9914 179.865 44.5277C180.401 45.0639 181.035 45.475 181.768 45.761C182.501 46.047 183.305 46.19 184.181 46.19C185.111 46.19 185.969 46.0113 186.755 45.6538C187.542 45.2784 188.257 44.7154 188.9 43.9646L191.689 46.5386C190.795 47.629 189.687 48.4602 188.364 49.0322C187.059 49.6042 185.585 49.8902 183.94 49.8902ZM197.79 49.5684V34.3389H191.784V30.7997H208.14V34.3389H202.134V49.5684H197.79ZM212.542 39.192H222.462V40.8812H212.542V39.192ZM212.756 47.8524H224.044V49.5684H210.772V30.7997H223.642V32.5157H212.756V47.8524ZM228.172 49.5684V30.7997H235.813C237.815 30.7997 239.567 31.2019 241.069 32.0062C242.588 32.7927 243.768 33.892 244.608 35.3042C245.448 36.7163 245.868 38.3429 245.868 40.184C245.868 42.0252 245.448 43.6518 244.608 45.0639C243.768 46.476 242.588 47.5843 241.069 48.3887C239.567 49.1752 237.815 49.5684 235.813 49.5684H228.172ZM230.156 47.8524H235.706C237.369 47.8524 238.807 47.5307 240.023 46.8872C241.256 46.2258 242.213 45.3231 242.892 44.1791C243.571 43.0172 243.911 41.6855 243.911 40.184C243.911 38.6647 243.571 37.333 242.892 36.189C242.213 35.045 241.256 34.1512 240.023 33.5077C238.807 32.8464 237.369 32.5157 235.706 32.5157H230.156V47.8524Z" fill="#231F20"/>
<path d="M82.2975 97.0327C81.4417 97.0327 80.6508 96.8919 79.925 96.6102C79.1992 96.3177 78.5708 95.9115 78.04 95.3915C77.5092 94.8715 77.0921 94.2594 76.7888 93.5552C76.4963 92.8511 76.35 92.0819 76.35 91.2477C76.35 90.4136 76.4963 89.6444 76.7888 88.9402C77.0921 88.2361 77.5092 87.624 78.04 87.104C78.5817 86.584 79.2154 86.1832 79.9413 85.9015C80.6671 85.609 81.4579 85.4627 82.3138 85.4627C83.1371 85.4627 83.9117 85.6036 84.6375 85.8852C85.3633 86.1561 85.9754 86.5677 86.4738 87.1202L85.71 87.884C85.2442 87.4073 84.7296 87.0661 84.1663 86.8602C83.6029 86.6436 82.9963 86.5352 82.3463 86.5352C81.6638 86.5352 81.03 86.6544 80.445 86.8927C79.86 87.1202 79.3508 87.4507 78.9175 87.884C78.4842 88.3065 78.1429 88.8048 77.8938 89.379C77.6554 89.9423 77.5363 90.5652 77.5363 91.2477C77.5363 91.9302 77.6554 92.5586 77.8938 93.1327C78.1429 93.6961 78.4842 94.1944 78.9175 94.6277C79.3508 95.0502 79.86 95.3807 80.445 95.619C81.03 95.8465 81.6638 95.9602 82.3463 95.9602C82.9963 95.9602 83.6029 95.8519 84.1663 95.6352C84.7296 95.4186 85.2442 95.0719 85.71 94.5952L86.4738 95.359C85.9754 95.9115 85.3633 96.3286 84.6375 96.6102C83.9117 96.8919 83.1317 97.0327 82.2975 97.0327ZM92.5401 97.0165C91.7167 97.0165 90.9747 96.8323 90.3138 96.464C89.6638 96.0848 89.1492 95.5702 88.7701 94.9202C88.3909 94.2594 88.2013 93.5065 88.2013 92.6615C88.2013 91.8057 88.3909 91.0527 88.7701 90.4027C89.1492 89.7527 89.6638 89.2436 90.3138 88.8752C90.9638 88.5069 91.7059 88.3227 92.5401 88.3227C93.3851 88.3227 94.1326 88.5069 94.7826 88.8752C95.4434 89.2436 95.958 89.7527 96.3263 90.4027C96.7055 91.0527 96.8951 91.8057 96.8951 92.6615C96.8951 93.5065 96.7055 94.2594 96.3263 94.9202C95.958 95.5702 95.4434 96.0848 94.7826 96.464C94.1217 96.8323 93.3742 97.0165 92.5401 97.0165ZM92.5401 95.9927C93.1576 95.9927 93.7047 95.8573 94.1813 95.5865C94.658 95.3048 95.0317 94.9148 95.3026 94.4165C95.5842 93.9073 95.7251 93.3223 95.7251 92.6615C95.7251 91.9898 95.5842 91.4048 95.3026 90.9065C95.0317 90.4082 94.658 90.0236 94.1813 89.7527C93.7047 89.4711 93.163 89.3302 92.5563 89.3302C91.9497 89.3302 91.408 89.4711 90.9313 89.7527C90.4547 90.0236 90.0755 90.4082 89.7938 90.9065C89.5122 91.4048 89.3713 91.9898 89.3713 92.6615C89.3713 93.3223 89.5122 93.9073 89.7938 94.4165C90.0755 94.9148 90.4547 95.3048 90.9313 95.5865C91.408 95.8573 91.9442 95.9927 92.5401 95.9927ZM104.256 88.3227C104.949 88.3227 105.556 88.4582 106.076 88.729C106.606 88.989 107.018 89.3898 107.311 89.9315C107.614 90.4732 107.766 91.1557 107.766 91.979V96.9352H106.612V92.0927C106.612 91.1936 106.384 90.5165 105.929 90.0615C105.485 89.5957 104.857 89.3627 104.044 89.3627C103.438 89.3627 102.907 89.4873 102.452 89.7365C102.008 89.9748 101.661 90.3269 101.412 90.7927C101.173 91.2477 101.054 91.8002 101.054 92.4502V96.9352H99.9006V88.404H101.006V90.744L100.827 90.3052C101.098 89.6877 101.531 89.2057 102.127 88.859C102.723 88.5015 103.432 88.3227 104.256 88.3227ZM115.887 88.3227C116.58 88.3227 117.187 88.4582 117.707 88.729C118.238 88.989 118.65 89.3898 118.942 89.9315C119.245 90.4732 119.397 91.1557 119.397 91.979V96.9352H118.243V92.0927C118.243 91.1936 118.016 90.5165 117.561 90.0615C117.117 89.5957 116.488 89.3627 115.676 89.3627C115.069 89.3627 114.538 89.4873 114.083 89.7365C113.639 89.9748 113.292 90.3269 113.043 90.7927C112.805 91.2477 112.686 91.8002 112.686 92.4502V96.9352H111.532V88.404H112.637V90.744L112.458 90.3052C112.729 89.6877 113.162 89.2057 113.758 88.859C114.354 88.5015 115.064 88.3227 115.887 88.3227ZM126.787 97.0165C125.899 97.0165 125.119 96.8323 124.447 96.464C123.776 96.0848 123.25 95.5702 122.871 94.9202C122.492 94.2594 122.302 93.5065 122.302 92.6615C122.302 91.8165 122.481 91.069 122.838 90.419C123.207 89.769 123.705 89.2598 124.333 88.8915C124.973 88.5123 125.688 88.3227 126.478 88.3227C127.28 88.3227 127.99 88.5069 128.607 88.8752C129.236 89.2327 129.728 89.7419 130.086 90.4027C130.443 91.0527 130.622 91.8057 130.622 92.6615C130.622 92.7157 130.617 92.7752 130.606 92.8402C130.606 92.8944 130.606 92.954 130.606 93.019H123.18V92.1577H129.988L129.533 92.499C129.533 91.8815 129.398 91.3344 129.127 90.8577C128.867 90.3702 128.51 89.9911 128.055 89.7202C127.6 89.4494 127.074 89.314 126.478 89.314C125.893 89.314 125.368 89.4494 124.902 89.7202C124.436 89.9911 124.073 90.3702 123.813 90.8577C123.553 91.3452 123.423 91.9032 123.423 92.5315V92.7102C123.423 93.3602 123.564 93.9344 123.846 94.4327C124.138 94.9202 124.539 95.3048 125.048 95.5865C125.568 95.8573 126.159 95.9927 126.82 95.9927C127.34 95.9927 127.822 95.9007 128.266 95.7165C128.721 95.5323 129.111 95.2507 129.436 94.8715L130.086 95.619C129.707 96.074 129.23 96.4207 128.656 96.659C128.093 96.8973 127.47 97.0165 126.787 97.0165ZM137.163 97.0165C136.318 97.0165 135.56 96.8323 134.888 96.464C134.227 96.0848 133.707 95.5702 133.328 94.9202C132.949 94.2594 132.759 93.5065 132.759 92.6615C132.759 91.8057 132.949 91.0527 133.328 90.4027C133.707 89.7527 134.227 89.2436 134.888 88.8752C135.56 88.5069 136.318 88.3227 137.163 88.3227C137.889 88.3227 138.544 88.4636 139.129 88.7452C139.714 89.0269 140.175 89.4494 140.511 90.0127L139.649 90.5977C139.357 90.1644 138.994 89.8448 138.561 89.639C138.127 89.4332 137.656 89.3302 137.147 89.3302C136.54 89.3302 135.993 89.4711 135.506 89.7527C135.018 90.0236 134.634 90.4082 134.352 90.9065C134.07 91.4048 133.929 91.9898 133.929 92.6615C133.929 93.3332 134.07 93.9182 134.352 94.4165C134.634 94.9148 135.018 95.3048 135.506 95.5865C135.993 95.8573 136.54 95.9927 137.147 95.9927C137.656 95.9927 138.127 95.8898 138.561 95.684C138.994 95.4782 139.357 95.164 139.649 94.7415L140.511 95.3265C140.175 95.879 139.714 96.3015 139.129 96.594C138.544 96.8757 137.889 97.0165 137.163 97.0165ZM146.22 97.0165C145.418 97.0165 144.801 96.7998 144.367 96.3665C143.934 95.9332 143.717 95.3211 143.717 94.5302V86.519H144.871V94.4652C144.871 94.9636 144.996 95.3482 145.245 95.619C145.505 95.8898 145.873 96.0252 146.35 96.0252C146.859 96.0252 147.281 95.879 147.617 95.5865L148.024 96.4152C147.796 96.6211 147.52 96.7727 147.195 96.8702C146.881 96.9677 146.556 97.0165 146.22 97.0165ZM142.19 89.3627V88.404H147.471V89.3627H142.19ZM150.774 96.9352V88.404H151.928V96.9352H150.774ZM151.359 86.519C151.121 86.519 150.92 86.4377 150.758 86.2752C150.595 86.1127 150.514 85.9177 150.514 85.6902C150.514 85.4627 150.595 85.2732 150.758 85.1215C150.92 84.959 151.121 84.8777 151.359 84.8777C151.597 84.8777 151.798 84.9536 151.96 85.1052C152.123 85.2569 152.204 85.4465 152.204 85.674C152.204 85.9123 152.123 86.1127 151.96 86.2752C151.808 86.4377 151.608 86.519 151.359 86.519ZM160.143 88.3227C160.836 88.3227 161.443 88.4582 161.963 88.729C162.494 88.989 162.905 89.3898 163.198 89.9315C163.501 90.4732 163.653 91.1557 163.653 91.979V96.9352H162.499V92.0927C162.499 91.1936 162.272 90.5165 161.817 90.0615C161.372 89.5957 160.744 89.3627 159.932 89.3627C159.325 89.3627 158.794 89.4873 158.339 89.7365C157.895 89.9748 157.548 90.3269 157.299 90.7927C157.061 91.2477 156.942 91.8002 156.942 92.4502V96.9352H155.788V88.404H156.893V90.744L156.714 90.3052C156.985 89.6877 157.418 89.2057 158.014 88.859C158.61 88.5015 159.32 88.3227 160.143 88.3227ZM171.059 100.169C170.279 100.169 169.532 100.055 168.817 99.8277C168.102 99.6002 167.522 99.2752 167.078 98.8527L167.663 97.9752C168.064 98.3327 168.557 98.6144 169.142 98.8202C169.738 99.0369 170.366 99.1452 171.027 99.1452C172.11 99.1452 172.906 98.8907 173.416 98.3815C173.925 97.8832 174.179 97.1032 174.179 96.0415V93.9127L174.342 92.4502L174.228 90.9877V88.404H175.333V95.8952C175.333 97.3686 174.97 98.4465 174.244 99.129C173.529 99.8223 172.468 100.169 171.059 100.169ZM170.848 96.6102C170.036 96.6102 169.304 96.4369 168.654 96.0902C168.004 95.7327 167.49 95.2398 167.111 94.6115C166.742 93.9832 166.558 93.2627 166.558 92.4502C166.558 91.6377 166.742 90.9227 167.111 90.3052C167.49 89.6769 168.004 89.1894 168.654 88.8427C169.304 88.4961 170.036 88.3227 170.848 88.3227C171.606 88.3227 172.289 88.4798 172.896 88.794C173.502 89.1082 173.984 89.574 174.342 90.1915C174.699 90.809 174.878 91.5619 174.878 92.4502C174.878 93.3386 174.699 94.0915 174.342 94.709C173.984 95.3265 173.502 95.7977 172.896 96.1227C172.289 96.4477 171.606 96.6102 170.848 96.6102ZM170.962 95.5865C171.59 95.5865 172.148 95.4565 172.636 95.1965C173.123 94.9257 173.508 94.5573 173.789 94.0915C174.071 93.6148 174.212 93.0677 174.212 92.4502C174.212 91.8327 174.071 91.2911 173.789 90.8252C173.508 90.3594 173.123 89.9965 172.636 89.7365C172.148 89.4657 171.59 89.3302 170.962 89.3302C170.344 89.3302 169.786 89.4657 169.288 89.7365C168.801 89.9965 168.416 90.3594 168.134 90.8252C167.863 91.2911 167.728 91.8327 167.728 92.4502C167.728 93.0677 167.863 93.6148 168.134 94.0915C168.416 94.5573 168.801 94.9257 169.288 95.1965C169.786 95.4565 170.344 95.5865 170.962 95.5865ZM79.8113 117.016C79.0096 117.016 78.3921 116.8 77.9588 116.366C77.5254 115.933 77.3088 115.321 77.3088 114.53V106.519H78.4625V114.465C78.4625 114.964 78.5871 115.348 78.8363 115.619C79.0963 115.89 79.4646 116.025 79.9413 116.025C80.4504 116.025 80.8729 115.879 81.2088 115.586L81.615 116.415C81.3875 116.621 81.1113 116.773 80.7863 116.87C80.4721 116.968 80.1471 117.016 79.8113 117.016ZM75.7813 109.363V108.404H81.0625V109.363H75.7813ZM88.7203 108.323C89.4137 108.323 90.0203 108.458 90.5403 108.729C91.0712 108.989 91.4828 109.39 91.7753 109.931C92.0787 110.473 92.2303 111.156 92.2303 111.979V116.935H91.0766V112.093C91.0766 111.194 90.8491 110.516 90.3941 110.061C89.9499 109.596 89.3216 109.363 88.5091 109.363C87.9024 109.363 87.3716 109.487 86.9166 109.736C86.4724 109.975 86.1257 110.327 85.8766 110.793C85.6382 111.248 85.5191 111.8 85.5191 112.45V116.935H84.3653V104.878H85.5191V110.744L85.2916 110.305C85.5624 109.688 85.9957 109.206 86.5916 108.859C87.1874 108.501 87.897 108.323 88.7203 108.323ZM95.9968 116.935V108.404H97.1018V110.728L96.988 110.321C97.2263 109.671 97.6272 109.179 98.1905 108.843C98.7538 108.496 99.4526 108.323 100.287 108.323V109.444C100.243 109.444 100.2 109.444 100.157 109.444C100.113 109.433 100.07 109.428 100.027 109.428C99.1276 109.428 98.4234 109.704 97.9143 110.256C97.4051 110.798 97.1505 111.573 97.1505 112.58V116.935H95.9968ZM106.44 117.016C105.617 117.016 104.875 116.832 104.214 116.464C103.564 116.085 103.049 115.57 102.67 114.92C102.291 114.259 102.101 113.506 102.101 112.661C102.101 111.806 102.291 111.053 102.67 110.403C103.049 109.753 103.564 109.244 104.214 108.875C104.864 108.507 105.606 108.323 106.44 108.323C107.285 108.323 108.033 108.507 108.683 108.875C109.344 109.244 109.858 109.753 110.226 110.403C110.606 111.053 110.795 111.806 110.795 112.661C110.795 113.506 110.606 114.259 110.226 114.92C109.858 115.57 109.344 116.085 108.683 116.464C108.022 116.832 107.274 117.016 106.44 117.016ZM106.44 115.993C107.058 115.993 107.605 115.857 108.081 115.586C108.558 115.305 108.932 114.915 109.203 114.416C109.484 113.907 109.625 113.322 109.625 112.661C109.625 111.99 109.484 111.405 109.203 110.906C108.932 110.408 108.558 110.024 108.081 109.753C107.605 109.471 107.063 109.33 106.456 109.33C105.85 109.33 105.308 109.471 104.831 109.753C104.355 110.024 103.976 110.408 103.694 110.906C103.412 111.405 103.271 111.99 103.271 112.661C103.271 113.322 103.412 113.907 103.694 114.416C103.976 114.915 104.355 115.305 104.831 115.586C105.308 115.857 105.844 115.993 106.44 115.993ZM117.327 117.016C116.601 117.016 115.967 116.881 115.426 116.61C114.884 116.339 114.462 115.933 114.158 115.391C113.866 114.85 113.719 114.173 113.719 113.36V108.404H114.873V113.23C114.873 114.14 115.095 114.828 115.539 115.294C115.994 115.749 116.628 115.976 117.441 115.976C118.037 115.976 118.551 115.857 118.984 115.619C119.429 115.37 119.764 115.012 119.992 114.546C120.23 114.081 120.349 113.523 120.349 112.873V108.404H121.503V116.935H120.398V114.595L120.577 115.018C120.306 115.646 119.884 116.139 119.309 116.496C118.746 116.843 118.085 117.016 117.327 117.016ZM129.009 120.169C128.229 120.169 127.481 120.055 126.766 119.828C126.051 119.6 125.472 119.275 125.027 118.853L125.612 117.975C126.013 118.333 126.506 118.614 127.091 118.82C127.687 119.037 128.315 119.145 128.976 119.145C130.059 119.145 130.856 118.891 131.365 118.381C131.874 117.883 132.129 117.103 132.129 116.041V113.913L132.291 112.45L132.177 110.988V108.404H133.282V115.895C133.282 117.369 132.919 118.446 132.194 119.129C131.479 119.822 130.417 120.169 129.009 120.169ZM128.797 116.61C127.985 116.61 127.254 116.437 126.604 116.09C125.954 115.733 125.439 115.24 125.06 114.611C124.692 113.983 124.507 113.263 124.507 112.45C124.507 111.638 124.692 110.923 125.06 110.305C125.439 109.677 125.954 109.189 126.604 108.843C127.254 108.496 127.985 108.323 128.797 108.323C129.556 108.323 130.238 108.48 130.845 108.794C131.452 109.108 131.934 109.574 132.291 110.191C132.649 110.809 132.827 111.562 132.827 112.45C132.827 113.339 132.649 114.091 132.291 114.709C131.934 115.326 131.452 115.798 130.845 116.123C130.238 116.448 129.556 116.61 128.797 116.61ZM128.911 115.586C129.539 115.586 130.097 115.456 130.585 115.196C131.072 114.926 131.457 114.557 131.739 114.091C132.02 113.615 132.161 113.068 132.161 112.45C132.161 111.833 132.02 111.291 131.739 110.825C131.457 110.359 131.072 109.996 130.585 109.736C130.097 109.466 129.539 109.33 128.911 109.33C128.294 109.33 127.736 109.466 127.237 109.736C126.75 109.996 126.365 110.359 126.084 110.825C125.813 111.291 125.677 111.833 125.677 112.45C125.677 113.068 125.813 113.615 126.084 114.091C126.365 114.557 126.75 114.926 127.237 115.196C127.736 115.456 128.294 115.586 128.911 115.586ZM141.498 108.323C142.191 108.323 142.798 108.458 143.318 108.729C143.849 108.989 144.26 109.39 144.553 109.931C144.856 110.473 145.008 111.156 145.008 111.979V116.935H143.854V112.093C143.854 111.194 143.627 110.516 143.172 110.061C142.727 109.596 142.099 109.363 141.287 109.363C140.68 109.363 140.149 109.487 139.694 109.736C139.25 109.975 138.903 110.327 138.654 110.793C138.416 111.248 138.297 111.8 138.297 112.45V116.935H137.143V104.878H138.297V110.744L138.069 110.305C138.34 109.688 138.773 109.206 139.369 108.859C139.965 108.501 140.675 108.323 141.498 108.323ZM157.301 117.016C156.413 117.016 155.633 116.832 154.961 116.464C154.289 116.085 153.764 115.57 153.385 114.92C153.006 114.259 152.816 113.506 152.816 112.661C152.816 111.816 152.995 111.069 153.352 110.419C153.721 109.769 154.219 109.26 154.847 108.891C155.486 108.512 156.201 108.323 156.992 108.323C157.794 108.323 158.504 108.507 159.121 108.875C159.749 109.233 160.242 109.742 160.6 110.403C160.957 111.053 161.136 111.806 161.136 112.661C161.136 112.716 161.131 112.775 161.12 112.84C161.12 112.894 161.12 112.954 161.12 113.019H153.694V112.158H160.502L160.047 112.499C160.047 111.881 159.912 111.334 159.641 110.858C159.381 110.37 159.024 109.991 158.569 109.72C158.114 109.449 157.588 109.314 156.992 109.314C156.407 109.314 155.882 109.449 155.416 109.72C154.95 109.991 154.587 110.37 154.327 110.858C154.067 111.345 153.937 111.903 153.937 112.531V112.71C153.937 113.36 154.078 113.934 154.36 114.433C154.652 114.92 155.053 115.305 155.562 115.586C156.082 115.857 156.673 115.993 157.334 115.993C157.854 115.993 158.336 115.901 158.78 115.716C159.235 115.532 159.625 115.251 159.95 114.871L160.6 115.619C160.221 116.074 159.744 116.421 159.17 116.659C158.606 116.897 157.984 117.016 157.301 117.016ZM167.531 117.016C166.718 117.016 165.987 116.832 165.337 116.464C164.698 116.096 164.194 115.586 163.826 114.936C163.457 114.276 163.273 113.517 163.273 112.661C163.273 111.795 163.457 111.036 163.826 110.386C164.194 109.736 164.698 109.233 165.337 108.875C165.987 108.507 166.718 108.323 167.531 108.323C168.278 108.323 168.944 108.491 169.529 108.826C170.125 109.162 170.596 109.655 170.943 110.305C171.301 110.944 171.479 111.73 171.479 112.661C171.479 113.582 171.306 114.368 170.959 115.018C170.613 115.668 170.141 116.166 169.546 116.513C168.961 116.849 168.289 117.016 167.531 117.016ZM167.612 115.993C168.219 115.993 168.76 115.857 169.237 115.586C169.724 115.305 170.104 114.915 170.374 114.416C170.656 113.907 170.797 113.322 170.797 112.661C170.797 111.99 170.656 111.405 170.374 110.906C170.104 110.408 169.724 110.024 169.237 109.753C168.76 109.471 168.219 109.33 167.612 109.33C167.016 109.33 166.48 109.471 166.003 109.753C165.526 110.024 165.147 110.408 164.866 110.906C164.584 111.405 164.443 111.99 164.443 112.661C164.443 113.322 164.584 113.907 164.866 114.416C165.147 114.915 165.526 115.305 166.003 115.586C166.48 115.857 167.016 115.993 167.612 115.993ZM170.829 116.935V114.368L170.943 112.645L170.781 110.923V104.878H171.934V116.935H170.829ZM179.324 117.016C178.598 117.016 177.964 116.881 177.423 116.61C176.881 116.339 176.458 115.933 176.155 115.391C175.863 114.85 175.716 114.173 175.716 113.36V108.404H176.87V113.23C176.87 114.14 177.092 114.828 177.536 115.294C177.991 115.749 178.625 115.976 179.438 115.976C180.033 115.976 180.548 115.857 180.981 115.619C181.426 115.37 181.761 115.012 181.989 114.546C182.227 114.081 182.346 113.523 182.346 112.873V108.404H183.5V116.935H182.395V114.595L182.574 115.018C182.303 115.646 181.881 116.139 181.306 116.496C180.743 116.843 180.082 117.016 179.324 117.016ZM190.908 117.016C190.063 117.016 189.305 116.832 188.633 116.464C187.972 116.085 187.452 115.57 187.073 114.92C186.694 114.259 186.504 113.506 186.504 112.661C186.504 111.806 186.694 111.053 187.073 110.403C187.452 109.753 187.972 109.244 188.633 108.875C189.305 108.507 190.063 108.323 190.908 108.323C191.634 108.323 192.289 108.464 192.874 108.745C193.459 109.027 193.92 109.449 194.256 110.013L193.394 110.598C193.102 110.164 192.739 109.845 192.306 109.639C191.872 109.433 191.401 109.33 190.892 109.33C190.285 109.33 189.738 109.471 189.251 109.753C188.763 110.024 188.378 110.408 188.097 110.906C187.815 111.405 187.674 111.99 187.674 112.661C187.674 113.333 187.815 113.918 188.097 114.416C188.378 114.915 188.763 115.305 189.251 115.586C189.738 115.857 190.285 115.993 190.892 115.993C191.401 115.993 191.872 115.89 192.306 115.684C192.739 115.478 193.102 115.164 193.394 114.741L194.256 115.326C193.92 115.879 193.459 116.301 192.874 116.594C192.289 116.876 191.634 117.016 190.908 117.016ZM202.518 116.935V115.05L202.47 114.741V111.589C202.47 110.863 202.264 110.305 201.852 109.915C201.451 109.525 200.85 109.33 200.048 109.33C199.496 109.33 198.97 109.422 198.472 109.606C197.974 109.791 197.551 110.034 197.205 110.338L196.685 109.476C197.118 109.108 197.638 108.826 198.245 108.631C198.851 108.426 199.49 108.323 200.162 108.323C201.267 108.323 202.117 108.599 202.713 109.151C203.32 109.693 203.623 110.522 203.623 111.638V116.935H202.518ZM199.577 117.016C198.938 117.016 198.38 116.914 197.903 116.708C197.437 116.491 197.08 116.199 196.831 115.83C196.582 115.451 196.457 115.018 196.457 114.53C196.457 114.086 196.56 113.685 196.766 113.328C196.982 112.959 197.329 112.667 197.806 112.45C198.293 112.223 198.943 112.109 199.756 112.109H202.697V112.97H199.788C198.965 112.97 198.391 113.116 198.066 113.409C197.752 113.701 197.595 114.064 197.595 114.498C197.595 114.985 197.784 115.375 198.163 115.668C198.542 115.96 199.073 116.106 199.756 116.106C200.406 116.106 200.964 115.96 201.43 115.668C201.906 115.364 202.253 114.931 202.47 114.368L202.73 115.164C202.513 115.727 202.134 116.177 201.592 116.513C201.061 116.849 200.39 117.016 199.577 117.016ZM210.105 117.016C209.303 117.016 208.685 116.8 208.252 116.366C207.819 115.933 207.602 115.321 207.602 114.53V106.519H208.756V114.465C208.756 114.964 208.88 115.348 209.13 115.619C209.39 115.89 209.758 116.025 210.235 116.025C210.744 116.025 211.166 115.879 211.502 115.586L211.908 116.415C211.681 116.621 211.405 116.773 211.08 116.87C210.765 116.968 210.44 117.016 210.105 117.016ZM206.075 109.363V108.404H211.356V109.363H206.075ZM214.659 116.935V108.404H215.812V116.935H214.659ZM215.244 106.519C215.005 106.519 214.805 106.438 214.642 106.275C214.48 106.113 214.399 105.918 214.399 105.69C214.399 105.463 214.48 105.273 214.642 105.121C214.805 104.959 215.005 104.878 215.244 104.878C215.482 104.878 215.682 104.954 215.845 105.105C216.007 105.257 216.089 105.446 216.089 105.674C216.089 105.912 216.007 106.113 215.845 106.275C215.693 106.438 215.493 106.519 215.244 106.519ZM224.028 108.323C224.721 108.323 225.328 108.458 225.848 108.729C226.378 108.989 226.79 109.39 227.083 109.931C227.386 110.473 227.538 111.156 227.538 111.979V116.935H226.384V112.093C226.384 111.194 226.156 110.516 225.701 110.061C225.257 109.596 224.629 109.363 223.816 109.363C223.21 109.363 222.679 109.487 222.224 109.736C221.78 109.975 221.433 110.327 221.184 110.793C220.946 111.248 220.826 111.8 220.826 112.45V116.935H219.673V108.404H220.778V110.744L220.599 110.305C220.87 109.688 221.303 109.206 221.899 108.859C222.495 108.501 223.204 108.323 224.028 108.323ZM234.944 120.169C234.164 120.169 233.417 120.055 232.702 119.828C231.987 119.6 231.407 119.275 230.963 118.853L231.548 117.975C231.949 118.333 232.442 118.614 233.027 118.82C233.622 119.037 234.251 119.145 234.912 119.145C235.995 119.145 236.791 118.891 237.3 118.381C237.809 117.883 238.064 117.103 238.064 116.041V113.913L238.227 112.45L238.113 110.988V108.404H239.218V115.895C239.218 117.369 238.855 118.446 238.129 119.129C237.414 119.822 236.352 120.169 234.944 120.169ZM234.733 116.61C233.92 116.61 233.189 116.437 232.539 116.09C231.889 115.733 231.374 115.24 230.995 114.611C230.627 113.983 230.443 113.263 230.443 112.45C230.443 111.638 230.627 110.923 230.995 110.305C231.374 109.677 231.889 109.189 232.539 108.843C233.189 108.496 233.92 108.323 234.733 108.323C235.491 108.323 236.174 108.48 236.78 108.794C237.387 109.108 237.869 109.574 238.227 110.191C238.584 110.809 238.763 111.562 238.763 112.45C238.763 113.339 238.584 114.091 238.227 114.709C237.869 115.326 237.387 115.798 236.78 116.123C236.174 116.448 235.491 116.61 234.733 116.61ZM234.847 115.586C235.475 115.586 236.033 115.456 236.52 115.196C237.008 114.926 237.392 114.557 237.674 114.091C237.956 113.615 238.097 113.068 238.097 112.45C238.097 111.833 237.956 111.291 237.674 110.825C237.392 110.359 237.008 109.996 236.52 109.736C236.033 109.466 235.475 109.33 234.847 109.33C234.229 109.33 233.671 109.466 233.173 109.736C232.685 109.996 232.301 110.359 232.019 110.825C231.748 111.291 231.613 111.833 231.613 112.45C231.613 113.068 231.748 113.615 232.019 114.091C232.301 114.557 232.685 114.926 233.173 115.196C233.671 115.456 234.229 115.586 234.847 115.586Z" fill="#231F20"/>
<line x1="75.505" y1="65.1728" x2="247.033" y2="65.1728" stroke="#FFCC00" stroke-width="2.4375"/>
</svg>
