<svg xmlns="http://www.w3.org/2000/svg" data-bbox="33.56 29.24 187.86 251.06" viewBox="0 0 239.39 315.08" data-type="color"><g><path d="m121 280.3-13.13-.08-9.08-2.55-9.2-2.67-19.26-8.84-4.86-3-14.64-11-7.64-9.71-6.13-12.25-3.5-13.2.08-27.3 4-17.91 6-16.95 10.5-20.7 12-17.67L77.2 103.1l6.53-7.48.08-20.77 2.87-12 6-11.46L105.91 38l11.3-5.65 10.27-3.11h9.94l5.1 2 13.61 13.53 3 6v9l-3 10.18-7.4 14.65-21.25 35.26-10 17.43q3.34 5.08 7.64 10.74l4.29 5.65 18.63 19.26h2.47l1.91-7 2.78-12.18 2.2-19.76-1.35-17.19 2.07-1.27 8.35 6.84 2.87 8.76 3.82 18.06 1.91 27.07-.4 16 20.93 10.51 16.64 5.22 2.39 2 6 3 .79 2.62-12-.95-15.12-5.1q-19.65-9.63-21-10.34l-1.19 7.16-5.4 22.61-6.6 15.76-7.72 13-9.16 11-9.63 7.08Zm-81.71-75.85 1.91-1.11 1.27-15.92 2.79-14.65-.72-.71-4 17.51ZM55.13 215l1.43-19.34 4.78-21.1 5.81-16.95 7.32-15.76-.88-.87-11.38 23.28-5.49 17-3 14.41v16Zm7.56 8.43L64 198.08l3.82-19.66q3.1-8.91 6-17.9l8.36-17.91 11.22-18.94v-1.28h-1.66l-10.51 16.16-11.14 21.89-5.81 16.95-4 19.74 1 21.65Zm7-16.87 1.75-3.74 2.87-16.08 3.26-10.35 3-10.18 6.05-14.09 11.14-21.57-1.76-1.79-.64.72-6.68 11.38-5.73 11.46-6.85 17.35-5.25 21Zm14.81-38.08 2.23-7.65 13.13-25.54v-1l-3.5 4.46L89.19 153l-6.28 15v.56Zm1.11 44.65 2-2.87v-5.17l5.49-26 7.72-22.36 3.82-7.49a6 6 0 0 1-.87-.87l-7.48 15.76-5.1 14.09-4.45 18.54ZM92.3 74.72l1.11-1.2-1-2.46Zm1-3.74 5.84-12.18 8.68-11.06L118 40.42h-2l-7.24 4.93-5.33 5L96 61.27l-2.71 7.56Zm8.92 173.66 9.31-5.89L124 226.34l9.4-14.17 5.81-10.35 6.52-15.12 1.27-4.77-11.85-9.24L112 150.25l-.71.8-3.74 7.56-7.64 22.52L96 199l-1 21.65 1.91 13.13 1.52 5.41 1.67 5.41ZM97.15 70.1l1.91-5.17h1.43l2.15-4.7 2.39-3.1 9.39-9.63 6.58-5.17-8.44 4.29L102 57.13l-5 10.58Zm6.61 6.13 30-27.38 2-3.74a6 6 0 0 0-.87-.87l-10.59 3.9-9.79 7.4-6.37 8-4.3 8.46-1.28 4.22Zm-.16 32.39 2.7-2.78 10-12.42 24-28.41 6.45-10 1.11-5.57c-2.39 3.55-4.75 7.14-7.08 10.74l-4.7 7.09-32.48 38.81Zm3.1 7.17 1.12-.16Q126 91.44 144.19 67.32l5.49-9.71v-3.43l-8.36 13.46L125.8 88l-13.37 16.87-6.92 9.71Zm34.54-59.3 4.86-7.72-1.35-1.19a59.61 59.61 0 0 1-2.55 5.49l-1.67 3.42Zm7.64 162.21 3.43-5.65 5.81-15.36 1.27-8.12-1.51 1.35q-9.07 26.9-9.07 27.38h.07Zm.64 8.19 2.15-1.27 6.21-13.45 2.47-8.6q2.46-8.67 2.46-9.71h-.16v-1h-1.83v2.71l-8.27 24.11Zm2.95-156.31v-1.83h-1.83v1.83Zm.71 126.55 1-1 2-7.4-1.59 1.75-.64 3.34Zm5.89-17.43v-2.87l-1.83 1.17v1.75Zm.16-3.27 1-2.38-1-2.31Zm.48 6.61 2.23-2 1.83-11.14v-3.42l-1.59.95-1.12 9.07Zm.48-13.21.95-2.31-.95-2.39Zm4.69 12.26 1-2.31-.88-3.35Zm2.63 23.32 1.19-1.12-.95-2.47Z" fill="#231f20" data-color="1"></path></g></svg>