<svg width="250" height="120" viewBox="0 0 250 120" fill="none" xmlns="http://www.w3.org/2000/svg">
<path d="M29.796 84.2249L25.3219 84.198L22.2278 83.3426L19.0928 82.4468L12.5297 79.4812L10.8736 78.4748L5.88492 74.7845L3.28152 71.5271L1.19266 67.4175L0 62.9892L0.0272601 53.8306L1.3903 47.8222L3.43486 42.1359L7.01284 35.1915L11.102 29.2637L14.8708 24.7783L17.0959 22.269L17.1232 15.3011L18.1012 11.2754L20.1457 7.43082L24.654 2.93878L28.5046 1.04333L32.0042 0H35.3913L37.1292 0.670954L41.7669 5.20996L42.7892 7.22282V10.2421L41.7669 13.6573L39.2453 18.572L32.0042 30.4009L28.5966 36.2483C29.3553 37.3844 30.2231 38.5854 31.2 39.8513L32.6618 41.7468L39.0102 48.208H39.8519L40.5027 45.8597L41.45 41.7736L42.1997 35.1446L41.7397 29.3777L42.445 28.9517L45.2904 31.2463L46.2684 34.1851L47.5701 40.2438L48.2209 49.3252L48.0846 54.6928L55.2167 58.2187L60.887 59.9699L61.7014 60.6408L63.746 61.6473L64.0152 62.5262L59.926 62.2075L54.7737 60.4966C50.3098 58.3428 47.9245 57.1865 47.6178 57.0277L47.2123 59.4298L45.3722 67.0149L43.1232 72.302L40.4925 76.6632L37.3711 80.3535L34.0896 82.7286L29.796 84.2249ZM1.95255 58.7789L2.60341 58.4065L3.03617 53.0658L3.98689 48.151L3.74154 47.9128L2.3785 53.787L1.95255 58.7789ZM7.35019 62.3182L7.83748 55.8301L9.46631 48.7515L11.4461 43.0652L13.9405 37.7781L13.6406 37.4862L9.76277 45.2961L7.892 50.9992L6.86972 55.8334V61.2011L7.35019 62.3182ZM9.92633 65.1463L10.3727 56.6419L11.6744 50.0465C12.3787 48.0537 13.0602 46.052 13.719 44.0414L16.5677 38.033L20.3911 31.6791V31.2497H19.8254L16.244 36.671L12.448 44.0146L10.4681 49.7009L9.1051 56.3232L9.44586 63.5863L9.92633 65.1463ZM12.3117 59.4868L12.908 58.2321L13.886 52.8376L14.9968 49.3654L16.0191 45.9503L18.0807 41.2234L21.8768 33.9872L21.277 33.3867L21.059 33.6282L18.7827 37.4459L16.8301 41.2905L14.4959 47.111L12.7069 54.1561L12.3117 59.4868ZM17.3583 46.7118L18.1182 44.1454L22.5924 35.5773V35.2419L21.3997 36.7381L18.9565 41.5186L16.8165 46.5508V46.7387L17.3583 46.7118ZM17.7366 61.6909L18.4181 60.728V58.9936L20.2888 50.2712L22.9195 42.77L24.2212 40.2572C24.1125 40.1702 24.0131 40.0724 23.9247 39.9654L21.3759 45.2525L19.638 49.9794L18.1216 56.1991L17.7366 61.6909ZM20.0162 15.2575L20.3945 14.8549L20.0537 14.0296L20.0162 15.2575ZM20.357 14.0028L22.347 9.9167L25.3048 6.20633L28.7738 3.75063H28.0922L25.6251 5.40453L23.8089 7.08192L21.277 10.7453L20.3536 13.2815L20.357 14.0028ZM23.3966 72.2617L26.569 70.2858L30.8183 66.1225L34.0215 61.3688L36.0013 57.8966L38.223 52.8242L38.6558 51.224L34.6178 48.1242L26.7292 40.5961L26.4873 40.8645L25.2128 43.4007L22.6094 50.9556L21.277 56.9506L20.9363 64.2137L21.5871 68.6185L22.1051 70.4334L22.6742 72.2483L23.3966 72.2617ZM21.6689 13.7076L22.3198 11.9732H22.8071L23.5397 10.3964L24.3541 9.35645L27.5538 6.12581L29.796 4.39139L26.92 5.83059L23.3216 9.35645L21.6178 12.9058L21.6689 13.7076ZM23.9213 15.7641L34.1441 6.5787L34.8257 5.32402C34.7373 5.21699 34.6379 5.11919 34.5292 5.03216L30.9206 6.34052L27.5845 8.82305L25.4139 11.5069L23.9486 14.345L23.5124 15.7607L23.9213 15.7641ZM23.8668 26.6302L24.7869 25.6975L28.1945 21.5309L36.3727 12L38.5706 8.64524L38.9489 6.77664C38.1344 7.96758 37.3302 9.17194 36.5363 10.3797L34.9347 12.7582L23.8668 25.7781V26.6302ZM24.9232 29.0355L25.3048 28.9819C29.4348 23.5717 33.566 18.1694 37.6983 12.775L39.569 9.51748V8.3668L36.7203 12.8823L31.4317 19.7126L26.8757 25.3721L24.5177 28.6296L24.9232 29.0355ZM36.693 9.14175L38.3491 6.55187L37.8891 6.15265C37.6313 6.78066 37.3413 7.39538 37.0202 7.99442L36.4511 9.14175H36.693ZM39.2964 63.5595L40.4652 61.664L42.445 56.5111L42.8778 53.787L42.3633 54.2399C40.3028 60.2561 39.2726 63.3179 39.2726 63.4253H39.2964V63.5595ZM39.5145 66.307L40.2471 65.881L42.3633 61.3688L43.2049 58.4837C43.7638 56.5447 44.0432 55.4588 44.0432 55.2262H43.9887V54.8907H43.3651V55.7999L40.547 63.8882L39.5145 66.307ZM40.5198 13.8686V13.2547H39.8962V13.8686H40.5198ZM40.7617 56.3232L41.1025 55.9878L41.784 53.5052L41.2422 54.0923L41.0241 55.2128L40.7617 56.3232ZM42.7688 50.4759V49.5131L42.1452 49.9056V50.4926L42.7688 50.4759ZM42.8233 49.3789L43.1641 48.5804L42.8233 47.8055V49.3789ZM42.9869 51.5964L43.7468 50.9254L44.3703 47.1882V46.0409L43.8285 46.3596L43.4469 49.4023L42.9869 51.5964ZM43.1504 47.1647L43.4741 46.3898L43.1504 45.588V47.1647ZM44.7486 51.2777L45.0893 50.5027L44.7895 49.3789L44.7486 51.2777ZM45.6448 59.101L46.0503 58.7252L45.7266 57.8966L45.6448 59.101Z" fill="#231F20"/>
<path d="M83.4298 49.1773C81.9819 49.1773 80.6324 48.9449 79.3811 48.4802C78.1477 47.9975 77.0752 47.3183 76.1636 46.4424C75.252 45.5665 74.537 44.5387 74.0186 43.359C73.5181 42.1792 73.2679 40.8833 73.2679 39.4712C73.2679 38.059 73.5181 36.7631 74.0186 35.5833C74.537 34.4036 75.252 33.3758 76.1636 32.4999C77.0931 31.624 78.1745 30.9537 79.4079 30.489C80.6413 30.0063 81.9909 29.765 83.4566 29.765C85.0832 29.765 86.549 30.051 87.8539 30.623C89.1766 31.1772 90.2849 31.9994 91.1786 33.0898L88.3901 35.6638C87.7466 34.9309 87.0316 34.3857 86.2451 34.0282C85.4586 33.6528 84.6006 33.4652 83.6711 33.4652C82.7952 33.4652 81.9909 33.6082 81.258 33.8942C80.5251 34.1802 79.8905 34.5913 79.3543 35.1275C78.818 35.6638 78.398 36.2983 78.0941 37.0312C77.8081 37.7641 77.6651 38.5774 77.6651 39.4712C77.6651 40.3649 77.8081 41.1782 78.0941 41.9111C78.398 42.644 78.818 43.2785 79.3543 43.8148C79.8905 44.351 80.5251 44.7622 81.258 45.0482C81.9909 45.3342 82.7952 45.4772 83.6711 45.4772C84.6006 45.4772 85.4586 45.2984 86.2451 44.9409C87.0316 44.5655 87.7466 44.0025 88.3901 43.2517L91.1786 45.8257C90.2849 46.9161 89.1766 47.7473 87.8539 48.3193C86.549 48.8913 85.0743 49.1773 83.4298 49.1773ZM102.299 49.1773C100.815 49.1773 99.4391 48.936 98.17 48.4533C96.9187 47.9707 95.8283 47.2915 94.8988 46.4156C93.9872 45.5397 93.2722 44.5119 92.7538 43.3322C92.2533 42.1524 92.0031 40.8654 92.0031 39.4712C92.0031 38.0769 92.2533 36.7899 92.7538 35.6102C93.2722 34.4304 93.9962 33.4026 94.9257 32.5267C95.8552 31.6508 96.9455 30.9716 98.1968 30.489C99.448 30.0063 100.807 29.765 102.272 29.765C103.756 29.765 105.114 30.0063 106.348 30.489C107.599 30.9716 108.68 31.6508 109.592 32.5267C110.522 33.4026 111.246 34.4304 111.764 35.6102C112.282 36.772 112.541 38.059 112.541 39.4712C112.541 40.8654 112.282 42.1613 111.764 43.359C111.246 44.5387 110.522 45.5665 109.592 46.4424C108.68 47.3004 107.599 47.9707 106.348 48.4533C105.114 48.936 103.765 49.1773 102.299 49.1773ZM102.272 45.4772C103.112 45.4772 103.881 45.3342 104.578 45.0482C105.293 44.7622 105.919 44.351 106.455 43.8148C106.991 43.2785 107.402 42.644 107.688 41.9111C107.992 41.1782 108.144 40.3649 108.144 39.4712C108.144 38.5774 107.992 37.7641 107.688 37.0312C107.402 36.2983 106.991 35.6638 106.455 35.1275C105.937 34.5913 105.32 34.1802 104.605 33.8942C103.89 33.6082 103.112 33.4652 102.272 33.4652C101.432 33.4652 100.655 33.6082 99.9396 33.8942C99.2425 34.1802 98.6258 34.5913 98.0895 35.1275C97.5533 35.6638 97.1332 36.2983 96.8293 37.0312C96.5433 37.7641 96.4003 38.5774 96.4003 39.4712C96.4003 40.347 96.5433 41.1603 96.8293 41.9111C97.1332 42.644 97.5443 43.2785 98.0627 43.8148C98.599 44.351 99.2246 44.7622 99.9396 45.0482C100.655 45.3342 101.432 45.4772 102.272 45.4772ZM115.27 48.8555V30.0868H118.863L129.936 43.6003H128.193V30.0868H132.483V48.8555H128.917L117.817 35.342H119.56V48.8555H115.27ZM136.388 48.8555V30.0868H139.98L151.054 43.6003H149.311V30.0868H153.601V48.8555H150.035L138.935 35.342H140.678V48.8555H136.388ZM161.501 37.6479H170.536V41.0263H161.501V37.6479ZM161.822 45.3699H172.038V48.8555H157.506V30.0868H171.689V33.5724H161.822V45.3699ZM183.94 49.1773C182.492 49.1773 181.143 48.9449 179.891 48.4802C178.658 47.9975 177.585 47.3183 176.674 46.4424C175.762 45.5665 175.047 44.5387 174.529 43.359C174.028 42.1792 173.778 40.8833 173.778 39.4712C173.778 38.059 174.028 36.7631 174.529 35.5833C175.047 34.4036 175.762 33.3758 176.674 32.4999C177.603 31.624 178.685 30.9537 179.918 30.489C181.152 30.0063 182.501 29.765 183.967 29.765C185.593 29.765 187.059 30.051 188.364 30.623C189.687 31.1772 190.795 31.9994 191.689 33.0898L188.9 35.6638C188.257 34.9309 187.542 34.3857 186.755 34.0282C185.969 33.6528 185.111 33.4652 184.181 33.4652C183.305 33.4652 182.501 33.6082 181.768 33.8942C181.035 34.1802 180.401 34.5913 179.865 35.1275C179.328 35.6638 178.908 36.2983 178.604 37.0312C178.318 37.7641 178.175 38.5774 178.175 39.4712C178.175 40.3649 178.318 41.1782 178.604 41.9111C178.908 42.644 179.328 43.2785 179.865 43.8148C180.401 44.351 181.035 44.7622 181.768 45.0482C182.501 45.3342 183.305 45.4772 184.181 45.4772C185.111 45.4772 185.969 45.2984 186.755 44.9409C187.542 44.5655 188.257 44.0025 188.9 43.2517L191.689 45.8257C190.795 46.9161 189.687 47.7473 188.364 48.3193C187.059 48.8913 185.585 49.1773 183.94 49.1773ZM197.79 48.8555V33.626H191.784V30.0868H208.14V33.626H202.134V48.8555H197.79ZM212.542 38.4791H222.462V40.1683H212.542V38.4791ZM212.756 47.1395H224.044V48.8555H210.772V30.0868H223.642V31.8028H212.756V47.1395ZM228.172 48.8555V30.0868H235.813C237.815 30.0868 239.567 30.489 241.069 31.2933C242.588 32.0798 243.768 33.1792 244.608 34.5913C245.448 36.0034 245.868 37.63 245.868 39.4712C245.868 41.3123 245.448 42.9389 244.608 44.351C243.768 45.7632 242.588 46.8714 241.069 47.6758C239.567 48.4623 237.815 48.8555 235.813 48.8555H228.172ZM230.156 47.1395H235.706C237.369 47.1395 238.807 46.8178 240.023 46.1743C241.256 45.5129 242.213 44.6102 242.892 43.4662C243.571 42.3043 243.911 40.9727 243.911 39.4712C243.911 37.9518 243.571 36.6201 242.892 35.4761C242.213 34.3321 241.256 33.4383 240.023 32.7948C238.807 32.1335 237.369 31.8028 235.706 31.8028H230.156V47.1395Z" fill="#231F20"/>
<path d="M82.2975 96.3199C81.4417 96.3199 80.6508 96.179 79.925 95.8974C79.1992 95.6049 78.5708 95.1986 78.04 94.6786C77.5092 94.1586 77.0921 93.5465 76.7888 92.8424C76.4963 92.1382 76.35 91.369 76.35 90.5349C76.35 89.7007 76.4963 88.9315 76.7888 88.2274C77.0921 87.5232 77.5092 86.9111 78.04 86.3911C78.5817 85.8711 79.2154 85.4703 79.9413 85.1886C80.6671 84.8961 81.4579 84.7499 82.3138 84.7499C83.1371 84.7499 83.9117 84.8907 84.6375 85.1724C85.3633 85.4432 85.9754 85.8549 86.4738 86.4074L85.71 87.1711C85.2442 86.6944 84.7296 86.3532 84.1663 86.1474C83.6029 85.9307 82.9963 85.8224 82.3463 85.8224C81.6638 85.8224 81.03 85.9415 80.445 86.1799C79.86 86.4074 79.3508 86.7378 78.9175 87.1711C78.4842 87.5936 78.1429 88.0919 77.8938 88.6661C77.6554 89.2294 77.5363 89.8524 77.5363 90.5349C77.5363 91.2174 77.6554 91.8457 77.8938 92.4199C78.1429 92.9832 78.4842 93.4815 78.9175 93.9149C79.3508 94.3374 79.86 94.6678 80.445 94.9061C81.03 95.1336 81.6638 95.2474 82.3463 95.2474C82.9963 95.2474 83.6029 95.139 84.1663 94.9224C84.7296 94.7057 85.2442 94.359 85.71 93.8824L86.4738 94.6461C85.9754 95.1986 85.3633 95.6157 84.6375 95.8974C83.9117 96.179 83.1317 96.3199 82.2975 96.3199ZM92.5401 96.3036C91.7167 96.3036 90.9747 96.1194 90.3138 95.7511C89.6638 95.3719 89.1492 94.8574 88.7701 94.2074C88.3909 93.5465 88.2013 92.7936 88.2013 91.9486C88.2013 91.0928 88.3909 90.3399 88.7701 89.6899C89.1492 89.0399 89.6638 88.5307 90.3138 88.1624C90.9638 87.794 91.7059 87.6099 92.5401 87.6099C93.3851 87.6099 94.1326 87.794 94.7826 88.1624C95.4434 88.5307 95.958 89.0399 96.3263 89.6899C96.7055 90.3399 96.8951 91.0928 96.8951 91.9486C96.8951 92.7936 96.7055 93.5465 96.3263 94.2074C95.958 94.8574 95.4434 95.3719 94.7826 95.7511C94.1217 96.1194 93.3742 96.3036 92.5401 96.3036ZM92.5401 95.2799C93.1576 95.2799 93.7047 95.1444 94.1813 94.8736C94.658 94.5919 95.0317 94.2019 95.3026 93.7036C95.5842 93.1944 95.7251 92.6094 95.7251 91.9486C95.7251 91.2769 95.5842 90.6919 95.3026 90.1936C95.0317 89.6953 94.658 89.3107 94.1813 89.0399C93.7047 88.7582 93.163 88.6174 92.5563 88.6174C91.9497 88.6174 91.408 88.7582 90.9313 89.0399C90.4547 89.3107 90.0755 89.6953 89.7938 90.1936C89.5122 90.6919 89.3713 91.2769 89.3713 91.9486C89.3713 92.6094 89.5122 93.1944 89.7938 93.7036C90.0755 94.2019 90.4547 94.5919 90.9313 94.8736C91.408 95.1444 91.9442 95.2799 92.5401 95.2799ZM104.256 87.6099C104.949 87.6099 105.556 87.7453 106.076 88.0161C106.606 88.2761 107.018 88.6769 107.311 89.2186C107.614 89.7603 107.766 90.4428 107.766 91.2661V96.2224H106.612V91.3799C106.612 90.4807 106.384 89.8036 105.929 89.3486C105.485 88.8828 104.857 88.6499 104.044 88.6499C103.438 88.6499 102.907 88.7744 102.452 89.0236C102.008 89.2619 101.661 89.614 101.412 90.0799C101.173 90.5349 101.054 91.0874 101.054 91.7374V96.2224H99.9006V87.6911H101.006V90.0311L100.827 89.5924C101.098 88.9749 101.531 88.4928 102.127 88.1461C102.723 87.7886 103.432 87.6099 104.256 87.6099ZM115.887 87.6099C116.58 87.6099 117.187 87.7453 117.707 88.0161C118.238 88.2761 118.65 88.6769 118.942 89.2186C119.245 89.7603 119.397 90.4428 119.397 91.2661V96.2224H118.243V91.3799C118.243 90.4807 118.016 89.8036 117.561 89.3486C117.117 88.8828 116.488 88.6499 115.676 88.6499C115.069 88.6499 114.538 88.7744 114.083 89.0236C113.639 89.2619 113.292 89.614 113.043 90.0799C112.805 90.5349 112.686 91.0874 112.686 91.7374V96.2224H111.532V87.6911H112.637V90.0311L112.458 89.5924C112.729 88.9749 113.162 88.4928 113.758 88.1461C114.354 87.7886 115.064 87.6099 115.887 87.6099ZM126.787 96.3036C125.899 96.3036 125.119 96.1194 124.447 95.7511C123.776 95.3719 123.25 94.8574 122.871 94.2074C122.492 93.5465 122.302 92.7936 122.302 91.9486C122.302 91.1036 122.481 90.3561 122.838 89.7061C123.207 89.0561 123.705 88.5469 124.333 88.1786C124.973 87.7994 125.688 87.6099 126.478 87.6099C127.28 87.6099 127.99 87.794 128.607 88.1624C129.236 88.5199 129.728 89.029 130.086 89.6899C130.443 90.3399 130.622 91.0928 130.622 91.9486C130.622 92.0028 130.617 92.0624 130.606 92.1274C130.606 92.1815 130.606 92.2411 130.606 92.3061H123.18V91.4449H129.988L129.533 91.7861C129.533 91.1686 129.398 90.6215 129.127 90.1449C128.867 89.6574 128.51 89.2782 128.055 89.0074C127.6 88.7365 127.074 88.6011 126.478 88.6011C125.893 88.6011 125.368 88.7365 124.902 89.0074C124.436 89.2782 124.073 89.6574 123.813 90.1449C123.553 90.6324 123.423 91.1903 123.423 91.8186V91.9974C123.423 92.6474 123.564 93.2215 123.846 93.7199C124.138 94.2074 124.539 94.5919 125.048 94.8736C125.568 95.1444 126.159 95.2799 126.82 95.2799C127.34 95.2799 127.822 95.1878 128.266 95.0036C128.721 94.8194 129.111 94.5378 129.436 94.1586L130.086 94.9061C129.707 95.3611 129.23 95.7078 128.656 95.9461C128.093 96.1844 127.47 96.3036 126.787 96.3036ZM137.163 96.3036C136.318 96.3036 135.56 96.1194 134.888 95.7511C134.227 95.3719 133.707 94.8574 133.328 94.2074C132.949 93.5465 132.759 92.7936 132.759 91.9486C132.759 91.0928 132.949 90.3399 133.328 89.6899C133.707 89.0399 134.227 88.5307 134.888 88.1624C135.56 87.794 136.318 87.6099 137.163 87.6099C137.889 87.6099 138.544 87.7507 139.129 88.0324C139.714 88.314 140.175 88.7365 140.511 89.2999L139.649 89.8849C139.357 89.4515 138.994 89.1319 138.561 88.9261C138.127 88.7203 137.656 88.6174 137.147 88.6174C136.54 88.6174 135.993 88.7582 135.506 89.0399C135.018 89.3107 134.634 89.6953 134.352 90.1936C134.07 90.6919 133.929 91.2769 133.929 91.9486C133.929 92.6203 134.07 93.2053 134.352 93.7036C134.634 94.2019 135.018 94.5919 135.506 94.8736C135.993 95.1444 136.54 95.2799 137.147 95.2799C137.656 95.2799 138.127 95.1769 138.561 94.9711C138.994 94.7653 139.357 94.4511 139.649 94.0286L140.511 94.6136C140.175 95.1661 139.714 95.5886 139.129 95.8811C138.544 96.1628 137.889 96.3036 137.163 96.3036ZM146.22 96.3036C145.418 96.3036 144.801 96.0869 144.367 95.6536C143.934 95.2203 143.717 94.6082 143.717 93.8174V85.8061H144.871V93.7524C144.871 94.2507 144.996 94.6353 145.245 94.9061C145.505 95.1769 145.873 95.3124 146.35 95.3124C146.859 95.3124 147.281 95.1661 147.617 94.8736L148.024 95.7024C147.796 95.9082 147.52 96.0599 147.195 96.1574C146.881 96.2549 146.556 96.3036 146.22 96.3036ZM142.19 88.6499V87.6911H147.471V88.6499H142.19ZM150.774 96.2224V87.6911H151.928V96.2224H150.774ZM151.359 85.8061C151.121 85.8061 150.92 85.7249 150.758 85.5624C150.595 85.3999 150.514 85.2049 150.514 84.9774C150.514 84.7499 150.595 84.5603 150.758 84.4086C150.92 84.2461 151.121 84.1649 151.359 84.1649C151.597 84.1649 151.798 84.2407 151.96 84.3924C152.123 84.544 152.204 84.7336 152.204 84.9611C152.204 85.1994 152.123 85.3999 151.96 85.5624C151.808 85.7249 151.608 85.8061 151.359 85.8061ZM160.143 87.6099C160.836 87.6099 161.443 87.7453 161.963 88.0161C162.494 88.2761 162.905 88.6769 163.198 89.2186C163.501 89.7603 163.653 90.4428 163.653 91.2661V96.2224H162.499V91.3799C162.499 90.4807 162.272 89.8036 161.817 89.3486C161.372 88.8828 160.744 88.6499 159.932 88.6499C159.325 88.6499 158.794 88.7744 158.339 89.0236C157.895 89.2619 157.548 89.614 157.299 90.0799C157.061 90.5349 156.942 91.0874 156.942 91.7374V96.2224H155.788V87.6911H156.893V90.0311L156.714 89.5924C156.985 88.9749 157.418 88.4928 158.014 88.1461C158.61 87.7886 159.32 87.6099 160.143 87.6099ZM171.059 99.4561C170.279 99.4561 169.532 99.3424 168.817 99.1149C168.102 98.8874 167.522 98.5624 167.078 98.1399L167.663 97.2624C168.064 97.6199 168.557 97.9015 169.142 98.1074C169.738 98.324 170.366 98.4324 171.027 98.4324C172.11 98.4324 172.906 98.1778 173.416 97.6686C173.925 97.1703 174.179 96.3903 174.179 95.3286V93.1999L174.342 91.7374L174.228 90.2749V87.6911H175.333V95.1824C175.333 96.6557 174.97 97.7336 174.244 98.4161C173.529 99.1094 172.468 99.4561 171.059 99.4561ZM170.848 95.8974C170.036 95.8974 169.304 95.724 168.654 95.3774C168.004 95.0199 167.49 94.5269 167.111 93.8986C166.742 93.2703 166.558 92.5499 166.558 91.7374C166.558 90.9249 166.742 90.2099 167.111 89.5924C167.49 88.964 168.004 88.4765 168.654 88.1299C169.304 87.7832 170.036 87.6099 170.848 87.6099C171.606 87.6099 172.289 87.7669 172.896 88.0811C173.502 88.3953 173.984 88.8611 174.342 89.4786C174.699 90.0961 174.878 90.849 174.878 91.7374C174.878 92.6257 174.699 93.3786 174.342 93.9961C173.984 94.6136 173.502 95.0849 172.896 95.4099C172.289 95.7349 171.606 95.8974 170.848 95.8974ZM170.962 94.8736C171.59 94.8736 172.148 94.7436 172.636 94.4836C173.123 94.2128 173.508 93.8444 173.789 93.3786C174.071 92.9019 174.212 92.3549 174.212 91.7374C174.212 91.1199 174.071 90.5782 173.789 90.1124C173.508 89.6465 173.123 89.2836 172.636 89.0236C172.148 88.7528 171.59 88.6174 170.962 88.6174C170.344 88.6174 169.786 88.7528 169.288 89.0236C168.801 89.2836 168.416 89.6465 168.134 90.1124C167.863 90.5782 167.728 91.1199 167.728 91.7374C167.728 92.3549 167.863 92.9019 168.134 93.3786C168.416 93.8444 168.801 94.2128 169.288 94.4836C169.786 94.7436 170.344 94.8736 170.962 94.8736ZM79.8113 116.304C79.0096 116.304 78.3921 116.087 77.9588 115.654C77.5254 115.22 77.3088 114.608 77.3088 113.817V105.806H78.4625V113.752C78.4625 114.251 78.5871 114.635 78.8363 114.906C79.0963 115.177 79.4646 115.312 79.9413 115.312C80.4504 115.312 80.8729 115.166 81.2088 114.874L81.615 115.702C81.3875 115.908 81.1113 116.06 80.7863 116.157C80.4721 116.255 80.1471 116.304 79.8113 116.304ZM75.7813 108.65V107.691H81.0625V108.65H75.7813ZM88.7203 107.61C89.4137 107.61 90.0203 107.745 90.5403 108.016C91.0712 108.276 91.4828 108.677 91.7753 109.219C92.0787 109.76 92.2303 110.443 92.2303 111.266V116.222H91.0766V111.38C91.0766 110.481 90.8491 109.804 90.3941 109.349C89.9499 108.883 89.3216 108.65 88.5091 108.65C87.9024 108.65 87.3716 108.774 86.9166 109.024C86.4724 109.262 86.1257 109.614 85.8766 110.08C85.6382 110.535 85.5191 111.087 85.5191 111.737V116.222H84.3653V104.165H85.5191V110.031L85.2916 109.592C85.5624 108.975 85.9957 108.493 86.5916 108.146C87.1874 107.789 87.897 107.61 88.7203 107.61ZM95.9968 116.222V107.691H97.1018V110.015L96.988 109.609C97.2263 108.959 97.6272 108.466 98.1905 108.13C98.7538 107.783 99.4526 107.61 100.287 107.61V108.731C100.243 108.731 100.2 108.731 100.157 108.731C100.113 108.72 100.07 108.715 100.027 108.715C99.1276 108.715 98.4234 108.991 97.9143 109.544C97.4051 110.085 97.1505 110.86 97.1505 111.867V116.222H95.9968ZM106.44 116.304C105.617 116.304 104.875 116.119 104.214 115.751C103.564 115.372 103.049 114.857 102.67 114.207C102.291 113.547 102.101 112.794 102.101 111.949C102.101 111.093 102.291 110.34 102.67 109.69C103.049 109.04 103.564 108.531 104.214 108.162C104.864 107.794 105.606 107.61 106.44 107.61C107.285 107.61 108.033 107.794 108.683 108.162C109.344 108.531 109.858 109.04 110.226 109.69C110.606 110.34 110.795 111.093 110.795 111.949C110.795 112.794 110.606 113.547 110.226 114.207C109.858 114.857 109.344 115.372 108.683 115.751C108.022 116.119 107.274 116.304 106.44 116.304ZM106.44 115.28C107.058 115.28 107.605 115.144 108.081 114.874C108.558 114.592 108.932 114.202 109.203 113.704C109.484 113.194 109.625 112.609 109.625 111.949C109.625 111.277 109.484 110.692 109.203 110.194C108.932 109.695 108.558 109.311 108.081 109.04C107.605 108.758 107.063 108.617 106.456 108.617C105.85 108.617 105.308 108.758 104.831 109.04C104.355 109.311 103.976 109.695 103.694 110.194C103.412 110.692 103.271 111.277 103.271 111.949C103.271 112.609 103.412 113.194 103.694 113.704C103.976 114.202 104.355 114.592 104.831 114.874C105.308 115.144 105.844 115.28 106.44 115.28ZM117.327 116.304C116.601 116.304 115.967 116.168 115.426 115.897C114.884 115.627 114.462 115.22 114.158 114.679C113.866 114.137 113.719 113.46 113.719 112.647V107.691H114.873V112.517C114.873 113.427 115.095 114.115 115.539 114.581C115.994 115.036 116.628 115.264 117.441 115.264C118.037 115.264 118.551 115.144 118.984 114.906C119.429 114.657 119.764 114.299 119.992 113.834C120.23 113.368 120.349 112.81 120.349 112.16V107.691H121.503V116.222H120.398V113.882L120.577 114.305C120.306 114.933 119.884 115.426 119.309 115.784C118.746 116.13 118.085 116.304 117.327 116.304ZM129.009 119.456C128.229 119.456 127.481 119.342 126.766 119.115C126.051 118.887 125.472 118.562 125.027 118.14L125.612 117.262C126.013 117.62 126.506 117.902 127.091 118.107C127.687 118.324 128.315 118.432 128.976 118.432C130.059 118.432 130.856 118.178 131.365 117.669C131.874 117.17 132.129 116.39 132.129 115.329V113.2L132.291 111.737L132.177 110.275V107.691H133.282V115.182C133.282 116.656 132.919 117.734 132.194 118.416C131.479 119.109 130.417 119.456 129.009 119.456ZM128.797 115.897C127.985 115.897 127.254 115.724 126.604 115.377C125.954 115.02 125.439 114.527 125.06 113.899C124.692 113.27 124.507 112.55 124.507 111.737C124.507 110.925 124.692 110.21 125.06 109.592C125.439 108.964 125.954 108.477 126.604 108.13C127.254 107.783 127.985 107.61 128.797 107.61C129.556 107.61 130.238 107.767 130.845 108.081C131.452 108.395 131.934 108.861 132.291 109.479C132.649 110.096 132.827 110.849 132.827 111.737C132.827 112.626 132.649 113.379 132.291 113.996C131.934 114.614 131.452 115.085 130.845 115.41C130.238 115.735 129.556 115.897 128.797 115.897ZM128.911 114.874C129.539 114.874 130.097 114.744 130.585 114.484C131.072 114.213 131.457 113.844 131.739 113.379C132.02 112.902 132.161 112.355 132.161 111.737C132.161 111.12 132.02 110.578 131.739 110.112C131.457 109.647 131.072 109.284 130.585 109.024C130.097 108.753 129.539 108.617 128.911 108.617C128.294 108.617 127.736 108.753 127.237 109.024C126.75 109.284 126.365 109.647 126.084 110.112C125.813 110.578 125.677 111.12 125.677 111.737C125.677 112.355 125.813 112.902 126.084 113.379C126.365 113.844 126.75 114.213 127.237 114.484C127.736 114.744 128.294 114.874 128.911 114.874ZM141.498 107.61C142.191 107.61 142.798 107.745 143.318 108.016C143.849 108.276 144.26 108.677 144.553 109.219C144.856 109.76 145.008 110.443 145.008 111.266V116.222H143.854V111.38C143.854 110.481 143.627 109.804 143.172 109.349C142.727 108.883 142.099 108.65 141.287 108.65C140.68 108.65 140.149 108.774 139.694 109.024C139.25 109.262 138.903 109.614 138.654 110.08C138.416 110.535 138.297 111.087 138.297 111.737V116.222H137.143V104.165H138.297V110.031L138.069 109.592C138.34 108.975 138.773 108.493 139.369 108.146C139.965 107.789 140.675 107.61 141.498 107.61ZM157.301 116.304C156.413 116.304 155.633 116.119 154.961 115.751C154.289 115.372 153.764 114.857 153.385 114.207C153.006 113.547 152.816 112.794 152.816 111.949C152.816 111.104 152.995 110.356 153.352 109.706C153.721 109.056 154.219 108.547 154.847 108.179C155.486 107.799 156.201 107.61 156.992 107.61C157.794 107.61 158.504 107.794 159.121 108.162C159.749 108.52 160.242 109.029 160.6 109.69C160.957 110.34 161.136 111.093 161.136 111.949C161.136 112.003 161.131 112.062 161.12 112.127C161.12 112.182 161.12 112.241 161.12 112.306H153.694V111.445H160.502L160.047 111.786C160.047 111.169 159.912 110.622 159.641 110.145C159.381 109.657 159.024 109.278 158.569 109.007C158.114 108.737 157.588 108.601 156.992 108.601C156.407 108.601 155.882 108.737 155.416 109.007C154.95 109.278 154.587 109.657 154.327 110.145C154.067 110.632 153.937 111.19 153.937 111.819V111.997C153.937 112.647 154.078 113.222 154.36 113.72C154.652 114.207 155.053 114.592 155.562 114.874C156.082 115.144 156.673 115.28 157.334 115.28C157.854 115.28 158.336 115.188 158.78 115.004C159.235 114.819 159.625 114.538 159.95 114.159L160.6 114.906C160.221 115.361 159.744 115.708 159.17 115.946C158.606 116.184 157.984 116.304 157.301 116.304ZM167.531 116.304C166.718 116.304 165.987 116.119 165.337 115.751C164.698 115.383 164.194 114.874 163.826 114.224C163.457 113.563 163.273 112.804 163.273 111.949C163.273 111.082 163.457 110.324 163.826 109.674C164.194 109.024 164.698 108.52 165.337 108.162C165.987 107.794 166.718 107.61 167.531 107.61C168.278 107.61 168.944 107.778 169.529 108.114C170.125 108.449 170.596 108.942 170.943 109.592C171.301 110.232 171.479 111.017 171.479 111.949C171.479 112.869 171.306 113.655 170.959 114.305C170.613 114.955 170.141 115.453 169.546 115.8C168.961 116.136 168.289 116.304 167.531 116.304ZM167.612 115.28C168.219 115.28 168.76 115.144 169.237 114.874C169.724 114.592 170.104 114.202 170.374 113.704C170.656 113.194 170.797 112.609 170.797 111.949C170.797 111.277 170.656 110.692 170.374 110.194C170.104 109.695 169.724 109.311 169.237 109.04C168.76 108.758 168.219 108.617 167.612 108.617C167.016 108.617 166.48 108.758 166.003 109.04C165.526 109.311 165.147 109.695 164.866 110.194C164.584 110.692 164.443 111.277 164.443 111.949C164.443 112.609 164.584 113.194 164.866 113.704C165.147 114.202 165.526 114.592 166.003 114.874C166.48 115.144 167.016 115.28 167.612 115.28ZM170.829 116.222V113.655L170.943 111.932L170.781 110.21V104.165H171.934V116.222H170.829ZM179.324 116.304C178.598 116.304 177.964 116.168 177.423 115.897C176.881 115.627 176.458 115.22 176.155 114.679C175.863 114.137 175.716 113.46 175.716 112.647V107.691H176.87V112.517C176.87 113.427 177.092 114.115 177.536 114.581C177.991 115.036 178.625 115.264 179.438 115.264C180.033 115.264 180.548 115.144 180.981 114.906C181.426 114.657 181.761 114.299 181.989 113.834C182.227 113.368 182.346 112.81 182.346 112.16V107.691H183.5V116.222H182.395V113.882L182.574 114.305C182.303 114.933 181.881 115.426 181.306 115.784C180.743 116.13 180.082 116.304 179.324 116.304ZM190.908 116.304C190.063 116.304 189.305 116.119 188.633 115.751C187.972 115.372 187.452 114.857 187.073 114.207C186.694 113.547 186.504 112.794 186.504 111.949C186.504 111.093 186.694 110.34 187.073 109.69C187.452 109.04 187.972 108.531 188.633 108.162C189.305 107.794 190.063 107.61 190.908 107.61C191.634 107.61 192.289 107.751 192.874 108.032C193.459 108.314 193.92 108.737 194.256 109.3L193.394 109.885C193.102 109.452 192.739 109.132 192.306 108.926C191.872 108.72 191.401 108.617 190.892 108.617C190.285 108.617 189.738 108.758 189.251 109.04C188.763 109.311 188.378 109.695 188.097 110.194C187.815 110.692 187.674 111.277 187.674 111.949C187.674 112.62 187.815 113.205 188.097 113.704C188.378 114.202 188.763 114.592 189.251 114.874C189.738 115.144 190.285 115.28 190.892 115.28C191.401 115.28 191.872 115.177 192.306 114.971C192.739 114.765 193.102 114.451 193.394 114.029L194.256 114.614C193.92 115.166 193.459 115.589 192.874 115.881C192.289 116.163 191.634 116.304 190.908 116.304ZM202.518 116.222V114.337L202.47 114.029V110.876C202.47 110.15 202.264 109.592 201.852 109.202C201.451 108.812 200.85 108.617 200.048 108.617C199.496 108.617 198.97 108.709 198.472 108.894C197.974 109.078 197.551 109.322 197.205 109.625L196.685 108.764C197.118 108.395 197.638 108.114 198.245 107.919C198.851 107.713 199.49 107.61 200.162 107.61C201.267 107.61 202.117 107.886 202.713 108.439C203.32 108.98 203.623 109.809 203.623 110.925V116.222H202.518ZM199.577 116.304C198.938 116.304 198.38 116.201 197.903 115.995C197.437 115.778 197.08 115.486 196.831 115.117C196.582 114.738 196.457 114.305 196.457 113.817C196.457 113.373 196.56 112.972 196.766 112.615C196.982 112.247 197.329 111.954 197.806 111.737C198.293 111.51 198.943 111.396 199.756 111.396H202.697V112.257H199.788C198.965 112.257 198.391 112.404 198.066 112.696C197.752 112.989 197.595 113.352 197.595 113.785C197.595 114.272 197.784 114.662 198.163 114.955C198.542 115.247 199.073 115.394 199.756 115.394C200.406 115.394 200.964 115.247 201.43 114.955C201.906 114.652 202.253 114.218 202.47 113.655L202.73 114.451C202.513 115.014 202.134 115.464 201.592 115.8C201.061 116.136 200.39 116.304 199.577 116.304ZM210.105 116.304C209.303 116.304 208.685 116.087 208.252 115.654C207.819 115.22 207.602 114.608 207.602 113.817V105.806H208.756V113.752C208.756 114.251 208.88 114.635 209.13 114.906C209.39 115.177 209.758 115.312 210.235 115.312C210.744 115.312 211.166 115.166 211.502 114.874L211.908 115.702C211.681 115.908 211.405 116.06 211.08 116.157C210.765 116.255 210.44 116.304 210.105 116.304ZM206.075 108.65V107.691H211.356V108.65H206.075ZM214.659 116.222V107.691H215.812V116.222H214.659ZM215.244 105.806C215.005 105.806 214.805 105.725 214.642 105.562C214.48 105.4 214.399 105.205 214.399 104.977C214.399 104.75 214.48 104.56 214.642 104.409C214.805 104.246 215.005 104.165 215.244 104.165C215.482 104.165 215.682 104.241 215.845 104.392C216.007 104.544 216.089 104.734 216.089 104.961C216.089 105.199 216.007 105.4 215.845 105.562C215.693 105.725 215.493 105.806 215.244 105.806ZM224.028 107.61C224.721 107.61 225.328 107.745 225.848 108.016C226.378 108.276 226.79 108.677 227.083 109.219C227.386 109.76 227.538 110.443 227.538 111.266V116.222H226.384V111.38C226.384 110.481 226.156 109.804 225.701 109.349C225.257 108.883 224.629 108.65 223.816 108.65C223.21 108.65 222.679 108.774 222.224 109.024C221.78 109.262 221.433 109.614 221.184 110.08C220.946 110.535 220.826 111.087 220.826 111.737V116.222H219.673V107.691H220.778V110.031L220.599 109.592C220.87 108.975 221.303 108.493 221.899 108.146C222.495 107.789 223.204 107.61 224.028 107.61ZM234.944 119.456C234.164 119.456 233.417 119.342 232.702 119.115C231.987 118.887 231.407 118.562 230.963 118.14L231.548 117.262C231.949 117.62 232.442 117.902 233.027 118.107C233.622 118.324 234.251 118.432 234.912 118.432C235.995 118.432 236.791 118.178 237.3 117.669C237.809 117.17 238.064 116.39 238.064 115.329V113.2L238.227 111.737L238.113 110.275V107.691H239.218V115.182C239.218 116.656 238.855 117.734 238.129 118.416C237.414 119.109 236.352 119.456 234.944 119.456ZM234.733 115.897C233.92 115.897 233.189 115.724 232.539 115.377C231.889 115.02 231.374 114.527 230.995 113.899C230.627 113.27 230.443 112.55 230.443 111.737C230.443 110.925 230.627 110.21 230.995 109.592C231.374 108.964 231.889 108.477 232.539 108.13C233.189 107.783 233.92 107.61 234.733 107.61C235.491 107.61 236.174 107.767 236.78 108.081C237.387 108.395 237.869 108.861 238.227 109.479C238.584 110.096 238.763 110.849 238.763 111.737C238.763 112.626 238.584 113.379 238.227 113.996C237.869 114.614 237.387 115.085 236.78 115.41C236.174 115.735 235.491 115.897 234.733 115.897ZM234.847 114.874C235.475 114.874 236.033 114.744 236.52 114.484C237.008 114.213 237.392 113.844 237.674 113.379C237.956 112.902 238.097 112.355 238.097 111.737C238.097 111.12 237.956 110.578 237.674 110.112C237.392 109.647 237.008 109.284 236.52 109.024C236.033 108.753 235.475 108.617 234.847 108.617C234.229 108.617 233.671 108.753 233.173 109.024C232.685 109.284 232.301 109.647 232.019 110.112C231.748 110.578 231.613 111.12 231.613 111.737C231.613 112.355 231.748 112.902 232.019 113.379C232.301 113.844 232.685 114.213 233.173 114.484C233.671 114.744 234.229 114.874 234.847 114.874Z" fill="#231F20"/>
<line x1="75.505" y1="64.4599" x2="247.033" y2="64.4599" stroke="#34568C" stroke-width="2.4375"/>
</svg>
