<svg width="78" height="105" viewBox="0 0 78 105" fill="none" xmlns="http://www.w3.org/2000/svg">
<path d="M36.3053 104.241L30.8537 104.208L27.0837 103.149L23.2638 102.04L15.267 98.3698L13.2491 97.1242L7.17055 92.557L3.9984 88.5254L1.45321 83.4392L0 77.9585L0.0332154 66.6234L1.69403 59.1872L4.18524 52.1495L8.54487 43.5548L13.5273 36.2181L18.1194 30.6669L20.8307 27.5612L20.8639 18.9374L22.0556 13.955L24.5468 9.19674L30.0399 3.63718L34.7317 1.29128L38.9958 0H43.123L45.2405 0.830406L50.8914 6.4481L52.137 8.93932V12.6761L50.8914 16.9029L47.8189 22.9856L38.9958 37.6257L34.8438 44.8627C35.7683 46.2688 36.8257 47.7552 38.016 49.3219L39.7972 51.6678L47.5324 59.6646H48.558L49.351 56.7582L50.5053 51.7011L51.4187 43.4966L50.8582 36.3593L51.7177 35.832L55.1846 38.672L56.3762 42.3092L57.9623 49.8077L58.7554 61.0473L58.5893 67.6905L67.2795 72.0543L74.1884 74.2216L75.1808 75.0521L77.672 76.2977L78 77.3855L73.0176 76.9911L66.7397 74.8735C61.3005 72.2079 58.3941 70.7768 58.0204 70.5803L57.5263 73.5532L55.2843 82.9409L52.5439 89.4845L49.3385 94.8821L45.5353 99.4494L41.5369 102.389L36.3053 104.241ZM2.37911 72.7477L3.17215 72.2868L3.69946 65.6768L4.85787 59.5941L4.55893 59.2993L2.89812 66.5695L2.37911 72.7477ZM8.95592 77.1281L9.54966 69.098L11.5343 60.3373L13.9467 53.2996L16.9859 46.756L16.6206 46.3948L11.8956 56.0607L9.6161 63.1191L8.37049 69.1022V75.7454L8.95592 77.1281ZM12.0949 80.6282L12.6388 70.1028L14.2248 61.94C15.0829 59.4736 15.9133 56.9963 16.7161 54.5078L20.1872 47.0715L24.8457 39.2076V38.6761H24.1565L19.7927 45.3858L15.1674 54.4746L12.755 61.5123L11.0942 69.7084L11.5094 78.6975L12.0949 80.6282ZM15.0013 73.6238L15.7279 72.0709L16.9195 65.3944L18.2731 61.0971L19.5187 56.8703L22.0307 51.0201L26.656 42.0642L25.9253 41.321L25.6595 41.6199L22.886 46.3449L20.5069 51.1032L17.6627 58.3069L15.4829 67.0262L15.0013 73.6238ZM21.1504 57.8128L22.0763 54.6365L27.5279 44.0323V43.6171L26.0747 45.4689L23.0977 51.3855L20.4903 57.6135V57.8461L21.1504 57.8128ZM21.6113 76.3516L22.4417 75.16V73.0134L24.7212 62.2181L27.9265 52.9342L29.5126 49.8243C29.3801 49.7166 29.2591 49.5956 29.1514 49.4631L26.0457 56.0067L23.9281 61.8569L22.0805 69.5548L21.6113 76.3516ZM24.389 18.8834L24.8499 18.3852L24.4347 17.3638L24.389 18.8834ZM24.8042 17.3306L27.229 12.2734L30.833 7.68125L35.0597 4.64197H34.2293L31.2232 6.68892L29.0102 8.76493L25.9253 13.2989L24.8001 16.4379L24.8042 17.3306ZM28.5078 89.4347L32.3734 86.9891L37.5509 81.8365L41.4538 75.953L43.8662 71.6557L46.5733 65.3778L47.1006 63.3973L42.1805 59.5608L32.5685 50.2437L32.2737 50.5759L30.7209 53.7148L27.5487 63.0652L25.9253 70.4848L25.5101 79.474L26.3031 84.9256L26.9342 87.1718L27.6276 89.4181L28.5078 89.4347ZM26.4027 16.9652L27.1958 14.8186H27.7895L28.6822 12.8671L29.6745 11.58L33.5733 7.5816L36.3053 5.43501L32.801 7.21622L28.4165 11.58L26.3405 15.9729L26.4027 16.9652ZM29.1472 19.5104L41.6033 8.14213L42.4337 6.58927C42.326 6.4568 42.205 6.33576 42.0725 6.22804L37.6755 7.84733L33.6107 10.9198L30.9658 14.2415L29.1805 17.7541L28.649 19.5062L29.1472 19.5104ZM29.0808 32.9588L30.2019 31.8045L34.3539 26.6477L44.3187 14.8518L46.9968 10.6998L47.4577 8.3871C46.4653 9.86107 45.4855 11.3516 44.518 12.8464L42.5666 15.7902L29.0808 31.9042V32.9588ZM30.3679 35.9358L30.833 35.8694C35.8652 29.1735 40.8989 22.4874 45.9339 15.8109L48.2133 11.7793V10.3552L44.7423 15.9438L38.2983 24.3973L32.747 31.4018L29.8738 35.4334L30.3679 35.9358ZM44.709 11.3143L46.7269 8.10891L46.1664 7.61482C45.8523 8.39208 45.4989 9.15288 45.1076 9.89428L44.4142 11.3143H44.709ZM47.8812 78.6643L49.3053 76.3184L51.7177 69.9409L52.245 66.5695L51.618 67.13C49.1074 74.576 47.8521 78.3654 47.8521 78.4982H47.8812V78.6643ZM48.1469 82.0648L49.0396 81.5375L51.618 75.953L52.6436 72.3823C53.3245 69.9824 53.665 68.6386 53.665 68.3507H53.5985V67.9355H52.8387V69.0607L49.405 79.0712L48.1469 82.0648ZM49.3718 17.1645V16.4047H48.6119V17.1645H49.3718ZM49.6666 69.7084L50.0818 69.2932L50.9122 66.2207L50.252 66.9473L49.9863 68.3341L49.6666 69.7084ZM52.1121 62.4714V61.2798L51.3523 61.7656V62.4922L52.1121 62.4714ZM52.1785 61.1137L52.5937 60.1255L52.1785 59.1664V61.1137ZM52.3778 63.8582L53.3037 63.0278L54.0636 58.4024V56.9824L53.4034 57.3769L52.9384 61.1428L52.3778 63.8582ZM52.5771 58.3734L52.9716 57.4142L52.5771 56.4219V58.3734ZM54.5244 63.4637L54.9396 62.5046L54.5743 61.1137L54.5244 63.4637ZM55.6164 73.1463L56.1105 72.6812L55.7161 71.6557L55.6164 73.1463Z" fill="#FEC960"/>
</svg>
